G75*
%MOIN*%
%OFA0B0*%
%FSLAX25Y25*%
%IPPOS*%
%LPD*%
%AMOC8*
5,1,8,0,0,1.08239X$1,22.5*
%
%ADD10C,0.14186*%
%ADD11R,0.06328X0.06328*%
%ADD12C,0.06328*%
%ADD13OC8,0.07400*%
%ADD14R,0.05918X0.06706*%
%ADD15C,0.06469*%
%ADD16C,0.16548*%
%ADD17C,0.07887*%
%ADD18C,0.16391*%
%ADD19R,0.08800X0.03400*%
%ADD20OC8,0.12800*%
%ADD21C,0.03762*%
D10*
X0018800Y0018800D03*
X0244800Y0018800D03*
X0243800Y0292800D03*
X0018800Y0292800D03*
D11*
X0139650Y0108902D03*
D12*
X0139650Y0118902D03*
X0139650Y0128902D03*
X0139650Y0138902D03*
X0108391Y0138902D03*
X0108391Y0128902D03*
X0108391Y0118902D03*
X0108391Y0108902D03*
D13*
X0021800Y0176800D03*
X0021800Y0187800D03*
X0021800Y0195800D03*
X0021800Y0206800D03*
X0092706Y0298013D03*
X0104517Y0298013D03*
X0116328Y0298013D03*
X0127800Y0297800D03*
X0140139Y0298013D03*
X0151950Y0298013D03*
X0163761Y0298013D03*
X0175572Y0298013D03*
X0187383Y0298013D03*
X0199194Y0298013D03*
X0211005Y0298013D03*
X0222816Y0298013D03*
X0236800Y0257800D03*
X0236800Y0247800D03*
X0236879Y0237517D03*
X0236800Y0227800D03*
X0243902Y0183438D03*
X0243902Y0168438D03*
X0243902Y0153438D03*
X0243902Y0138438D03*
X0243902Y0123438D03*
D14*
X0166816Y0239706D03*
X0159335Y0239706D03*
X0160060Y0249800D03*
X0167540Y0249800D03*
X0112572Y0289020D03*
X0105091Y0289020D03*
D15*
X0105044Y0277887D02*
X0105044Y0272217D01*
X0115044Y0272217D02*
X0115044Y0277887D01*
X0125044Y0277887D02*
X0125044Y0272217D01*
X0135044Y0272217D02*
X0135044Y0277887D01*
X0145044Y0277887D02*
X0145044Y0272217D01*
X0155044Y0272217D02*
X0155044Y0277887D01*
X0165044Y0277887D02*
X0165044Y0272217D01*
X0175044Y0272217D02*
X0175044Y0277887D01*
X0185044Y0277887D02*
X0185044Y0272217D01*
X0195044Y0272217D02*
X0195044Y0277887D01*
X0205044Y0277887D02*
X0205044Y0272217D01*
X0215044Y0272217D02*
X0215044Y0277887D01*
X0215044Y0217887D02*
X0215044Y0212217D01*
X0205044Y0212217D02*
X0205044Y0217887D01*
X0195044Y0217887D02*
X0195044Y0212217D01*
X0185044Y0212217D02*
X0185044Y0217887D01*
X0175044Y0217887D02*
X0175044Y0212217D01*
X0165044Y0212217D02*
X0165044Y0217887D01*
X0155044Y0217887D02*
X0155044Y0212217D01*
X0145044Y0212217D02*
X0145044Y0217887D01*
X0135044Y0217887D02*
X0135044Y0212217D01*
X0125044Y0212217D02*
X0125044Y0217887D01*
X0115044Y0217887D02*
X0115044Y0212217D01*
X0105044Y0212217D02*
X0105044Y0217887D01*
D16*
X0052674Y0109800D02*
X0036926Y0109800D01*
X0036926Y0052800D02*
X0052674Y0052800D01*
D17*
X0090335Y0262359D03*
X0090335Y0272202D03*
X0090335Y0282044D03*
D18*
X0062776Y0289524D03*
X0062776Y0254879D03*
D19*
X0173700Y0118800D03*
X0173700Y0113800D03*
X0173700Y0108800D03*
X0173700Y0103800D03*
X0173700Y0098800D03*
X0173700Y0093800D03*
X0173700Y0088800D03*
X0197900Y0088800D03*
X0197900Y0093800D03*
X0197900Y0098800D03*
X0197900Y0103800D03*
X0197900Y0108800D03*
X0197900Y0113800D03*
X0197900Y0118800D03*
D20*
X0093800Y0095241D03*
X0093800Y0010359D03*
D21*
X0135800Y0031800D03*
X0143800Y0043300D03*
X0143800Y0049800D03*
X0143800Y0055800D03*
X0188800Y0081800D03*
X0199800Y0083800D03*
X0224800Y0061800D03*
X0215800Y0118800D03*
X0208800Y0127800D03*
X0230800Y0120800D03*
X0177800Y0124800D03*
X0176800Y0135800D03*
X0175800Y0142800D03*
X0176800Y0148800D03*
X0176800Y0154800D03*
X0152800Y0120800D03*
X0137800Y0202800D03*
X0077800Y0135800D03*
M02*
