G75*
%MOIN*%
%OFA0B0*%
%FSLAX25Y25*%
%IPPOS*%
%LPD*%
%AMOC8*
5,1,8,0,0,1.08239X$1,22.5*
%
%ADD10C,0.00400*%
%ADD11C,0.00600*%
%ADD12C,0.00200*%
%ADD13C,0.00500*%
D10*
X0149910Y0236906D02*
X0152212Y0238440D01*
X0149910Y0239975D01*
X0152212Y0241509D02*
X0152212Y0236906D01*
X0153747Y0236906D02*
X0156816Y0236906D01*
X0155281Y0236906D02*
X0155281Y0241509D01*
X0156816Y0239975D01*
X0155100Y0248000D02*
X0152031Y0248000D01*
X0150496Y0248000D02*
X0150496Y0252604D01*
X0152031Y0251837D02*
X0152798Y0252604D01*
X0154333Y0252604D01*
X0155100Y0251837D01*
X0152031Y0251837D02*
X0152031Y0251069D01*
X0155100Y0248000D01*
X0150496Y0249535D02*
X0148194Y0251069D01*
X0146659Y0251837D02*
X0145892Y0252604D01*
X0144358Y0252604D01*
X0143590Y0251837D01*
X0143590Y0251069D01*
X0146659Y0248000D01*
X0143590Y0248000D01*
X0148194Y0248000D02*
X0150496Y0249535D01*
X0170823Y0250069D02*
X0171590Y0249302D01*
X0173125Y0249302D01*
X0173892Y0250069D01*
X0173892Y0250837D01*
X0173125Y0251604D01*
X0171590Y0251604D01*
X0170823Y0250837D01*
X0170823Y0250069D01*
X0171590Y0249302D02*
X0170823Y0248535D01*
X0170823Y0247767D01*
X0171590Y0247000D01*
X0173125Y0247000D01*
X0173892Y0247767D01*
X0173892Y0248535D01*
X0173125Y0249302D01*
X0175427Y0247000D02*
X0178496Y0247000D01*
X0176961Y0247000D02*
X0176961Y0251604D01*
X0178496Y0250069D01*
X0180031Y0249302D02*
X0180798Y0248535D01*
X0183100Y0248535D01*
X0181565Y0248535D02*
X0180031Y0247000D01*
X0180031Y0249302D02*
X0180031Y0250837D01*
X0180798Y0251604D01*
X0183100Y0251604D01*
X0183100Y0247000D01*
X0182885Y0241509D02*
X0182118Y0240742D01*
X0182118Y0239207D01*
X0182885Y0238440D01*
X0185187Y0238440D01*
X0183653Y0238440D02*
X0182118Y0236906D01*
X0180583Y0236906D02*
X0177514Y0236906D01*
X0175980Y0236906D02*
X0175980Y0237673D01*
X0172910Y0240742D01*
X0172910Y0241509D01*
X0175980Y0241509D01*
X0179049Y0241509D02*
X0179049Y0236906D01*
X0180583Y0239975D02*
X0179049Y0241509D01*
X0182885Y0241509D02*
X0185187Y0241509D01*
X0185187Y0236906D01*
X0124631Y0286988D02*
X0123864Y0286220D01*
X0122330Y0286220D01*
X0121562Y0286988D01*
X0120028Y0286988D02*
X0119260Y0286220D01*
X0117726Y0286220D01*
X0116958Y0286988D01*
X0116958Y0287755D01*
X0117726Y0288522D01*
X0120028Y0288522D01*
X0120028Y0286988D01*
X0120028Y0288522D02*
X0118493Y0290057D01*
X0116958Y0290824D01*
X0121562Y0290057D02*
X0122330Y0290824D01*
X0123864Y0290824D01*
X0124631Y0290057D01*
X0124631Y0286988D01*
X0100631Y0287220D02*
X0097562Y0287220D01*
X0099097Y0287220D02*
X0099097Y0291824D01*
X0100631Y0290290D01*
X0096028Y0291057D02*
X0096028Y0287988D01*
X0092958Y0291057D01*
X0092958Y0287988D01*
X0093726Y0287220D01*
X0095260Y0287220D01*
X0096028Y0287988D01*
X0096028Y0291057D02*
X0095260Y0291824D01*
X0093726Y0291824D01*
X0092958Y0291057D01*
X0091424Y0291057D02*
X0091424Y0287988D01*
X0088354Y0291057D01*
X0088354Y0287988D01*
X0089122Y0287220D01*
X0090656Y0287220D01*
X0091424Y0287988D01*
X0091424Y0291057D02*
X0090656Y0291824D01*
X0089122Y0291824D01*
X0088354Y0291057D01*
X0086820Y0290290D02*
X0086820Y0287220D01*
X0083750Y0287220D02*
X0083750Y0289522D01*
X0084518Y0290290D01*
X0086820Y0290290D01*
D11*
X0179600Y0086300D02*
X0192000Y0086300D01*
X0192076Y0086302D01*
X0192152Y0086308D01*
X0192227Y0086317D01*
X0192302Y0086331D01*
X0192376Y0086348D01*
X0192449Y0086369D01*
X0192521Y0086393D01*
X0192592Y0086422D01*
X0192661Y0086453D01*
X0192728Y0086488D01*
X0192793Y0086527D01*
X0192857Y0086569D01*
X0192918Y0086614D01*
X0192977Y0086662D01*
X0193033Y0086713D01*
X0193087Y0086767D01*
X0193138Y0086823D01*
X0193186Y0086882D01*
X0193231Y0086943D01*
X0193273Y0087007D01*
X0193312Y0087072D01*
X0193347Y0087139D01*
X0193378Y0087208D01*
X0193407Y0087279D01*
X0193431Y0087351D01*
X0193452Y0087424D01*
X0193469Y0087498D01*
X0193483Y0087573D01*
X0193492Y0087648D01*
X0193498Y0087724D01*
X0193500Y0087800D01*
X0179600Y0086300D02*
X0179524Y0086302D01*
X0179448Y0086308D01*
X0179373Y0086317D01*
X0179298Y0086331D01*
X0179224Y0086348D01*
X0179151Y0086369D01*
X0179079Y0086393D01*
X0179008Y0086422D01*
X0178939Y0086453D01*
X0178872Y0086488D01*
X0178807Y0086527D01*
X0178743Y0086569D01*
X0178682Y0086614D01*
X0178623Y0086662D01*
X0178567Y0086713D01*
X0178513Y0086767D01*
X0178462Y0086823D01*
X0178414Y0086882D01*
X0178369Y0086943D01*
X0178327Y0087007D01*
X0178288Y0087072D01*
X0178253Y0087139D01*
X0178222Y0087208D01*
X0178193Y0087279D01*
X0178169Y0087351D01*
X0178148Y0087424D01*
X0178131Y0087498D01*
X0178117Y0087573D01*
X0178108Y0087648D01*
X0178102Y0087724D01*
X0178100Y0087800D01*
X0178100Y0119800D02*
X0178102Y0119876D01*
X0178108Y0119952D01*
X0178117Y0120027D01*
X0178131Y0120102D01*
X0178148Y0120176D01*
X0178169Y0120249D01*
X0178193Y0120321D01*
X0178222Y0120392D01*
X0178253Y0120461D01*
X0178288Y0120528D01*
X0178327Y0120593D01*
X0178369Y0120657D01*
X0178414Y0120718D01*
X0178462Y0120777D01*
X0178513Y0120833D01*
X0178567Y0120887D01*
X0178623Y0120938D01*
X0178682Y0120986D01*
X0178743Y0121031D01*
X0178807Y0121073D01*
X0178872Y0121112D01*
X0178939Y0121147D01*
X0179008Y0121178D01*
X0179079Y0121207D01*
X0179151Y0121231D01*
X0179224Y0121252D01*
X0179298Y0121269D01*
X0179373Y0121283D01*
X0179448Y0121292D01*
X0179524Y0121298D01*
X0179600Y0121300D01*
X0183800Y0121300D01*
X0187800Y0121300D01*
X0192000Y0121300D01*
X0192076Y0121298D01*
X0192152Y0121292D01*
X0192227Y0121283D01*
X0192302Y0121269D01*
X0192376Y0121252D01*
X0192449Y0121231D01*
X0192521Y0121207D01*
X0192592Y0121178D01*
X0192661Y0121147D01*
X0192728Y0121112D01*
X0192793Y0121073D01*
X0192857Y0121031D01*
X0192918Y0120986D01*
X0192977Y0120938D01*
X0193033Y0120887D01*
X0193087Y0120833D01*
X0193138Y0120777D01*
X0193186Y0120718D01*
X0193231Y0120657D01*
X0193273Y0120593D01*
X0193312Y0120528D01*
X0193347Y0120461D01*
X0193378Y0120392D01*
X0193407Y0120321D01*
X0193431Y0120249D01*
X0193452Y0120176D01*
X0193469Y0120102D01*
X0193483Y0120027D01*
X0193492Y0119952D01*
X0193498Y0119876D01*
X0193500Y0119800D01*
X0187800Y0121300D02*
X0187798Y0121212D01*
X0187792Y0121123D01*
X0187782Y0121035D01*
X0187769Y0120948D01*
X0187751Y0120861D01*
X0187730Y0120775D01*
X0187705Y0120690D01*
X0187676Y0120607D01*
X0187643Y0120524D01*
X0187607Y0120444D01*
X0187568Y0120365D01*
X0187525Y0120287D01*
X0187478Y0120212D01*
X0187428Y0120139D01*
X0187375Y0120068D01*
X0187319Y0119999D01*
X0187260Y0119933D01*
X0187198Y0119870D01*
X0187134Y0119810D01*
X0187067Y0119752D01*
X0186997Y0119698D01*
X0186925Y0119646D01*
X0186851Y0119598D01*
X0186774Y0119553D01*
X0186696Y0119512D01*
X0186616Y0119474D01*
X0186535Y0119440D01*
X0186452Y0119409D01*
X0186367Y0119382D01*
X0186282Y0119359D01*
X0186196Y0119340D01*
X0186108Y0119324D01*
X0186021Y0119312D01*
X0185933Y0119304D01*
X0185844Y0119300D01*
X0185756Y0119300D01*
X0185667Y0119304D01*
X0185579Y0119312D01*
X0185492Y0119324D01*
X0185404Y0119340D01*
X0185318Y0119359D01*
X0185233Y0119382D01*
X0185148Y0119409D01*
X0185065Y0119440D01*
X0184984Y0119474D01*
X0184904Y0119512D01*
X0184826Y0119553D01*
X0184749Y0119598D01*
X0184675Y0119646D01*
X0184603Y0119698D01*
X0184533Y0119752D01*
X0184466Y0119810D01*
X0184402Y0119870D01*
X0184340Y0119933D01*
X0184281Y0119999D01*
X0184225Y0120068D01*
X0184172Y0120139D01*
X0184122Y0120212D01*
X0184075Y0120287D01*
X0184032Y0120365D01*
X0183993Y0120444D01*
X0183957Y0120524D01*
X0183924Y0120607D01*
X0183895Y0120690D01*
X0183870Y0120775D01*
X0183849Y0120861D01*
X0183831Y0120948D01*
X0183818Y0121035D01*
X0183808Y0121123D01*
X0183802Y0121212D01*
X0183800Y0121300D01*
D12*
X0192100Y0121300D02*
X0192100Y0086300D01*
D13*
X0188054Y0085072D02*
X0188054Y0088075D01*
X0187303Y0088075D01*
X0184301Y0085072D01*
X0183550Y0085072D01*
X0185802Y0089676D02*
X0185802Y0092679D01*
X0185802Y0094280D02*
X0185802Y0097283D01*
X0187303Y0098884D02*
X0184301Y0098884D01*
X0183550Y0099635D01*
X0183550Y0101136D01*
X0184301Y0101887D01*
X0184301Y0103488D02*
X0183550Y0104239D01*
X0183550Y0105740D01*
X0184301Y0106491D01*
X0185051Y0106491D01*
X0185802Y0105740D01*
X0185802Y0104989D01*
X0185802Y0105740D02*
X0186553Y0106491D01*
X0187303Y0106491D01*
X0188054Y0105740D01*
X0188054Y0104239D01*
X0187303Y0103488D01*
X0187303Y0101887D02*
X0188054Y0101136D01*
X0188054Y0099635D01*
X0187303Y0098884D01*
X0188054Y0097283D02*
X0183550Y0097283D01*
X0183550Y0094280D02*
X0188054Y0094280D01*
X0188054Y0091928D02*
X0185802Y0089676D01*
X0183550Y0091928D02*
X0188054Y0091928D01*
X0187303Y0108092D02*
X0188054Y0108843D01*
X0188054Y0110344D01*
X0187303Y0111095D01*
X0186553Y0111095D01*
X0183550Y0108092D01*
X0183550Y0111095D01*
X0183550Y0112696D02*
X0183550Y0114948D01*
X0184301Y0115699D01*
X0187303Y0115699D01*
X0188054Y0114948D01*
X0188054Y0112696D01*
X0183550Y0112696D01*
X0183194Y0123050D02*
X0182444Y0123801D01*
X0182444Y0124551D01*
X0183194Y0125302D01*
X0185446Y0125302D01*
X0185446Y0123801D01*
X0184695Y0123050D01*
X0183194Y0123050D01*
X0185446Y0125302D02*
X0183945Y0126803D01*
X0182444Y0127554D01*
X0187047Y0127554D02*
X0187047Y0123050D01*
X0190050Y0127554D01*
X0190050Y0123050D01*
M02*
