%
M48
M72
T01C0.0236
T02C0.0307
T03C0.0315
T04C0.0394
T05C0.0600
T06C0.0787
T07C0.0866
T08C0.1339
%
T01
X7780Y13580
X13780Y20280
X17680Y15480
X17680Y14880
X17580Y14280
X17680Y13580
X17780Y12480
X15280Y12080
X18880Y8180
X19980Y8380
X22480Y6180
X21580Y11880
X20880Y12780
X23080Y12080
X14380Y5580
X14380Y4980
X14380Y4330
X13580Y3180
T02
X13965Y10890
X13965Y11890
X13965Y12890
X13965Y13890
X10839Y13890
X10839Y12890
X10839Y11890
X10839Y10890
T03
X2180Y17680
X2180Y18780
X2180Y19580
X2180Y20680
X9271Y29801
X10452Y29801
X11633Y29801
X12780Y29780
X14014Y29801
X15195Y29801
X16376Y29801
X17557Y29801
X18738Y29801
X19919Y29801
X21100Y29801
X22282Y29801
X21504Y27505
X20504Y27505
X19504Y27505
X18504Y27505
X17504Y27505
X16504Y27505
X15504Y27505
X14504Y27505
X13504Y27505
X12504Y27505
X11504Y27505
X10504Y27505
X10504Y21505
X11504Y21505
X12504Y21505
X13504Y21505
X14504Y21505
X15504Y21505
X16504Y21505
X17504Y21505
X18504Y21505
X19504Y21505
X20504Y21505
X21504Y21505
X23680Y22780
X23688Y23752
X23680Y24780
X23680Y25780
X24390Y18344
X24390Y16844
X24390Y15344
X24390Y13844
X24390Y12344
T04
X9034Y26236
X9034Y27220
X9034Y28204
T05
X9380Y9524
X9380Y1036
T06
X4480Y5280
X4480Y10980
T07
X6278Y25488
X6278Y28952
T08
X1880Y1880
X24480Y1880
X24380Y29280
X1880Y29280
M30
