G75*
%MOIN*%
%OFA0B0*%
%FSLAX25Y25*%
%IPPOS*%
%LPD*%
%AMOC8*
5,1,8,0,0,1.08239X$1,22.5*
%
%ADD10C,0.00400*%
%ADD11C,0.00300*%
%ADD12C,0.00600*%
%ADD13C,0.00787*%
%ADD14C,0.00500*%
%ADD15C,0.00800*%
%ADD16C,0.01200*%
D10*
X0006996Y0185000D02*
X0006996Y0187302D01*
X0007763Y0188069D01*
X0009298Y0188069D01*
X0010065Y0187302D01*
X0010065Y0185000D01*
X0011600Y0185000D02*
X0006996Y0185000D01*
X0009298Y0189604D02*
X0010833Y0189604D01*
X0011600Y0190371D01*
X0011600Y0191906D01*
X0010833Y0192673D01*
X0009298Y0192673D01*
X0008531Y0191906D01*
X0008531Y0190371D01*
X0009298Y0189604D01*
X0008531Y0194208D02*
X0010833Y0194208D01*
X0011600Y0194975D01*
X0010833Y0195742D01*
X0011600Y0196510D01*
X0010833Y0197277D01*
X0008531Y0197277D01*
X0009298Y0198812D02*
X0008531Y0199579D01*
X0008531Y0201114D01*
X0009298Y0201881D01*
X0010065Y0201881D01*
X0010065Y0198812D01*
X0009298Y0198812D02*
X0010833Y0198812D01*
X0011600Y0199579D01*
X0011600Y0201114D01*
X0011600Y0203416D02*
X0008531Y0203416D01*
X0008531Y0204950D02*
X0008531Y0205718D01*
X0008531Y0204950D02*
X0010065Y0203416D01*
X0148000Y0243000D02*
X0148000Y0246069D01*
X0149535Y0247604D01*
X0151069Y0246069D01*
X0151069Y0243000D01*
X0152604Y0243000D02*
X0152604Y0246069D01*
X0152604Y0244535D02*
X0154139Y0246069D01*
X0154906Y0246069D01*
X0156441Y0245302D02*
X0157208Y0246069D01*
X0159510Y0246069D01*
X0161044Y0246069D02*
X0161044Y0243767D01*
X0161812Y0243000D01*
X0164114Y0243000D01*
X0164114Y0246069D01*
X0165648Y0246069D02*
X0166416Y0246069D01*
X0166416Y0243000D01*
X0167183Y0243000D02*
X0165648Y0243000D01*
X0168718Y0243000D02*
X0168718Y0246069D01*
X0171020Y0246069D01*
X0171787Y0245302D01*
X0171787Y0243000D01*
X0173322Y0243767D02*
X0174089Y0243000D01*
X0175624Y0243000D01*
X0176391Y0243767D01*
X0176391Y0245302D01*
X0175624Y0246069D01*
X0174089Y0246069D01*
X0173322Y0245302D01*
X0173322Y0243767D01*
X0166416Y0247604D02*
X0166416Y0248371D01*
X0159510Y0247604D02*
X0159510Y0243000D01*
X0157208Y0243000D01*
X0156441Y0243767D01*
X0156441Y0245302D01*
X0151069Y0245302D02*
X0148000Y0245302D01*
X0152000Y0287000D02*
X0155069Y0287000D01*
X0156604Y0287767D02*
X0156604Y0290837D01*
X0157371Y0291604D01*
X0158906Y0291604D01*
X0159673Y0290837D01*
X0161208Y0291604D02*
X0161208Y0287000D01*
X0163510Y0287000D01*
X0164277Y0287767D01*
X0164277Y0290837D01*
X0163510Y0291604D01*
X0161208Y0291604D01*
X0159673Y0287767D02*
X0158906Y0287000D01*
X0157371Y0287000D01*
X0156604Y0287767D01*
X0152000Y0287000D02*
X0152000Y0291604D01*
X0225996Y0255485D02*
X0225996Y0252416D01*
X0228298Y0252416D01*
X0227531Y0253950D01*
X0227531Y0254718D01*
X0228298Y0255485D01*
X0229833Y0255485D01*
X0230600Y0254718D01*
X0230600Y0253183D01*
X0229833Y0252416D01*
X0229833Y0250881D02*
X0226763Y0250881D01*
X0229833Y0247812D01*
X0230600Y0248579D01*
X0230600Y0250114D01*
X0229833Y0250881D01*
X0229833Y0247812D02*
X0226763Y0247812D01*
X0225996Y0248579D01*
X0225996Y0250114D01*
X0226763Y0250881D01*
X0225996Y0246277D02*
X0225996Y0243208D01*
X0225996Y0244742D02*
X0230600Y0244742D01*
X0229833Y0241673D02*
X0230600Y0240906D01*
X0230600Y0239371D01*
X0229833Y0238604D01*
X0226763Y0238604D01*
X0225996Y0239371D01*
X0225996Y0240906D01*
X0226763Y0241673D01*
X0225996Y0237069D02*
X0230600Y0237069D01*
X0228298Y0237069D02*
X0228298Y0234000D01*
X0230600Y0234000D02*
X0225996Y0234000D01*
X0235298Y0168020D02*
X0234531Y0167252D01*
X0234531Y0165718D01*
X0235298Y0164950D01*
X0234531Y0163416D02*
X0234531Y0161114D01*
X0235298Y0160346D01*
X0236833Y0160346D01*
X0237600Y0161114D01*
X0237600Y0163416D01*
X0237600Y0164950D02*
X0232996Y0164950D01*
X0235298Y0168020D02*
X0237600Y0168020D01*
X0237600Y0158812D02*
X0236833Y0158044D01*
X0233763Y0158044D01*
X0234531Y0157277D02*
X0234531Y0158812D01*
X0234531Y0154975D02*
X0237600Y0154975D01*
X0237600Y0154208D02*
X0237600Y0155742D01*
X0236833Y0152673D02*
X0234531Y0152673D01*
X0234531Y0154208D02*
X0234531Y0154975D01*
X0232996Y0154975D02*
X0232229Y0154975D01*
X0236833Y0152673D02*
X0237600Y0151906D01*
X0236833Y0151139D01*
X0237600Y0150371D01*
X0236833Y0149604D01*
X0234531Y0149604D01*
X0233763Y0148069D02*
X0232996Y0147302D01*
X0232996Y0145767D01*
X0233763Y0145000D01*
X0234531Y0145000D01*
X0235298Y0145767D01*
X0235298Y0147302D01*
X0236065Y0148069D01*
X0236833Y0148069D01*
X0237600Y0147302D01*
X0237600Y0145767D01*
X0236833Y0145000D01*
D11*
X0249052Y0139490D02*
X0250987Y0136588D01*
X0251999Y0136588D02*
X0253934Y0136588D01*
X0252966Y0136588D02*
X0252966Y0139490D01*
X0251999Y0138523D01*
X0250987Y0139490D02*
X0249052Y0136588D01*
X0249052Y0124490D02*
X0250987Y0121588D01*
X0251999Y0122072D02*
X0252483Y0121588D01*
X0253450Y0121588D01*
X0253934Y0122072D01*
X0253934Y0123039D01*
X0253450Y0123523D01*
X0252966Y0123523D01*
X0251999Y0123039D01*
X0251999Y0124490D01*
X0253934Y0124490D01*
X0250987Y0124490D02*
X0249052Y0121588D01*
X0244958Y0115325D02*
X0243507Y0113874D01*
X0245442Y0113874D01*
X0244958Y0115325D02*
X0244958Y0112422D01*
X0242495Y0112422D02*
X0241528Y0113390D01*
X0242011Y0113390D02*
X0240560Y0113390D01*
X0240560Y0112422D02*
X0240560Y0115325D01*
X0242011Y0115325D01*
X0242495Y0114841D01*
X0242495Y0113874D01*
X0242011Y0113390D01*
X0242507Y0109325D02*
X0244442Y0109325D01*
X0244442Y0108841D01*
X0242507Y0106906D01*
X0242507Y0106422D01*
X0241011Y0106422D02*
X0241011Y0109325D01*
X0239560Y0107874D01*
X0241495Y0107874D01*
X0245453Y0108841D02*
X0245937Y0109325D01*
X0246905Y0109325D01*
X0247388Y0108841D01*
X0245453Y0106906D01*
X0245937Y0106422D01*
X0246905Y0106422D01*
X0247388Y0106906D01*
X0247388Y0108841D01*
X0248400Y0109325D02*
X0249851Y0109325D01*
X0250335Y0108841D01*
X0250335Y0107874D01*
X0249851Y0107390D01*
X0248400Y0107390D01*
X0249367Y0107390D02*
X0250335Y0106422D01*
X0248400Y0106422D02*
X0248400Y0109325D01*
X0245453Y0108841D02*
X0245453Y0106906D01*
X0244507Y0093915D02*
X0246442Y0091013D01*
X0246442Y0093915D01*
X0247453Y0092948D02*
X0248421Y0093915D01*
X0248421Y0091013D01*
X0249388Y0091013D02*
X0247453Y0091013D01*
X0244507Y0091013D02*
X0244507Y0093915D01*
X0239519Y0084327D02*
X0238068Y0084327D01*
X0238068Y0081425D01*
X0239519Y0081425D01*
X0240003Y0081908D01*
X0240003Y0083843D01*
X0239519Y0084327D01*
X0237056Y0084327D02*
X0236089Y0083843D01*
X0235121Y0082876D01*
X0236573Y0082876D01*
X0237056Y0082392D01*
X0237056Y0081908D01*
X0236573Y0081425D01*
X0235605Y0081425D01*
X0235121Y0081908D01*
X0235121Y0082876D01*
X0234110Y0082392D02*
X0233626Y0082876D01*
X0232175Y0082876D01*
X0232175Y0081908D01*
X0232659Y0081425D01*
X0233626Y0081425D01*
X0234110Y0081908D01*
X0234110Y0082392D01*
X0233142Y0083843D02*
X0232175Y0082876D01*
X0233142Y0083843D02*
X0234110Y0084327D01*
X0231163Y0083843D02*
X0229228Y0081908D01*
X0229712Y0081425D01*
X0230679Y0081425D01*
X0231163Y0081908D01*
X0231163Y0083843D01*
X0230679Y0084327D01*
X0229712Y0084327D01*
X0229228Y0083843D01*
X0229228Y0081908D01*
X0228217Y0082876D02*
X0226282Y0082876D01*
X0227733Y0084327D01*
X0227733Y0081425D01*
X0225270Y0081908D02*
X0224786Y0081425D01*
X0223819Y0081425D01*
X0223335Y0081908D01*
X0223335Y0083843D01*
X0223819Y0084327D01*
X0224786Y0084327D01*
X0225270Y0083843D01*
X0222324Y0084327D02*
X0222324Y0081425D01*
X0222324Y0082876D02*
X0220389Y0082876D01*
X0219377Y0082876D02*
X0217442Y0082876D01*
X0218893Y0084327D01*
X0218893Y0081425D01*
X0220389Y0081425D02*
X0220389Y0084327D01*
X0216431Y0084327D02*
X0216431Y0083843D01*
X0214496Y0081908D01*
X0214496Y0081425D01*
X0214496Y0084327D02*
X0216431Y0084327D01*
X0220899Y0101781D02*
X0222834Y0101781D01*
X0221866Y0101781D02*
X0221866Y0104683D01*
X0220899Y0103716D01*
X0223845Y0103716D02*
X0223845Y0104199D01*
X0224329Y0104683D01*
X0225297Y0104683D01*
X0225780Y0104199D01*
X0225780Y0103716D01*
X0225297Y0103232D01*
X0224329Y0103232D01*
X0223845Y0103716D01*
X0224329Y0103232D02*
X0223845Y0102748D01*
X0223845Y0102264D01*
X0224329Y0101781D01*
X0225297Y0101781D01*
X0225780Y0102264D01*
X0225780Y0102748D01*
X0225297Y0103232D01*
X0226792Y0104199D02*
X0226792Y0102264D01*
X0228727Y0104199D01*
X0228727Y0102264D01*
X0228243Y0101781D01*
X0227276Y0101781D01*
X0226792Y0102264D01*
X0226792Y0104199D02*
X0227276Y0104683D01*
X0228243Y0104683D01*
X0228727Y0104199D01*
X0229738Y0104683D02*
X0229738Y0101781D01*
X0229738Y0102748D02*
X0231190Y0102748D01*
X0231673Y0103232D01*
X0231673Y0104199D01*
X0231190Y0104683D01*
X0229738Y0104683D01*
X0230706Y0102748D02*
X0231673Y0101781D01*
X0227297Y0115781D02*
X0226329Y0115781D01*
X0225845Y0116264D01*
X0224834Y0115781D02*
X0223866Y0116748D01*
X0224350Y0116748D02*
X0222899Y0116748D01*
X0222899Y0115781D02*
X0222899Y0118683D01*
X0224350Y0118683D01*
X0224834Y0118199D01*
X0224834Y0117232D01*
X0224350Y0116748D01*
X0225845Y0118199D02*
X0226329Y0118683D01*
X0227297Y0118683D01*
X0227780Y0118199D01*
X0227780Y0117716D01*
X0227297Y0117232D01*
X0227780Y0116748D01*
X0227780Y0116264D01*
X0227297Y0115781D01*
X0227297Y0117232D02*
X0226813Y0117232D01*
X0204586Y0150840D02*
X0204102Y0150840D01*
X0202167Y0152775D01*
X0201684Y0152775D01*
X0201684Y0150840D01*
X0203135Y0153786D02*
X0201684Y0155238D01*
X0204586Y0155238D01*
X0204586Y0156733D02*
X0201684Y0156733D01*
X0203135Y0156733D02*
X0203135Y0158668D01*
X0202167Y0159679D02*
X0204102Y0159679D01*
X0204586Y0160163D01*
X0204586Y0161131D01*
X0204102Y0161614D01*
X0202167Y0161614D02*
X0201684Y0161131D01*
X0201684Y0160163D01*
X0202167Y0159679D01*
X0201684Y0158668D02*
X0204586Y0158668D01*
X0203135Y0155721D02*
X0203135Y0153786D01*
X0201684Y0162626D02*
X0201684Y0164561D01*
X0201684Y0163593D02*
X0204586Y0163593D01*
X0204586Y0165572D02*
X0204586Y0167507D01*
X0204586Y0166540D02*
X0201684Y0166540D01*
X0202651Y0165572D01*
X0203135Y0168519D02*
X0202651Y0169486D01*
X0202651Y0169970D01*
X0203135Y0170454D01*
X0204102Y0170454D01*
X0204586Y0169970D01*
X0204586Y0169003D01*
X0204102Y0168519D01*
X0203135Y0168519D02*
X0201684Y0168519D01*
X0201684Y0170454D01*
X0203135Y0171465D02*
X0201684Y0172917D01*
X0204586Y0172917D01*
X0204586Y0174412D02*
X0204586Y0175863D01*
X0204102Y0176347D01*
X0202167Y0176347D01*
X0201684Y0175863D01*
X0201684Y0174412D01*
X0204586Y0174412D01*
X0203135Y0173400D02*
X0203135Y0171465D01*
X0203291Y0194025D02*
X0201840Y0194025D01*
X0201840Y0196927D01*
X0203291Y0196927D01*
X0203775Y0196444D01*
X0203775Y0194509D01*
X0203291Y0194025D01*
X0204786Y0194025D02*
X0206721Y0194025D01*
X0205754Y0194025D02*
X0205754Y0196927D01*
X0204786Y0195960D01*
X0172522Y0193298D02*
X0172522Y0192814D01*
X0172038Y0192330D01*
X0172522Y0191847D01*
X0172522Y0191363D01*
X0172038Y0190879D01*
X0171071Y0190879D01*
X0170587Y0191363D01*
X0169576Y0190879D02*
X0167641Y0190879D01*
X0168608Y0190879D02*
X0168608Y0193782D01*
X0167641Y0192814D01*
X0166629Y0192330D02*
X0166145Y0191847D01*
X0164694Y0191847D01*
X0165662Y0191847D02*
X0166629Y0190879D01*
X0166629Y0192330D02*
X0166629Y0193298D01*
X0166145Y0193782D01*
X0164694Y0193782D01*
X0164694Y0190879D01*
X0164694Y0185097D02*
X0166145Y0185097D01*
X0166629Y0184613D01*
X0166629Y0183645D01*
X0166145Y0183162D01*
X0164694Y0183162D01*
X0165662Y0183162D02*
X0166629Y0182194D01*
X0167641Y0182194D02*
X0169576Y0182194D01*
X0168608Y0182194D02*
X0168608Y0185097D01*
X0167641Y0184129D01*
X0170587Y0184613D02*
X0171071Y0185097D01*
X0172038Y0185097D01*
X0172522Y0184613D01*
X0172522Y0184129D01*
X0170587Y0182194D01*
X0172522Y0182194D01*
X0164694Y0182194D02*
X0164694Y0185097D01*
X0171555Y0192330D02*
X0172038Y0192330D01*
X0172522Y0193298D02*
X0172038Y0193782D01*
X0171071Y0193782D01*
X0170587Y0193298D01*
X0171071Y0201564D02*
X0170587Y0202048D01*
X0171071Y0201564D02*
X0172038Y0201564D01*
X0172522Y0202048D01*
X0172522Y0203015D01*
X0172038Y0203499D01*
X0171555Y0203499D01*
X0170587Y0203015D01*
X0170587Y0204467D01*
X0172522Y0204467D01*
X0169576Y0201564D02*
X0167641Y0201564D01*
X0168608Y0201564D02*
X0168608Y0204467D01*
X0167641Y0203499D01*
X0166629Y0203015D02*
X0166145Y0202532D01*
X0164694Y0202532D01*
X0165662Y0202532D02*
X0166629Y0201564D01*
X0166629Y0203015D02*
X0166629Y0203983D01*
X0166145Y0204467D01*
X0164694Y0204467D01*
X0164694Y0201564D01*
X0148522Y0202048D02*
X0148522Y0202532D01*
X0148038Y0203015D01*
X0146587Y0203015D01*
X0146587Y0202048D01*
X0147071Y0201564D01*
X0148038Y0201564D01*
X0148522Y0202048D01*
X0147555Y0203983D02*
X0146587Y0203015D01*
X0147555Y0203983D02*
X0148522Y0204467D01*
X0145576Y0204467D02*
X0145576Y0201564D01*
X0143641Y0201564D02*
X0143641Y0204467D01*
X0144608Y0203499D01*
X0145576Y0204467D01*
X0142629Y0204467D02*
X0140694Y0204467D01*
X0140694Y0203015D01*
X0141662Y0203499D01*
X0142145Y0203499D01*
X0142629Y0203015D01*
X0142629Y0202048D01*
X0142145Y0201564D01*
X0141178Y0201564D01*
X0140694Y0202048D01*
X0136187Y0197467D02*
X0134736Y0196016D01*
X0136671Y0196016D01*
X0136187Y0194565D02*
X0136187Y0197467D01*
X0133724Y0197467D02*
X0133724Y0194565D01*
X0131789Y0197467D01*
X0131789Y0194565D01*
X0138694Y0194782D02*
X0138694Y0193330D01*
X0139662Y0193814D01*
X0140145Y0193814D01*
X0140629Y0193330D01*
X0140629Y0192363D01*
X0140145Y0191879D01*
X0139178Y0191879D01*
X0138694Y0192363D01*
X0138694Y0194782D02*
X0140629Y0194782D01*
X0141641Y0193330D02*
X0143092Y0193330D01*
X0143576Y0192847D01*
X0143576Y0192363D01*
X0143092Y0191879D01*
X0142124Y0191879D01*
X0141641Y0192363D01*
X0141641Y0193330D01*
X0142608Y0194298D01*
X0143576Y0194782D01*
X0144587Y0194298D02*
X0145071Y0194782D01*
X0146038Y0194782D01*
X0146522Y0194298D01*
X0144587Y0192363D01*
X0145071Y0191879D01*
X0146038Y0191879D01*
X0146522Y0192363D01*
X0146522Y0194298D01*
X0147534Y0194782D02*
X0147534Y0191879D01*
X0147534Y0192847D02*
X0148985Y0193814D01*
X0147534Y0192847D02*
X0148985Y0191879D01*
X0144587Y0192363D02*
X0144587Y0194298D01*
X0143629Y0184097D02*
X0141694Y0184097D01*
X0141694Y0182645D01*
X0142662Y0183129D01*
X0143145Y0183129D01*
X0143629Y0182645D01*
X0143629Y0181678D01*
X0143145Y0181194D01*
X0142178Y0181194D01*
X0141694Y0181678D01*
X0144641Y0181678D02*
X0145124Y0181194D01*
X0146092Y0181194D01*
X0146576Y0181678D01*
X0146576Y0182162D01*
X0146092Y0182645D01*
X0144641Y0182645D01*
X0144641Y0181678D01*
X0144641Y0182645D02*
X0145608Y0183613D01*
X0146576Y0184097D01*
X0147587Y0184097D02*
X0147587Y0181194D01*
X0147587Y0182162D02*
X0149038Y0183129D01*
X0147587Y0182162D02*
X0149038Y0181194D01*
X0149031Y0174412D02*
X0148064Y0173928D01*
X0147096Y0172960D01*
X0148547Y0172960D01*
X0149031Y0172477D01*
X0149031Y0171993D01*
X0148547Y0171509D01*
X0147580Y0171509D01*
X0147096Y0171993D01*
X0147096Y0172960D01*
X0146092Y0173444D02*
X0144641Y0172477D01*
X0146092Y0171509D01*
X0144641Y0171509D02*
X0144641Y0174412D01*
X0143629Y0174412D02*
X0141694Y0174412D01*
X0141694Y0172960D01*
X0142662Y0173444D01*
X0143145Y0173444D01*
X0143629Y0172960D01*
X0143629Y0171993D01*
X0143145Y0171509D01*
X0142178Y0171509D01*
X0141694Y0171993D01*
X0140629Y0165726D02*
X0138694Y0165726D01*
X0138694Y0164275D01*
X0139662Y0164759D01*
X0140145Y0164759D01*
X0140629Y0164275D01*
X0140629Y0163308D01*
X0140145Y0162824D01*
X0139178Y0162824D01*
X0138694Y0163308D01*
X0141641Y0163308D02*
X0142124Y0162824D01*
X0143092Y0162824D01*
X0143576Y0163308D01*
X0143576Y0163791D01*
X0143092Y0164275D01*
X0141641Y0164275D01*
X0141641Y0163308D01*
X0141641Y0164275D02*
X0142608Y0165243D01*
X0143576Y0165726D01*
X0144587Y0165243D02*
X0145071Y0165726D01*
X0146038Y0165726D01*
X0146522Y0165243D01*
X0144587Y0163308D01*
X0145071Y0162824D01*
X0146038Y0162824D01*
X0146522Y0163308D01*
X0146522Y0165243D01*
X0147534Y0165726D02*
X0148985Y0165726D01*
X0149469Y0165243D01*
X0149469Y0164275D01*
X0148985Y0163791D01*
X0147534Y0163791D01*
X0147534Y0162824D02*
X0147534Y0165726D01*
X0148501Y0163791D02*
X0149469Y0162824D01*
X0144587Y0163308D02*
X0144587Y0165243D01*
X0145576Y0155041D02*
X0144608Y0154558D01*
X0143641Y0153590D01*
X0145092Y0153590D01*
X0145576Y0153106D01*
X0145576Y0152623D01*
X0145092Y0152139D01*
X0144124Y0152139D01*
X0143641Y0152623D01*
X0143641Y0153590D01*
X0142629Y0153590D02*
X0142629Y0152623D01*
X0142145Y0152139D01*
X0141178Y0152139D01*
X0140694Y0152623D01*
X0140694Y0153590D02*
X0141662Y0154074D01*
X0142145Y0154074D01*
X0142629Y0153590D01*
X0142629Y0155041D02*
X0140694Y0155041D01*
X0140694Y0153590D01*
X0146587Y0153106D02*
X0148038Y0153106D01*
X0148522Y0153590D01*
X0148522Y0154558D01*
X0148038Y0155041D01*
X0146587Y0155041D01*
X0146587Y0152139D01*
X0147555Y0153106D02*
X0148522Y0152139D01*
X0164694Y0152139D02*
X0164694Y0155041D01*
X0166145Y0155041D01*
X0166629Y0154558D01*
X0166629Y0153590D01*
X0166145Y0153106D01*
X0164694Y0153106D01*
X0165662Y0153106D02*
X0166629Y0152139D01*
X0167641Y0152623D02*
X0168124Y0152139D01*
X0169092Y0152139D01*
X0169576Y0152623D01*
X0169576Y0154558D01*
X0169092Y0155041D01*
X0168124Y0155041D01*
X0167641Y0154558D01*
X0167641Y0154074D01*
X0168124Y0153590D01*
X0169576Y0153590D01*
X0169576Y0161824D02*
X0167641Y0161824D01*
X0168608Y0161824D02*
X0168608Y0164726D01*
X0167641Y0163759D01*
X0166629Y0164243D02*
X0166629Y0163275D01*
X0166145Y0162791D01*
X0164694Y0162791D01*
X0164694Y0161824D02*
X0164694Y0164726D01*
X0166145Y0164726D01*
X0166629Y0164243D01*
X0165662Y0162791D02*
X0166629Y0161824D01*
X0170587Y0162308D02*
X0172522Y0164243D01*
X0172522Y0162308D01*
X0172038Y0161824D01*
X0171071Y0161824D01*
X0170587Y0162308D01*
X0170587Y0164243D01*
X0171071Y0164726D01*
X0172038Y0164726D01*
X0172522Y0164243D01*
X0172522Y0171509D02*
X0170587Y0171509D01*
X0171555Y0171509D02*
X0171555Y0174412D01*
X0170587Y0173444D01*
X0169576Y0171509D02*
X0167641Y0171509D01*
X0168608Y0171509D02*
X0168608Y0174412D01*
X0167641Y0173444D01*
X0166629Y0172960D02*
X0166145Y0172477D01*
X0164694Y0172477D01*
X0165662Y0172477D02*
X0166629Y0171509D01*
X0166629Y0172960D02*
X0166629Y0173928D01*
X0166145Y0174412D01*
X0164694Y0174412D01*
X0164694Y0171509D01*
X0132883Y0139530D02*
X0132883Y0139046D01*
X0130948Y0137111D01*
X0130948Y0136627D01*
X0132883Y0136627D01*
X0132883Y0139530D02*
X0130948Y0139530D01*
X0129937Y0139046D02*
X0129937Y0138078D01*
X0129453Y0137595D01*
X0128002Y0137595D01*
X0128969Y0137595D02*
X0129937Y0136627D01*
X0128002Y0136627D02*
X0128002Y0139530D01*
X0129453Y0139530D01*
X0129937Y0139046D01*
X0126990Y0139530D02*
X0126023Y0139530D01*
X0126507Y0139530D02*
X0126507Y0137111D01*
X0126023Y0136627D01*
X0125539Y0136627D01*
X0125055Y0137111D01*
X0124044Y0137111D02*
X0124044Y0137595D01*
X0123560Y0138078D01*
X0122109Y0138078D01*
X0122109Y0137111D01*
X0122593Y0136627D01*
X0123560Y0136627D01*
X0124044Y0137111D01*
X0123076Y0139046D02*
X0124044Y0139530D01*
X0123076Y0139046D02*
X0122109Y0138078D01*
X0121097Y0137595D02*
X0121097Y0137111D01*
X0120614Y0136627D01*
X0119646Y0136627D01*
X0119162Y0137111D01*
X0120130Y0138078D02*
X0120614Y0138078D01*
X0121097Y0137595D01*
X0120614Y0138078D02*
X0121097Y0138562D01*
X0121097Y0139046D01*
X0120614Y0139530D01*
X0119646Y0139530D01*
X0119162Y0139046D01*
X0118151Y0139046D02*
X0116216Y0137111D01*
X0116216Y0136627D01*
X0115204Y0137111D02*
X0115204Y0139046D01*
X0114720Y0139530D01*
X0113269Y0139530D01*
X0113269Y0136627D01*
X0114720Y0136627D01*
X0115204Y0137111D01*
X0116216Y0139530D02*
X0118151Y0139530D01*
X0118151Y0139046D01*
X0112258Y0138562D02*
X0112258Y0136627D01*
X0112258Y0138078D02*
X0110323Y0138078D01*
X0110323Y0138562D02*
X0111290Y0139530D01*
X0112258Y0138562D01*
X0110323Y0138562D02*
X0110323Y0136627D01*
X0110937Y0144278D02*
X0110937Y0147180D01*
X0111948Y0146696D02*
X0112432Y0147180D01*
X0113400Y0147180D01*
X0113883Y0146696D01*
X0113883Y0146213D01*
X0113400Y0145729D01*
X0113883Y0145245D01*
X0113883Y0144761D01*
X0113400Y0144278D01*
X0112432Y0144278D01*
X0111948Y0144761D01*
X0110937Y0144278D02*
X0109002Y0147180D01*
X0109002Y0144278D01*
X0112916Y0145729D02*
X0113400Y0145729D01*
X0113895Y0158455D02*
X0112444Y0158455D01*
X0111960Y0158938D01*
X0111960Y0160390D01*
X0110949Y0160873D02*
X0109014Y0158938D01*
X0109497Y0158455D01*
X0110465Y0158455D01*
X0110949Y0158938D01*
X0110949Y0160873D01*
X0110465Y0161357D01*
X0109497Y0161357D01*
X0109014Y0160873D01*
X0109014Y0158938D01*
X0108002Y0158455D02*
X0106067Y0158455D01*
X0107035Y0158455D02*
X0107035Y0161357D01*
X0106067Y0160390D01*
X0108876Y0163470D02*
X0109360Y0162986D01*
X0110327Y0162986D01*
X0110811Y0163470D01*
X0111822Y0162986D02*
X0113757Y0162986D01*
X0112790Y0162986D02*
X0112790Y0165889D01*
X0111822Y0164921D01*
X0110811Y0165405D02*
X0110327Y0165889D01*
X0109360Y0165889D01*
X0108876Y0165405D01*
X0108876Y0163470D01*
X0113895Y0160390D02*
X0113895Y0158455D01*
X0113895Y0177455D02*
X0112444Y0177455D01*
X0111960Y0177938D01*
X0111960Y0179390D01*
X0110949Y0179873D02*
X0109014Y0177938D01*
X0109497Y0177455D01*
X0110465Y0177455D01*
X0110949Y0177938D01*
X0110949Y0179873D01*
X0110465Y0180357D01*
X0109497Y0180357D01*
X0109014Y0179873D01*
X0109014Y0177938D01*
X0108002Y0177455D02*
X0106067Y0177455D01*
X0108002Y0179390D01*
X0108002Y0179873D01*
X0107518Y0180357D01*
X0106551Y0180357D01*
X0106067Y0179873D01*
X0105056Y0179873D02*
X0104572Y0180357D01*
X0103604Y0180357D01*
X0103121Y0179873D01*
X0105056Y0179873D02*
X0105056Y0179390D01*
X0103121Y0177455D01*
X0105056Y0177455D01*
X0104719Y0183087D02*
X0106654Y0185022D01*
X0106654Y0185506D01*
X0106171Y0185989D01*
X0105203Y0185989D01*
X0104719Y0185506D01*
X0103708Y0185506D02*
X0103224Y0185989D01*
X0101773Y0185989D01*
X0101773Y0183087D01*
X0103224Y0183087D01*
X0103708Y0183571D01*
X0103708Y0185506D01*
X0104719Y0183087D02*
X0106654Y0183087D01*
X0108633Y0183087D02*
X0108633Y0185989D01*
X0107666Y0185989D02*
X0109601Y0185989D01*
X0110612Y0185506D02*
X0110612Y0183571D01*
X0111096Y0183087D01*
X0112064Y0183087D01*
X0112547Y0183571D01*
X0112547Y0184538D01*
X0111580Y0184538D01*
X0111876Y0184405D02*
X0111876Y0182470D01*
X0112360Y0181986D01*
X0113327Y0181986D01*
X0113811Y0182470D01*
X0114822Y0183437D02*
X0116757Y0183437D01*
X0116274Y0181986D02*
X0116274Y0184889D01*
X0114822Y0183437D01*
X0113811Y0184405D02*
X0113327Y0184889D01*
X0112360Y0184889D01*
X0111876Y0184405D01*
X0112547Y0185506D02*
X0112064Y0185989D01*
X0111096Y0185989D01*
X0110612Y0185506D01*
X0113895Y0179390D02*
X0113895Y0177455D01*
X0100761Y0183571D02*
X0100278Y0183087D01*
X0099310Y0183087D01*
X0098826Y0183571D01*
X0098826Y0185506D01*
X0099310Y0185989D01*
X0100278Y0185989D01*
X0100761Y0185506D01*
X0097815Y0185022D02*
X0097815Y0183087D01*
X0097815Y0184538D02*
X0095880Y0184538D01*
X0095880Y0185022D02*
X0096847Y0185989D01*
X0097815Y0185022D01*
X0095880Y0185022D02*
X0095880Y0183087D01*
X0094868Y0183571D02*
X0094868Y0184538D01*
X0094385Y0185022D01*
X0093901Y0185022D01*
X0092933Y0184538D01*
X0092933Y0185989D01*
X0094868Y0185989D01*
X0094868Y0183571D02*
X0094385Y0183087D01*
X0093417Y0183087D01*
X0092933Y0183571D01*
X0091922Y0183571D02*
X0091922Y0185506D01*
X0089987Y0183571D01*
X0090471Y0183087D01*
X0091438Y0183087D01*
X0091922Y0183571D01*
X0091922Y0185506D02*
X0091438Y0185989D01*
X0090471Y0185989D01*
X0089987Y0185506D01*
X0089987Y0183571D01*
X0088975Y0183571D02*
X0088975Y0185506D01*
X0088492Y0185989D01*
X0087524Y0185989D01*
X0087040Y0185506D01*
X0087040Y0185022D01*
X0087524Y0184538D01*
X0088975Y0184538D01*
X0088975Y0183571D02*
X0088492Y0183087D01*
X0087524Y0183087D01*
X0087040Y0183571D01*
X0086029Y0185506D02*
X0084094Y0183571D01*
X0084094Y0183087D01*
X0083082Y0183571D02*
X0082598Y0183087D01*
X0081631Y0183087D01*
X0081147Y0183571D01*
X0081147Y0185506D01*
X0081631Y0185989D01*
X0082598Y0185989D01*
X0083082Y0185506D01*
X0084094Y0185989D02*
X0086029Y0185989D01*
X0086029Y0185506D01*
X0080136Y0185989D02*
X0080136Y0183087D01*
X0078201Y0183087D02*
X0078201Y0185989D01*
X0079168Y0185022D01*
X0080136Y0185989D01*
X0073938Y0186234D02*
X0073938Y0188169D01*
X0073455Y0188652D01*
X0072487Y0188652D01*
X0072003Y0188169D01*
X0072003Y0187685D01*
X0072487Y0187201D01*
X0073938Y0187201D01*
X0073938Y0186234D02*
X0073455Y0185750D01*
X0072487Y0185750D01*
X0072003Y0186234D01*
X0070992Y0186234D02*
X0070508Y0185750D01*
X0069541Y0185750D01*
X0069057Y0186234D01*
X0069057Y0188169D01*
X0069541Y0188652D01*
X0070508Y0188652D01*
X0070992Y0188169D01*
X0070508Y0195750D02*
X0070992Y0196234D01*
X0070508Y0195750D02*
X0069541Y0195750D01*
X0069057Y0196234D01*
X0069057Y0198169D01*
X0069541Y0198652D01*
X0070508Y0198652D01*
X0070992Y0198169D01*
X0072003Y0198652D02*
X0073938Y0198652D01*
X0073938Y0198169D01*
X0072003Y0196234D01*
X0072003Y0195750D01*
X0052938Y0195750D02*
X0052938Y0197685D01*
X0051003Y0197685D02*
X0051003Y0196234D01*
X0051487Y0195750D01*
X0052938Y0195750D01*
X0049992Y0195750D02*
X0048057Y0195750D01*
X0049024Y0195750D02*
X0049024Y0198652D01*
X0048057Y0197685D01*
X0048541Y0189652D02*
X0049508Y0189652D01*
X0049992Y0189169D01*
X0048057Y0187234D01*
X0048541Y0186750D01*
X0049508Y0186750D01*
X0049992Y0187234D01*
X0049992Y0189169D01*
X0051003Y0188685D02*
X0051003Y0186750D01*
X0051003Y0188685D02*
X0052455Y0188685D01*
X0052938Y0188201D01*
X0052938Y0186750D01*
X0050599Y0181706D02*
X0049631Y0181706D01*
X0049147Y0181222D01*
X0048136Y0181706D02*
X0048136Y0179287D01*
X0047652Y0178803D01*
X0046685Y0178803D01*
X0046201Y0179287D01*
X0046201Y0181706D01*
X0049147Y0178803D02*
X0051082Y0180738D01*
X0051082Y0181222D01*
X0050599Y0181706D01*
X0051082Y0178803D02*
X0049147Y0178803D01*
X0046562Y0186750D02*
X0045594Y0186750D01*
X0045110Y0187234D01*
X0044099Y0187234D02*
X0043615Y0186750D01*
X0042648Y0186750D01*
X0042164Y0187234D01*
X0043131Y0188201D02*
X0043615Y0188201D01*
X0044099Y0187717D01*
X0044099Y0187234D01*
X0043615Y0188201D02*
X0044099Y0188685D01*
X0044099Y0189169D01*
X0043615Y0189652D01*
X0042648Y0189652D01*
X0042164Y0189169D01*
X0045110Y0189169D02*
X0045594Y0189652D01*
X0046562Y0189652D01*
X0047045Y0189169D01*
X0047045Y0188685D01*
X0046562Y0188201D01*
X0047045Y0187717D01*
X0047045Y0187234D01*
X0046562Y0186750D01*
X0046562Y0188201D02*
X0046078Y0188201D01*
X0048057Y0187234D02*
X0048057Y0189169D01*
X0048541Y0189652D01*
X0034778Y0188369D02*
X0034294Y0188852D01*
X0033327Y0188852D01*
X0032843Y0188369D01*
X0031831Y0188369D02*
X0031348Y0188852D01*
X0030380Y0188852D01*
X0029897Y0188369D01*
X0028885Y0188852D02*
X0026950Y0185950D01*
X0028885Y0185950D02*
X0026950Y0188852D01*
X0029897Y0185950D02*
X0031831Y0187885D01*
X0031831Y0188369D01*
X0031831Y0185950D02*
X0029897Y0185950D01*
X0032843Y0185950D02*
X0034778Y0187885D01*
X0034778Y0188369D01*
X0034778Y0185950D02*
X0032843Y0185950D01*
X0033327Y0177852D02*
X0034294Y0177852D01*
X0034778Y0177369D01*
X0034778Y0176885D01*
X0034294Y0176401D01*
X0034778Y0175917D01*
X0034778Y0175434D01*
X0034294Y0174950D01*
X0033327Y0174950D01*
X0032843Y0175434D01*
X0031831Y0174950D02*
X0029897Y0174950D01*
X0031831Y0176885D01*
X0031831Y0177369D01*
X0031348Y0177852D01*
X0030380Y0177852D01*
X0029897Y0177369D01*
X0028885Y0177852D02*
X0026950Y0174950D01*
X0028885Y0174950D02*
X0026950Y0177852D01*
X0032843Y0177369D02*
X0033327Y0177852D01*
X0033811Y0176401D02*
X0034294Y0176401D01*
X0028455Y0170652D02*
X0028938Y0170169D01*
X0027003Y0168234D01*
X0027487Y0167750D01*
X0028455Y0167750D01*
X0028938Y0168234D01*
X0028938Y0170169D01*
X0028455Y0170652D02*
X0027487Y0170652D01*
X0027003Y0170169D01*
X0027003Y0168234D01*
X0025992Y0167750D02*
X0024057Y0167750D01*
X0025024Y0167750D02*
X0025024Y0170652D01*
X0024057Y0169685D01*
X0023045Y0170169D02*
X0022562Y0170652D01*
X0021594Y0170652D01*
X0021110Y0170169D01*
X0021110Y0168234D01*
X0021594Y0167750D01*
X0022562Y0167750D01*
X0023045Y0168234D01*
X0023024Y0151652D02*
X0023024Y0148750D01*
X0022057Y0148750D02*
X0023992Y0148750D01*
X0025003Y0149234D02*
X0025487Y0148750D01*
X0026938Y0148750D01*
X0026938Y0150685D01*
X0025003Y0150685D02*
X0025003Y0149234D01*
X0023024Y0151652D02*
X0022057Y0150685D01*
X0043737Y0143475D02*
X0045672Y0140572D01*
X0046684Y0140572D02*
X0046684Y0141056D01*
X0048619Y0142991D01*
X0048619Y0143475D01*
X0046684Y0143475D01*
X0045672Y0143475D02*
X0043737Y0140572D01*
X0044082Y0126601D02*
X0042630Y0125149D01*
X0044565Y0125149D01*
X0045577Y0124666D02*
X0045577Y0124182D01*
X0046061Y0123698D01*
X0047028Y0123698D01*
X0047512Y0124182D01*
X0047512Y0124666D01*
X0047028Y0125149D01*
X0046061Y0125149D01*
X0045577Y0125633D01*
X0045577Y0126117D01*
X0046061Y0126601D01*
X0047028Y0126601D01*
X0047512Y0126117D01*
X0047512Y0125633D01*
X0047028Y0125149D01*
X0046061Y0125149D02*
X0045577Y0124666D01*
X0044082Y0123698D02*
X0044082Y0126601D01*
X0041619Y0126601D02*
X0041619Y0124182D01*
X0041135Y0123698D01*
X0040168Y0123698D01*
X0039684Y0124182D01*
X0039684Y0126601D01*
X0038672Y0126117D02*
X0038672Y0125633D01*
X0038189Y0125149D01*
X0036737Y0125149D01*
X0036737Y0123698D02*
X0036737Y0126601D01*
X0038189Y0126601D01*
X0038672Y0126117D01*
X0038189Y0125149D02*
X0038672Y0124666D01*
X0038672Y0124182D01*
X0038189Y0123698D01*
X0036737Y0123698D01*
X0048523Y0124182D02*
X0050458Y0126117D01*
X0050458Y0124182D01*
X0049975Y0123698D01*
X0049007Y0123698D01*
X0048523Y0124182D01*
X0048523Y0126117D01*
X0049007Y0126601D01*
X0049975Y0126601D01*
X0050458Y0126117D01*
X0051470Y0126117D02*
X0051954Y0126601D01*
X0052921Y0126601D01*
X0053405Y0126117D01*
X0051470Y0124182D01*
X0051954Y0123698D01*
X0052921Y0123698D01*
X0053405Y0124182D01*
X0053405Y0126117D01*
X0051470Y0126117D02*
X0051470Y0124182D01*
X0080164Y0110685D02*
X0081131Y0111652D01*
X0081131Y0108750D01*
X0080164Y0108750D02*
X0082099Y0108750D01*
X0083110Y0109234D02*
X0083594Y0108750D01*
X0084562Y0108750D01*
X0085045Y0109234D01*
X0085045Y0111169D01*
X0083110Y0109234D01*
X0083110Y0111169D01*
X0083594Y0111652D01*
X0084562Y0111652D01*
X0085045Y0111169D01*
X0086057Y0111169D02*
X0086541Y0111652D01*
X0087508Y0111652D01*
X0087992Y0111169D01*
X0086057Y0109234D01*
X0086541Y0108750D01*
X0087508Y0108750D01*
X0087992Y0109234D01*
X0087992Y0111169D01*
X0089003Y0110685D02*
X0090455Y0110685D01*
X0090938Y0110201D01*
X0090938Y0108750D01*
X0089003Y0108750D02*
X0089003Y0110685D01*
X0086057Y0111169D02*
X0086057Y0109234D01*
X0086508Y0113750D02*
X0086992Y0114234D01*
X0086508Y0113750D02*
X0085541Y0113750D01*
X0085057Y0114234D01*
X0085057Y0116169D01*
X0085541Y0116652D01*
X0086508Y0116652D01*
X0086992Y0116169D01*
X0088003Y0116169D02*
X0088487Y0116652D01*
X0089455Y0116652D01*
X0089938Y0116169D01*
X0089938Y0115685D01*
X0088003Y0113750D01*
X0089938Y0113750D01*
X0089562Y0131750D02*
X0088594Y0131750D01*
X0088110Y0132234D01*
X0090045Y0134169D01*
X0090045Y0132234D01*
X0089562Y0131750D01*
X0088110Y0132234D02*
X0088110Y0134169D01*
X0088594Y0134652D01*
X0089562Y0134652D01*
X0090045Y0134169D01*
X0091057Y0134169D02*
X0091541Y0134652D01*
X0092508Y0134652D01*
X0092992Y0134169D01*
X0091057Y0132234D01*
X0091541Y0131750D01*
X0092508Y0131750D01*
X0092992Y0132234D01*
X0092992Y0134169D01*
X0094003Y0133685D02*
X0095455Y0133685D01*
X0095938Y0133201D01*
X0095938Y0131750D01*
X0094003Y0131750D02*
X0094003Y0133685D01*
X0093455Y0135750D02*
X0092487Y0135750D01*
X0092003Y0136234D01*
X0092003Y0137201D02*
X0092971Y0137685D01*
X0093455Y0137685D01*
X0093938Y0137201D01*
X0093938Y0136234D01*
X0093455Y0135750D01*
X0092003Y0137201D02*
X0092003Y0138652D01*
X0093938Y0138652D01*
X0090992Y0138169D02*
X0090508Y0138652D01*
X0089541Y0138652D01*
X0089057Y0138169D01*
X0089057Y0136234D01*
X0089541Y0135750D01*
X0090508Y0135750D01*
X0090992Y0136234D01*
X0091057Y0134169D02*
X0091057Y0132234D01*
X0087099Y0131750D02*
X0085164Y0131750D01*
X0086131Y0131750D02*
X0086131Y0134652D01*
X0085164Y0133685D01*
X0131450Y0084852D02*
X0131450Y0081950D01*
X0131450Y0082917D02*
X0132901Y0082917D01*
X0133385Y0083401D01*
X0133385Y0084369D01*
X0132901Y0084852D01*
X0131450Y0084852D01*
X0132417Y0082917D02*
X0133385Y0081950D01*
X0134397Y0081950D02*
X0136331Y0081950D01*
X0135364Y0081950D02*
X0135364Y0084852D01*
X0134397Y0083885D01*
X0137343Y0083401D02*
X0139278Y0083401D01*
X0138794Y0081950D02*
X0138794Y0084852D01*
X0137343Y0083401D01*
X0137930Y0076018D02*
X0139382Y0076018D01*
X0139865Y0075534D01*
X0139865Y0074567D01*
X0139382Y0074083D01*
X0137930Y0074083D01*
X0137930Y0073115D02*
X0137930Y0076018D01*
X0138898Y0074083D02*
X0139865Y0073115D01*
X0140877Y0073599D02*
X0141361Y0073115D01*
X0142328Y0073115D01*
X0142812Y0073599D01*
X0142812Y0074567D01*
X0142328Y0075050D01*
X0141844Y0075050D01*
X0140877Y0074567D01*
X0140877Y0076018D01*
X0142812Y0076018D01*
X0131758Y0064018D02*
X0130791Y0063534D01*
X0129823Y0062567D01*
X0131275Y0062567D01*
X0131758Y0062083D01*
X0131758Y0061599D01*
X0131275Y0061115D01*
X0130307Y0061115D01*
X0129823Y0061599D01*
X0129823Y0062567D01*
X0128812Y0064018D02*
X0128812Y0061115D01*
X0126877Y0061115D02*
X0126877Y0064018D01*
X0127844Y0063050D01*
X0128812Y0064018D01*
X0125865Y0064018D02*
X0123930Y0064018D01*
X0123930Y0062567D01*
X0124898Y0063050D01*
X0125382Y0063050D01*
X0125865Y0062567D01*
X0125865Y0061599D01*
X0125382Y0061115D01*
X0124414Y0061115D01*
X0123930Y0061599D01*
X0124397Y0069950D02*
X0124397Y0072852D01*
X0125364Y0071885D01*
X0126331Y0072852D01*
X0126331Y0069950D01*
X0123385Y0069950D02*
X0121450Y0069950D01*
X0122417Y0069950D02*
X0122417Y0072852D01*
X0121450Y0071885D01*
X0115864Y0053789D02*
X0115864Y0050887D01*
X0114897Y0050887D02*
X0116831Y0050887D01*
X0114897Y0052822D02*
X0115864Y0053789D01*
X0113885Y0053789D02*
X0111950Y0053789D01*
X0111950Y0050887D01*
X0111950Y0052338D02*
X0112917Y0052338D01*
X0122930Y0043534D02*
X0123414Y0044018D01*
X0124382Y0044018D01*
X0124865Y0043534D01*
X0124865Y0043050D01*
X0124382Y0042567D01*
X0124865Y0042083D01*
X0124865Y0041599D01*
X0124382Y0041115D01*
X0123414Y0041115D01*
X0122930Y0041599D01*
X0123898Y0042567D02*
X0124382Y0042567D01*
X0125877Y0043050D02*
X0126361Y0042567D01*
X0127812Y0042567D01*
X0127812Y0043534D02*
X0127328Y0044018D01*
X0126361Y0044018D01*
X0125877Y0043534D01*
X0125877Y0043050D01*
X0125877Y0041599D02*
X0126361Y0041115D01*
X0127328Y0041115D01*
X0127812Y0041599D01*
X0127812Y0043534D01*
X0128823Y0043534D02*
X0129307Y0044018D01*
X0130275Y0044018D01*
X0130758Y0043534D01*
X0128823Y0041599D01*
X0129307Y0041115D01*
X0130275Y0041115D01*
X0130758Y0041599D01*
X0130758Y0043534D01*
X0131770Y0044018D02*
X0131770Y0041115D01*
X0131770Y0042083D02*
X0133221Y0043050D01*
X0131770Y0042083D02*
X0133221Y0041115D01*
X0128823Y0041599D02*
X0128823Y0043534D01*
X0133930Y0053115D02*
X0133930Y0056018D01*
X0135382Y0056018D01*
X0135865Y0055534D01*
X0135865Y0054567D01*
X0135382Y0054083D01*
X0133930Y0054083D01*
X0134898Y0054083D02*
X0135865Y0053115D01*
X0136877Y0053599D02*
X0137361Y0053115D01*
X0138328Y0053115D01*
X0138812Y0053599D01*
X0138812Y0054083D01*
X0138328Y0054567D01*
X0136877Y0054567D01*
X0136877Y0053599D01*
X0136877Y0054567D02*
X0137844Y0055534D01*
X0138812Y0056018D01*
X0147722Y0039235D02*
X0149174Y0039235D01*
X0149657Y0038751D01*
X0149657Y0037784D01*
X0149174Y0037300D01*
X0147722Y0037300D01*
X0147722Y0036333D02*
X0147722Y0039235D01*
X0148690Y0037300D02*
X0149657Y0036333D01*
X0150669Y0036816D02*
X0150669Y0037300D01*
X0151153Y0037784D01*
X0152120Y0037784D01*
X0152604Y0037300D01*
X0152604Y0036816D01*
X0152120Y0036333D01*
X0151153Y0036333D01*
X0150669Y0036816D01*
X0151153Y0037784D02*
X0150669Y0038268D01*
X0150669Y0038751D01*
X0151153Y0039235D01*
X0152120Y0039235D01*
X0152604Y0038751D01*
X0152604Y0038268D01*
X0152120Y0037784D01*
X0160289Y0048488D02*
X0160289Y0050423D01*
X0160772Y0050423D01*
X0162707Y0048488D01*
X0163191Y0048488D01*
X0161740Y0051434D02*
X0160289Y0052886D01*
X0163191Y0052886D01*
X0163191Y0054381D02*
X0160289Y0054381D01*
X0161740Y0054381D02*
X0161740Y0056316D01*
X0162707Y0057327D02*
X0163191Y0057811D01*
X0163191Y0058779D01*
X0162707Y0059262D01*
X0161740Y0060274D02*
X0161740Y0062209D01*
X0162707Y0063220D02*
X0160772Y0065155D01*
X0162707Y0065155D01*
X0163191Y0064672D01*
X0163191Y0063704D01*
X0162707Y0063220D01*
X0160772Y0063220D01*
X0160289Y0063704D01*
X0160289Y0064672D01*
X0160772Y0065155D01*
X0161740Y0066167D02*
X0160772Y0067134D01*
X0160289Y0068102D01*
X0161740Y0067618D02*
X0161740Y0066167D01*
X0162707Y0066167D01*
X0163191Y0066651D01*
X0163191Y0067618D01*
X0162707Y0068102D01*
X0162224Y0068102D01*
X0161740Y0067618D01*
X0161740Y0069113D02*
X0160772Y0070081D01*
X0160289Y0071048D01*
X0160289Y0072060D02*
X0160289Y0073511D01*
X0160772Y0073995D01*
X0162707Y0073995D01*
X0163191Y0073511D01*
X0163191Y0072060D01*
X0160289Y0072060D01*
X0161740Y0070565D02*
X0161740Y0069113D01*
X0162707Y0069113D01*
X0163191Y0069597D01*
X0163191Y0070565D01*
X0162707Y0071048D01*
X0162224Y0071048D01*
X0161740Y0070565D01*
X0161445Y0078997D02*
X0163380Y0080932D01*
X0163380Y0081416D01*
X0162896Y0081900D01*
X0161929Y0081900D01*
X0161445Y0081416D01*
X0160434Y0081900D02*
X0160434Y0078997D01*
X0158499Y0081900D01*
X0158499Y0078997D01*
X0161445Y0078997D02*
X0163380Y0078997D01*
X0163191Y0061725D02*
X0160289Y0061725D01*
X0161740Y0060274D01*
X0160772Y0059262D02*
X0160289Y0058779D01*
X0160289Y0057811D01*
X0160772Y0057327D01*
X0162707Y0057327D01*
X0163191Y0056316D02*
X0160289Y0056316D01*
X0161740Y0053369D02*
X0161740Y0051434D01*
X0167722Y0039235D02*
X0169174Y0039235D01*
X0169657Y0038751D01*
X0169657Y0037784D01*
X0169174Y0037300D01*
X0167722Y0037300D01*
X0167722Y0036333D02*
X0167722Y0039235D01*
X0168690Y0037300D02*
X0169657Y0036333D01*
X0170669Y0036333D02*
X0170669Y0036816D01*
X0172604Y0038751D01*
X0172604Y0039235D01*
X0170669Y0039235D01*
X0170697Y0026235D02*
X0171665Y0026235D01*
X0172148Y0025751D01*
X0170213Y0023816D01*
X0170697Y0023333D01*
X0171665Y0023333D01*
X0172148Y0023816D01*
X0172148Y0025751D01*
X0173160Y0026235D02*
X0173160Y0023333D01*
X0173160Y0024300D02*
X0174611Y0025268D01*
X0173160Y0024300D02*
X0174611Y0023333D01*
X0170213Y0023816D02*
X0170213Y0025751D01*
X0170697Y0026235D01*
X0169202Y0025751D02*
X0167267Y0023816D01*
X0167751Y0023333D01*
X0168718Y0023333D01*
X0169202Y0023816D01*
X0169202Y0025751D01*
X0168718Y0026235D01*
X0167751Y0026235D01*
X0167267Y0025751D01*
X0167267Y0023816D01*
X0166255Y0023333D02*
X0164320Y0023333D01*
X0165288Y0023333D02*
X0165288Y0026235D01*
X0164320Y0025268D01*
X0153611Y0025268D02*
X0152160Y0024300D01*
X0153611Y0023333D01*
X0152160Y0023333D02*
X0152160Y0026235D01*
X0151148Y0025751D02*
X0149213Y0023816D01*
X0149697Y0023333D01*
X0150665Y0023333D01*
X0151148Y0023816D01*
X0151148Y0025751D01*
X0150665Y0026235D01*
X0149697Y0026235D01*
X0149213Y0025751D01*
X0149213Y0023816D01*
X0148202Y0023816D02*
X0147718Y0023333D01*
X0146751Y0023333D01*
X0146267Y0023816D01*
X0148202Y0025751D01*
X0148202Y0023816D01*
X0146267Y0023816D02*
X0146267Y0025751D01*
X0146751Y0026235D01*
X0147718Y0026235D01*
X0148202Y0025751D01*
X0145255Y0023333D02*
X0143320Y0023333D01*
X0144288Y0023333D02*
X0144288Y0026235D01*
X0143320Y0025268D01*
X0098251Y0051013D02*
X0098251Y0052948D01*
X0097284Y0053915D01*
X0096316Y0052948D01*
X0096316Y0051013D01*
X0095305Y0051497D02*
X0094821Y0051013D01*
X0093854Y0051013D01*
X0093370Y0051497D01*
X0093370Y0052464D02*
X0094337Y0052948D01*
X0094821Y0052948D01*
X0095305Y0052464D01*
X0095305Y0051497D01*
X0096316Y0052464D02*
X0098251Y0052464D01*
X0095305Y0053915D02*
X0093370Y0053915D01*
X0093370Y0052464D01*
X0092380Y0051497D02*
X0092380Y0051013D01*
X0091897Y0051013D01*
X0091897Y0051497D01*
X0092380Y0051497D01*
X0090885Y0051497D02*
X0090885Y0053432D01*
X0088950Y0051497D01*
X0089434Y0051013D01*
X0090401Y0051013D01*
X0090885Y0051497D01*
X0090885Y0053432D02*
X0090401Y0053915D01*
X0089434Y0053915D01*
X0088950Y0053432D01*
X0088950Y0051497D01*
X0054405Y0065182D02*
X0053921Y0064698D01*
X0052954Y0064698D01*
X0052470Y0065182D01*
X0054405Y0067117D01*
X0054405Y0065182D01*
X0054405Y0067117D02*
X0053921Y0067601D01*
X0052954Y0067601D01*
X0052470Y0067117D01*
X0052470Y0065182D01*
X0051458Y0065182D02*
X0050975Y0064698D01*
X0050007Y0064698D01*
X0049523Y0065182D01*
X0051458Y0067117D01*
X0051458Y0065182D01*
X0049523Y0065182D02*
X0049523Y0067117D01*
X0050007Y0067601D01*
X0050975Y0067601D01*
X0051458Y0067117D01*
X0048512Y0067117D02*
X0048512Y0066633D01*
X0048028Y0066149D01*
X0047061Y0066149D01*
X0046577Y0066633D01*
X0046577Y0067117D01*
X0047061Y0067601D01*
X0048028Y0067601D01*
X0048512Y0067117D01*
X0048028Y0066149D02*
X0048512Y0065666D01*
X0048512Y0065182D01*
X0048028Y0064698D01*
X0047061Y0064698D01*
X0046577Y0065182D01*
X0046577Y0065666D01*
X0047061Y0066149D01*
X0045565Y0066149D02*
X0043630Y0066149D01*
X0045082Y0067601D01*
X0045082Y0064698D01*
X0042619Y0065182D02*
X0042619Y0067601D01*
X0040684Y0067601D02*
X0040684Y0065182D01*
X0041168Y0064698D01*
X0042135Y0064698D01*
X0042619Y0065182D01*
X0039672Y0065182D02*
X0039672Y0065666D01*
X0039189Y0066149D01*
X0037737Y0066149D01*
X0037737Y0064698D02*
X0037737Y0067601D01*
X0039189Y0067601D01*
X0039672Y0067117D01*
X0039672Y0066633D01*
X0039189Y0066149D01*
X0039672Y0065182D02*
X0039189Y0064698D01*
X0037737Y0064698D01*
X0030135Y0080572D02*
X0030619Y0081056D01*
X0030619Y0081540D01*
X0030135Y0082023D01*
X0028684Y0082023D01*
X0028684Y0081056D01*
X0029168Y0080572D01*
X0030135Y0080572D01*
X0028684Y0082023D02*
X0029651Y0082991D01*
X0030619Y0083475D01*
X0027672Y0083475D02*
X0025737Y0080572D01*
X0027672Y0080572D02*
X0025737Y0083475D01*
X0026950Y0193950D02*
X0028885Y0196852D01*
X0029897Y0196369D02*
X0030380Y0196852D01*
X0031348Y0196852D01*
X0031831Y0196369D01*
X0031831Y0195885D01*
X0029897Y0193950D01*
X0031831Y0193950D01*
X0032843Y0193950D02*
X0034778Y0193950D01*
X0033811Y0193950D02*
X0033811Y0196852D01*
X0032843Y0195885D01*
X0028885Y0193950D02*
X0026950Y0196852D01*
X0026950Y0204950D02*
X0028885Y0207852D01*
X0029897Y0207369D02*
X0029897Y0206885D01*
X0030380Y0206401D01*
X0031348Y0206401D01*
X0031831Y0205917D01*
X0031831Y0205434D01*
X0031348Y0204950D01*
X0030380Y0204950D01*
X0029897Y0205434D01*
X0029897Y0205917D01*
X0030380Y0206401D01*
X0031348Y0206401D02*
X0031831Y0206885D01*
X0031831Y0207369D01*
X0031348Y0207852D01*
X0030380Y0207852D01*
X0029897Y0207369D01*
X0028885Y0204950D02*
X0026950Y0207852D01*
X0040685Y0239803D02*
X0041652Y0239803D01*
X0042136Y0240287D01*
X0042136Y0242706D01*
X0043147Y0241738D02*
X0044115Y0242706D01*
X0044115Y0239803D01*
X0045082Y0239803D02*
X0043147Y0239803D01*
X0040685Y0239803D02*
X0040201Y0240287D01*
X0040201Y0242706D01*
X0031725Y0243950D02*
X0031725Y0245401D01*
X0031241Y0245885D01*
X0029790Y0245885D01*
X0029790Y0243950D01*
X0028778Y0244434D02*
X0028778Y0246369D01*
X0026843Y0244434D01*
X0027327Y0243950D01*
X0028294Y0243950D01*
X0028778Y0244434D01*
X0028778Y0246369D02*
X0028294Y0246852D01*
X0027327Y0246852D01*
X0026843Y0246369D01*
X0026843Y0244434D01*
X0025831Y0244434D02*
X0025348Y0243950D01*
X0024380Y0243950D01*
X0023897Y0244434D01*
X0022885Y0244434D02*
X0022401Y0243950D01*
X0021434Y0243950D01*
X0020950Y0244434D01*
X0021917Y0245401D02*
X0022401Y0245401D01*
X0022885Y0244917D01*
X0022885Y0244434D01*
X0022401Y0245401D02*
X0022885Y0245885D01*
X0022885Y0246369D01*
X0022401Y0246852D01*
X0021434Y0246852D01*
X0020950Y0246369D01*
X0023897Y0246369D02*
X0024380Y0246852D01*
X0025348Y0246852D01*
X0025831Y0246369D01*
X0025831Y0245885D01*
X0025348Y0245401D01*
X0025831Y0244917D01*
X0025831Y0244434D01*
X0025348Y0245401D02*
X0024864Y0245401D01*
X0024401Y0262950D02*
X0023434Y0262950D01*
X0022950Y0263434D01*
X0022950Y0265369D01*
X0023434Y0265852D01*
X0024401Y0265852D01*
X0024885Y0265369D01*
X0025897Y0265369D02*
X0025897Y0264885D01*
X0026380Y0264401D01*
X0027348Y0264401D01*
X0027831Y0263917D01*
X0027831Y0263434D01*
X0027348Y0262950D01*
X0026380Y0262950D01*
X0025897Y0263434D01*
X0025897Y0263917D01*
X0026380Y0264401D01*
X0027348Y0264401D02*
X0027831Y0264885D01*
X0027831Y0265369D01*
X0027348Y0265852D01*
X0026380Y0265852D01*
X0025897Y0265369D01*
X0024885Y0263434D02*
X0024401Y0262950D01*
X0039520Y0294167D02*
X0039520Y0297070D01*
X0040971Y0297070D01*
X0041455Y0296586D01*
X0041455Y0295619D01*
X0040971Y0295135D01*
X0039520Y0295135D01*
X0040487Y0295135D02*
X0041455Y0294167D01*
X0042466Y0294167D02*
X0044401Y0294167D01*
X0043434Y0294167D02*
X0043434Y0297070D01*
X0042466Y0296102D01*
X0045413Y0295619D02*
X0046864Y0295619D01*
X0047348Y0295135D01*
X0047348Y0294651D01*
X0046864Y0294167D01*
X0045897Y0294167D01*
X0045413Y0294651D01*
X0045413Y0295619D01*
X0046380Y0296586D01*
X0047348Y0297070D01*
X0058011Y0273818D02*
X0058011Y0272367D01*
X0058978Y0272850D01*
X0059462Y0272850D01*
X0059946Y0272367D01*
X0059946Y0271399D01*
X0059462Y0270915D01*
X0058495Y0270915D01*
X0058011Y0271399D01*
X0058011Y0273818D02*
X0059946Y0273818D01*
X0060958Y0273334D02*
X0061441Y0273818D01*
X0062409Y0273818D01*
X0062892Y0273334D01*
X0060958Y0271399D01*
X0061441Y0270915D01*
X0062409Y0270915D01*
X0062892Y0271399D01*
X0062892Y0273334D01*
X0063904Y0273818D02*
X0063904Y0270915D01*
X0063904Y0271883D02*
X0065355Y0270915D01*
X0063904Y0271883D02*
X0065355Y0272850D01*
X0060958Y0273334D02*
X0060958Y0271399D01*
X0073201Y0248989D02*
X0074168Y0248022D01*
X0075136Y0248989D01*
X0075136Y0246087D01*
X0076147Y0246571D02*
X0076631Y0246087D01*
X0077598Y0246087D01*
X0078082Y0246571D01*
X0079094Y0246571D02*
X0079094Y0246087D01*
X0079094Y0246571D02*
X0081029Y0248506D01*
X0081029Y0248989D01*
X0079094Y0248989D01*
X0078082Y0248506D02*
X0077598Y0248989D01*
X0076631Y0248989D01*
X0076147Y0248506D01*
X0076147Y0246571D01*
X0073201Y0246087D02*
X0073201Y0248989D01*
X0082040Y0248506D02*
X0082040Y0248022D01*
X0082524Y0247538D01*
X0083492Y0247538D01*
X0083975Y0247054D01*
X0083975Y0246571D01*
X0083492Y0246087D01*
X0082524Y0246087D01*
X0082040Y0246571D01*
X0082040Y0247054D01*
X0082524Y0247538D01*
X0083492Y0247538D02*
X0083975Y0248022D01*
X0083975Y0248506D01*
X0083492Y0248989D01*
X0082524Y0248989D01*
X0082040Y0248506D01*
X0084987Y0248506D02*
X0085471Y0248989D01*
X0086438Y0248989D01*
X0086922Y0248506D01*
X0084987Y0246571D01*
X0085471Y0246087D01*
X0086438Y0246087D01*
X0086922Y0246571D01*
X0086922Y0248506D01*
X0087933Y0248989D02*
X0087933Y0247538D01*
X0088901Y0248022D01*
X0089385Y0248022D01*
X0089868Y0247538D01*
X0089868Y0246571D01*
X0089385Y0246087D01*
X0088417Y0246087D01*
X0087933Y0246571D01*
X0087933Y0248989D02*
X0089868Y0248989D01*
X0090880Y0248022D02*
X0091847Y0248989D01*
X0092815Y0248022D01*
X0092815Y0246087D01*
X0093826Y0246571D02*
X0094310Y0246087D01*
X0095278Y0246087D01*
X0095761Y0246571D01*
X0096773Y0246087D02*
X0096773Y0248989D01*
X0098224Y0248989D01*
X0098708Y0248506D01*
X0098708Y0246571D01*
X0098224Y0246087D01*
X0096773Y0246087D01*
X0095761Y0248506D02*
X0095278Y0248989D01*
X0094310Y0248989D01*
X0093826Y0248506D01*
X0093826Y0246571D01*
X0092815Y0247538D02*
X0090880Y0247538D01*
X0090880Y0248022D02*
X0090880Y0246087D01*
X0084987Y0246571D02*
X0084987Y0248506D01*
X0099719Y0248506D02*
X0100203Y0248989D01*
X0101171Y0248989D01*
X0101654Y0248506D01*
X0101654Y0248022D01*
X0099719Y0246087D01*
X0101654Y0246087D01*
X0103633Y0246087D02*
X0103633Y0248989D01*
X0102666Y0248989D02*
X0104601Y0248989D01*
X0105612Y0248506D02*
X0105612Y0246571D01*
X0106096Y0246087D01*
X0107064Y0246087D01*
X0107547Y0246571D01*
X0107547Y0247538D01*
X0106580Y0247538D01*
X0107547Y0248506D02*
X0107064Y0248989D01*
X0106096Y0248989D01*
X0105612Y0248506D01*
X0105615Y0205660D02*
X0104164Y0204208D01*
X0106099Y0204208D01*
X0107110Y0204208D02*
X0109045Y0204208D01*
X0110057Y0204692D02*
X0110540Y0204208D01*
X0111508Y0204208D01*
X0111992Y0203725D01*
X0111992Y0203241D01*
X0111508Y0202757D01*
X0110540Y0202757D01*
X0110057Y0203241D01*
X0110057Y0204692D02*
X0110057Y0205176D01*
X0110540Y0205660D01*
X0111508Y0205660D01*
X0111992Y0205176D01*
X0113003Y0204208D02*
X0114938Y0204208D01*
X0115950Y0203725D02*
X0116433Y0204208D01*
X0117401Y0204208D01*
X0117885Y0203725D01*
X0117885Y0203241D01*
X0117401Y0202757D01*
X0116433Y0202757D01*
X0115950Y0203241D01*
X0115950Y0203725D01*
X0116433Y0204208D02*
X0115950Y0204692D01*
X0115950Y0205176D01*
X0116433Y0205660D01*
X0117401Y0205660D01*
X0117885Y0205176D01*
X0117885Y0204692D01*
X0117401Y0204208D01*
X0118896Y0204208D02*
X0120831Y0204208D01*
X0120831Y0204692D02*
X0120831Y0202757D01*
X0121843Y0203241D02*
X0121843Y0205660D01*
X0120831Y0204692D02*
X0119864Y0205660D01*
X0118896Y0204692D01*
X0118896Y0202757D01*
X0121843Y0203241D02*
X0122326Y0202757D01*
X0123294Y0202757D01*
X0123778Y0203241D01*
X0123778Y0205660D01*
X0124789Y0204692D02*
X0125757Y0205660D01*
X0126724Y0204692D01*
X0126724Y0202757D01*
X0126724Y0204208D02*
X0124789Y0204208D01*
X0124789Y0204692D02*
X0124789Y0202757D01*
X0127736Y0204208D02*
X0129671Y0204208D01*
X0128703Y0205176D02*
X0128703Y0203241D01*
X0114454Y0202757D02*
X0114454Y0205660D01*
X0113003Y0204208D01*
X0108561Y0202757D02*
X0108561Y0205660D01*
X0107110Y0204208D01*
X0105615Y0202757D02*
X0105615Y0205660D01*
X0103152Y0205660D02*
X0101217Y0202757D01*
X0100206Y0202757D02*
X0100206Y0204692D01*
X0099238Y0205660D01*
X0098271Y0204692D01*
X0098271Y0202757D01*
X0097259Y0202757D02*
X0097259Y0205660D01*
X0096292Y0204692D01*
X0095324Y0205660D01*
X0095324Y0202757D01*
X0098271Y0204208D02*
X0100206Y0204208D01*
X0101217Y0205660D02*
X0103152Y0202757D01*
X0103581Y0303163D02*
X0103581Y0306065D01*
X0102613Y0305098D01*
X0101602Y0306065D02*
X0099667Y0303163D01*
X0101602Y0303163D02*
X0099667Y0306065D01*
X0102613Y0303163D02*
X0104548Y0303163D01*
X0105560Y0303646D02*
X0106043Y0303163D01*
X0107011Y0303163D01*
X0107495Y0303646D01*
X0107495Y0304130D01*
X0107011Y0304614D01*
X0106527Y0304614D01*
X0107011Y0304614D02*
X0107495Y0305098D01*
X0107495Y0305581D01*
X0107011Y0306065D01*
X0106043Y0306065D01*
X0105560Y0305581D01*
X0111478Y0306065D02*
X0113413Y0303163D01*
X0114424Y0303163D02*
X0116359Y0305098D01*
X0116359Y0305581D01*
X0115875Y0306065D01*
X0114908Y0306065D01*
X0114424Y0305581D01*
X0113413Y0306065D02*
X0111478Y0303163D01*
X0114424Y0303163D02*
X0116359Y0303163D01*
X0117371Y0303646D02*
X0119306Y0305581D01*
X0119306Y0303646D01*
X0118822Y0303163D01*
X0117854Y0303163D01*
X0117371Y0303646D01*
X0117371Y0305581D01*
X0117854Y0306065D01*
X0118822Y0306065D01*
X0119306Y0305581D01*
X0122950Y0305852D02*
X0124885Y0302950D01*
X0125897Y0302950D02*
X0127831Y0302950D01*
X0126864Y0302950D02*
X0126864Y0305852D01*
X0125897Y0304885D01*
X0124885Y0305852D02*
X0122950Y0302950D01*
X0128843Y0303434D02*
X0129327Y0302950D01*
X0130294Y0302950D01*
X0130778Y0303434D01*
X0130778Y0305369D01*
X0130294Y0305852D01*
X0129327Y0305852D01*
X0128843Y0305369D01*
X0128843Y0304885D01*
X0129327Y0304401D01*
X0130778Y0304401D01*
X0135289Y0303163D02*
X0137224Y0306065D01*
X0138235Y0305098D02*
X0139203Y0306065D01*
X0139203Y0303163D01*
X0140170Y0303163D02*
X0138235Y0303163D01*
X0137224Y0303163D02*
X0135289Y0306065D01*
X0141182Y0305581D02*
X0141182Y0303646D01*
X0143117Y0305581D01*
X0143117Y0303646D01*
X0142633Y0303163D01*
X0141665Y0303163D01*
X0141182Y0303646D01*
X0141182Y0305581D02*
X0141665Y0306065D01*
X0142633Y0306065D01*
X0143117Y0305581D01*
X0147100Y0306065D02*
X0149035Y0303163D01*
X0150046Y0303163D02*
X0151981Y0303163D01*
X0151014Y0303163D02*
X0151014Y0306065D01*
X0150046Y0305098D01*
X0149035Y0306065D02*
X0147100Y0303163D01*
X0152993Y0303163D02*
X0154928Y0303163D01*
X0153960Y0303163D02*
X0153960Y0306065D01*
X0152993Y0305098D01*
X0158911Y0306065D02*
X0160846Y0303163D01*
X0161857Y0303163D02*
X0163792Y0303163D01*
X0162825Y0303163D02*
X0162825Y0306065D01*
X0161857Y0305098D01*
X0160846Y0306065D02*
X0158911Y0303163D01*
X0164804Y0303646D02*
X0164804Y0304130D01*
X0165287Y0304614D01*
X0166255Y0304614D01*
X0166739Y0304130D01*
X0166739Y0303646D01*
X0166255Y0303163D01*
X0165287Y0303163D01*
X0164804Y0303646D01*
X0165287Y0304614D02*
X0164804Y0305098D01*
X0164804Y0305581D01*
X0165287Y0306065D01*
X0166255Y0306065D01*
X0166739Y0305581D01*
X0166739Y0305098D01*
X0166255Y0304614D01*
X0170722Y0306065D02*
X0172657Y0303163D01*
X0173668Y0303163D02*
X0175603Y0303163D01*
X0174636Y0303163D02*
X0174636Y0306065D01*
X0173668Y0305098D01*
X0172657Y0306065D02*
X0170722Y0303163D01*
X0176615Y0303163D02*
X0176615Y0303646D01*
X0178550Y0305581D01*
X0178550Y0306065D01*
X0176615Y0306065D01*
X0182533Y0306065D02*
X0184468Y0303163D01*
X0185479Y0303163D02*
X0187414Y0303163D01*
X0186447Y0303163D02*
X0186447Y0306065D01*
X0185479Y0305098D01*
X0184468Y0306065D02*
X0182533Y0303163D01*
X0188426Y0303646D02*
X0188909Y0303163D01*
X0189877Y0303163D01*
X0190361Y0303646D01*
X0190361Y0304130D01*
X0189877Y0304614D01*
X0188426Y0304614D01*
X0188426Y0303646D01*
X0188426Y0304614D02*
X0189393Y0305581D01*
X0190361Y0306065D01*
X0194344Y0306065D02*
X0196279Y0303163D01*
X0197290Y0303163D02*
X0199225Y0303163D01*
X0198258Y0303163D02*
X0198258Y0306065D01*
X0197290Y0305098D01*
X0196279Y0306065D02*
X0194344Y0303163D01*
X0200237Y0303646D02*
X0200720Y0303163D01*
X0201688Y0303163D01*
X0202172Y0303646D01*
X0202172Y0304614D01*
X0201688Y0305098D01*
X0201204Y0305098D01*
X0200237Y0304614D01*
X0200237Y0306065D01*
X0202172Y0306065D01*
X0206155Y0306065D02*
X0208090Y0303163D01*
X0209101Y0303163D02*
X0211036Y0303163D01*
X0210069Y0303163D02*
X0210069Y0306065D01*
X0209101Y0305098D01*
X0208090Y0306065D02*
X0206155Y0303163D01*
X0212048Y0304614D02*
X0213983Y0304614D01*
X0213499Y0306065D02*
X0212048Y0304614D01*
X0213499Y0303163D02*
X0213499Y0306065D01*
X0217966Y0306065D02*
X0219901Y0303163D01*
X0220912Y0303163D02*
X0222847Y0303163D01*
X0221880Y0303163D02*
X0221880Y0306065D01*
X0220912Y0305098D01*
X0219901Y0306065D02*
X0217966Y0303163D01*
X0223859Y0303163D02*
X0225794Y0305098D01*
X0225794Y0305581D01*
X0225310Y0306065D01*
X0224343Y0306065D01*
X0223859Y0305581D01*
X0223859Y0303163D02*
X0225794Y0303163D01*
X0241950Y0259852D02*
X0243885Y0256950D01*
X0244897Y0256950D02*
X0246831Y0258885D01*
X0246831Y0259369D01*
X0246348Y0259852D01*
X0245380Y0259852D01*
X0244897Y0259369D01*
X0243885Y0259852D02*
X0241950Y0256950D01*
X0244897Y0256950D02*
X0246831Y0256950D01*
X0247843Y0256950D02*
X0247843Y0257434D01*
X0249778Y0259369D01*
X0249778Y0259852D01*
X0247843Y0259852D01*
X0246348Y0249852D02*
X0245380Y0249852D01*
X0244897Y0249369D01*
X0243885Y0249852D02*
X0241950Y0246950D01*
X0243885Y0246950D02*
X0241950Y0249852D01*
X0244897Y0246950D02*
X0246831Y0248885D01*
X0246831Y0249369D01*
X0246348Y0249852D01*
X0247843Y0248401D02*
X0249294Y0248401D01*
X0249778Y0247917D01*
X0249778Y0247434D01*
X0249294Y0246950D01*
X0248327Y0246950D01*
X0247843Y0247434D01*
X0247843Y0248401D01*
X0248811Y0249369D01*
X0249778Y0249852D01*
X0246831Y0246950D02*
X0244897Y0246950D01*
X0245380Y0238852D02*
X0244897Y0238369D01*
X0245380Y0238852D02*
X0246348Y0238852D01*
X0246831Y0238369D01*
X0246831Y0237885D01*
X0244897Y0235950D01*
X0246831Y0235950D01*
X0247843Y0237401D02*
X0249778Y0237401D01*
X0249294Y0235950D02*
X0249294Y0238852D01*
X0247843Y0237401D01*
X0243885Y0235950D02*
X0241950Y0238852D01*
X0243885Y0238852D02*
X0241950Y0235950D01*
X0241950Y0228852D02*
X0243885Y0225950D01*
X0244897Y0225950D02*
X0246831Y0227885D01*
X0246831Y0228369D01*
X0246348Y0228852D01*
X0245380Y0228852D01*
X0244897Y0228369D01*
X0243885Y0228852D02*
X0241950Y0225950D01*
X0244897Y0225950D02*
X0246831Y0225950D01*
X0247843Y0226434D02*
X0248327Y0225950D01*
X0249294Y0225950D01*
X0249778Y0226434D01*
X0249778Y0227401D01*
X0249294Y0227885D01*
X0248811Y0227885D01*
X0247843Y0227401D01*
X0247843Y0228852D01*
X0249778Y0228852D01*
X0249052Y0184490D02*
X0250987Y0181588D01*
X0251999Y0183039D02*
X0253934Y0183039D01*
X0253450Y0181588D02*
X0253450Y0184490D01*
X0251999Y0183039D01*
X0250987Y0184490D02*
X0249052Y0181588D01*
X0249052Y0169490D02*
X0250987Y0166588D01*
X0251999Y0167072D02*
X0252483Y0166588D01*
X0253450Y0166588D01*
X0253934Y0167072D01*
X0253934Y0167555D01*
X0253450Y0168039D01*
X0252966Y0168039D01*
X0253450Y0168039D02*
X0253934Y0168523D01*
X0253934Y0169007D01*
X0253450Y0169490D01*
X0252483Y0169490D01*
X0251999Y0169007D01*
X0250987Y0169490D02*
X0249052Y0166588D01*
X0249052Y0154490D02*
X0250987Y0151588D01*
X0251999Y0151588D02*
X0253934Y0153523D01*
X0253934Y0154007D01*
X0253450Y0154490D01*
X0252483Y0154490D01*
X0251999Y0154007D01*
X0250987Y0154490D02*
X0249052Y0151588D01*
X0251999Y0151588D02*
X0253934Y0151588D01*
X0207565Y0065688D02*
X0206597Y0065688D01*
X0206114Y0065204D01*
X0205102Y0065204D02*
X0204618Y0065688D01*
X0203167Y0065688D01*
X0203167Y0062785D01*
X0203167Y0063753D02*
X0204618Y0063753D01*
X0205102Y0064237D01*
X0205102Y0065204D01*
X0204135Y0063753D02*
X0205102Y0062785D01*
X0206114Y0062785D02*
X0208049Y0064720D01*
X0208049Y0065204D01*
X0207565Y0065688D01*
X0208049Y0062785D02*
X0206114Y0062785D01*
X0218667Y0059562D02*
X0218667Y0056659D01*
X0218667Y0057627D02*
X0220118Y0057627D01*
X0220602Y0058111D01*
X0220602Y0059078D01*
X0220118Y0059562D01*
X0218667Y0059562D01*
X0219635Y0057627D02*
X0220602Y0056659D01*
X0221614Y0056659D02*
X0223549Y0056659D01*
X0222581Y0056659D02*
X0222581Y0059562D01*
X0221614Y0058594D01*
X0221852Y0043562D02*
X0219917Y0043562D01*
X0219917Y0042111D01*
X0220885Y0042594D01*
X0221368Y0042594D01*
X0221852Y0042111D01*
X0221852Y0041143D01*
X0221368Y0040659D01*
X0220401Y0040659D01*
X0219917Y0041143D01*
X0218906Y0040659D02*
X0216971Y0040659D01*
X0217938Y0040659D02*
X0217938Y0043562D01*
X0216971Y0042594D01*
X0222864Y0041627D02*
X0224315Y0041627D01*
X0224799Y0042111D01*
X0224799Y0043078D01*
X0224315Y0043562D01*
X0222864Y0043562D01*
X0222864Y0040659D01*
X0223831Y0041627D02*
X0224799Y0040659D01*
X0209049Y0044785D02*
X0208081Y0045753D01*
X0208565Y0045753D02*
X0207114Y0045753D01*
X0207114Y0044785D02*
X0207114Y0047688D01*
X0208565Y0047688D01*
X0209049Y0047204D01*
X0209049Y0046237D01*
X0208565Y0045753D01*
X0206102Y0046237D02*
X0204167Y0046237D01*
X0205618Y0047688D01*
X0205618Y0044785D01*
X0203156Y0044785D02*
X0201221Y0044785D01*
X0203156Y0046720D01*
X0203156Y0047204D01*
X0202672Y0047688D01*
X0201704Y0047688D01*
X0201221Y0047204D01*
X0145821Y0097664D02*
X0143886Y0095729D01*
X0143886Y0095245D01*
X0142875Y0095245D02*
X0142875Y0097180D01*
X0143886Y0098148D02*
X0145821Y0098148D01*
X0145821Y0097664D01*
X0142875Y0095245D02*
X0141424Y0095245D01*
X0140940Y0095729D01*
X0140940Y0097180D01*
X0139928Y0096697D02*
X0137993Y0096697D01*
X0139445Y0098148D01*
X0139445Y0095245D01*
X0138529Y0099714D02*
X0137561Y0099714D01*
X0137078Y0100198D01*
X0136066Y0100198D02*
X0135582Y0099714D01*
X0134615Y0099714D01*
X0134131Y0100198D01*
X0134131Y0102133D01*
X0134615Y0102616D01*
X0135582Y0102616D01*
X0136066Y0102133D01*
X0137078Y0102133D02*
X0137561Y0102616D01*
X0138529Y0102616D01*
X0139013Y0102133D01*
X0139013Y0101649D01*
X0138529Y0101165D01*
X0139013Y0100681D01*
X0139013Y0100198D01*
X0138529Y0099714D01*
X0138529Y0101165D02*
X0138045Y0101165D01*
X0092253Y0303163D02*
X0092737Y0303646D01*
X0092737Y0305581D01*
X0092253Y0306065D01*
X0091286Y0306065D01*
X0090802Y0305581D01*
X0090802Y0305098D01*
X0091286Y0304614D01*
X0092737Y0304614D01*
X0092253Y0303163D02*
X0091286Y0303163D01*
X0090802Y0303646D01*
X0089790Y0303163D02*
X0087856Y0306065D01*
X0089790Y0306065D02*
X0087856Y0303163D01*
D12*
X0208135Y0088927D02*
X0208135Y0076327D01*
X0242535Y0076327D02*
X0242535Y0081427D01*
X0242535Y0083827D01*
X0242535Y0088927D01*
X0242535Y0083827D02*
X0242466Y0083825D01*
X0242398Y0083819D01*
X0242330Y0083809D01*
X0242263Y0083796D01*
X0242197Y0083778D01*
X0242132Y0083757D01*
X0242068Y0083732D01*
X0242006Y0083704D01*
X0241945Y0083672D01*
X0241886Y0083637D01*
X0241830Y0083598D01*
X0241775Y0083556D01*
X0241724Y0083511D01*
X0241674Y0083463D01*
X0241628Y0083413D01*
X0241585Y0083360D01*
X0241544Y0083304D01*
X0241507Y0083247D01*
X0241474Y0083187D01*
X0241443Y0083125D01*
X0241417Y0083062D01*
X0241394Y0082998D01*
X0241374Y0082932D01*
X0241359Y0082865D01*
X0241347Y0082798D01*
X0241339Y0082730D01*
X0241335Y0082661D01*
X0241335Y0082593D01*
X0241339Y0082524D01*
X0241347Y0082456D01*
X0241359Y0082389D01*
X0241374Y0082322D01*
X0241394Y0082256D01*
X0241417Y0082192D01*
X0241443Y0082129D01*
X0241474Y0082067D01*
X0241507Y0082007D01*
X0241544Y0081950D01*
X0241585Y0081894D01*
X0241628Y0081841D01*
X0241674Y0081791D01*
X0241724Y0081743D01*
X0241775Y0081698D01*
X0241830Y0081656D01*
X0241886Y0081617D01*
X0241945Y0081582D01*
X0242006Y0081550D01*
X0242068Y0081522D01*
X0242132Y0081497D01*
X0242197Y0081476D01*
X0242263Y0081458D01*
X0242330Y0081445D01*
X0242398Y0081435D01*
X0242466Y0081429D01*
X0242535Y0081427D01*
X0167265Y0077520D02*
X0162165Y0077520D01*
X0159765Y0077520D01*
X0154665Y0077520D01*
X0159765Y0077520D02*
X0159767Y0077451D01*
X0159773Y0077383D01*
X0159783Y0077315D01*
X0159796Y0077248D01*
X0159814Y0077182D01*
X0159835Y0077117D01*
X0159860Y0077053D01*
X0159888Y0076991D01*
X0159920Y0076930D01*
X0159955Y0076871D01*
X0159994Y0076815D01*
X0160036Y0076760D01*
X0160081Y0076709D01*
X0160129Y0076659D01*
X0160179Y0076613D01*
X0160232Y0076570D01*
X0160288Y0076529D01*
X0160345Y0076492D01*
X0160405Y0076459D01*
X0160467Y0076428D01*
X0160530Y0076402D01*
X0160594Y0076379D01*
X0160660Y0076359D01*
X0160727Y0076344D01*
X0160794Y0076332D01*
X0160862Y0076324D01*
X0160931Y0076320D01*
X0160999Y0076320D01*
X0161068Y0076324D01*
X0161136Y0076332D01*
X0161203Y0076344D01*
X0161270Y0076359D01*
X0161336Y0076379D01*
X0161400Y0076402D01*
X0161463Y0076428D01*
X0161525Y0076459D01*
X0161585Y0076492D01*
X0161642Y0076529D01*
X0161698Y0076570D01*
X0161751Y0076613D01*
X0161801Y0076659D01*
X0161849Y0076709D01*
X0161894Y0076760D01*
X0161936Y0076815D01*
X0161975Y0076871D01*
X0162010Y0076930D01*
X0162042Y0076991D01*
X0162070Y0077053D01*
X0162095Y0077117D01*
X0162116Y0077182D01*
X0162134Y0077248D01*
X0162147Y0077315D01*
X0162157Y0077383D01*
X0162163Y0077451D01*
X0162165Y0077520D01*
X0167265Y0043120D02*
X0154665Y0043120D01*
D13*
X0143449Y0108902D02*
X0143451Y0108941D01*
X0143457Y0108980D01*
X0143467Y0109018D01*
X0143480Y0109055D01*
X0143497Y0109090D01*
X0143517Y0109124D01*
X0143541Y0109155D01*
X0143568Y0109184D01*
X0143597Y0109210D01*
X0143629Y0109233D01*
X0143663Y0109253D01*
X0143699Y0109269D01*
X0143736Y0109281D01*
X0143775Y0109290D01*
X0143814Y0109295D01*
X0143853Y0109296D01*
X0143892Y0109293D01*
X0143931Y0109286D01*
X0143968Y0109275D01*
X0144005Y0109261D01*
X0144040Y0109243D01*
X0144073Y0109222D01*
X0144104Y0109197D01*
X0144132Y0109170D01*
X0144157Y0109140D01*
X0144179Y0109107D01*
X0144198Y0109073D01*
X0144213Y0109037D01*
X0144225Y0108999D01*
X0144233Y0108961D01*
X0144237Y0108922D01*
X0144237Y0108882D01*
X0144233Y0108843D01*
X0144225Y0108805D01*
X0144213Y0108767D01*
X0144198Y0108731D01*
X0144179Y0108697D01*
X0144157Y0108664D01*
X0144132Y0108634D01*
X0144104Y0108607D01*
X0144073Y0108582D01*
X0144040Y0108561D01*
X0144005Y0108543D01*
X0143968Y0108529D01*
X0143931Y0108518D01*
X0143892Y0108511D01*
X0143853Y0108508D01*
X0143814Y0108509D01*
X0143775Y0108514D01*
X0143736Y0108523D01*
X0143699Y0108535D01*
X0143663Y0108551D01*
X0143629Y0108571D01*
X0143597Y0108594D01*
X0143568Y0108620D01*
X0143541Y0108649D01*
X0143517Y0108680D01*
X0143497Y0108714D01*
X0143480Y0108749D01*
X0143467Y0108786D01*
X0143457Y0108824D01*
X0143451Y0108863D01*
X0143449Y0108902D01*
X0133186Y0188804D02*
X0133188Y0188843D01*
X0133194Y0188882D01*
X0133204Y0188920D01*
X0133217Y0188957D01*
X0133234Y0188992D01*
X0133254Y0189026D01*
X0133278Y0189057D01*
X0133305Y0189086D01*
X0133334Y0189112D01*
X0133366Y0189135D01*
X0133400Y0189155D01*
X0133436Y0189171D01*
X0133473Y0189183D01*
X0133512Y0189192D01*
X0133551Y0189197D01*
X0133590Y0189198D01*
X0133629Y0189195D01*
X0133668Y0189188D01*
X0133705Y0189177D01*
X0133742Y0189163D01*
X0133777Y0189145D01*
X0133810Y0189124D01*
X0133841Y0189099D01*
X0133869Y0189072D01*
X0133894Y0189042D01*
X0133916Y0189009D01*
X0133935Y0188975D01*
X0133950Y0188939D01*
X0133962Y0188901D01*
X0133970Y0188863D01*
X0133974Y0188824D01*
X0133974Y0188784D01*
X0133970Y0188745D01*
X0133962Y0188707D01*
X0133950Y0188669D01*
X0133935Y0188633D01*
X0133916Y0188599D01*
X0133894Y0188566D01*
X0133869Y0188536D01*
X0133841Y0188509D01*
X0133810Y0188484D01*
X0133777Y0188463D01*
X0133742Y0188445D01*
X0133705Y0188431D01*
X0133668Y0188420D01*
X0133629Y0188413D01*
X0133590Y0188410D01*
X0133551Y0188411D01*
X0133512Y0188416D01*
X0133473Y0188425D01*
X0133436Y0188437D01*
X0133400Y0188453D01*
X0133366Y0188473D01*
X0133334Y0188496D01*
X0133305Y0188522D01*
X0133278Y0188551D01*
X0133254Y0188582D01*
X0133234Y0188616D01*
X0133217Y0188651D01*
X0133204Y0188688D01*
X0133194Y0188726D01*
X0133188Y0188765D01*
X0133186Y0188804D01*
X0176989Y0192331D02*
X0176991Y0192370D01*
X0176997Y0192409D01*
X0177007Y0192447D01*
X0177020Y0192484D01*
X0177037Y0192519D01*
X0177057Y0192553D01*
X0177081Y0192584D01*
X0177108Y0192613D01*
X0177137Y0192639D01*
X0177169Y0192662D01*
X0177203Y0192682D01*
X0177239Y0192698D01*
X0177276Y0192710D01*
X0177315Y0192719D01*
X0177354Y0192724D01*
X0177393Y0192725D01*
X0177432Y0192722D01*
X0177471Y0192715D01*
X0177508Y0192704D01*
X0177545Y0192690D01*
X0177580Y0192672D01*
X0177613Y0192651D01*
X0177644Y0192626D01*
X0177672Y0192599D01*
X0177697Y0192569D01*
X0177719Y0192536D01*
X0177738Y0192502D01*
X0177753Y0192466D01*
X0177765Y0192428D01*
X0177773Y0192390D01*
X0177777Y0192351D01*
X0177777Y0192311D01*
X0177773Y0192272D01*
X0177765Y0192234D01*
X0177753Y0192196D01*
X0177738Y0192160D01*
X0177719Y0192126D01*
X0177697Y0192093D01*
X0177672Y0192063D01*
X0177644Y0192036D01*
X0177613Y0192011D01*
X0177580Y0191990D01*
X0177545Y0191972D01*
X0177508Y0191958D01*
X0177471Y0191947D01*
X0177432Y0191940D01*
X0177393Y0191937D01*
X0177354Y0191938D01*
X0177315Y0191943D01*
X0177276Y0191952D01*
X0177239Y0191964D01*
X0177203Y0191980D01*
X0177169Y0192000D01*
X0177137Y0192023D01*
X0177108Y0192049D01*
X0177081Y0192078D01*
X0177057Y0192109D01*
X0177037Y0192143D01*
X0177020Y0192178D01*
X0177007Y0192215D01*
X0176997Y0192253D01*
X0176991Y0192292D01*
X0176989Y0192331D01*
D14*
X0021096Y0052800D02*
X0021103Y0053382D01*
X0021125Y0053963D01*
X0021160Y0054544D01*
X0021210Y0055123D01*
X0021274Y0055702D01*
X0021353Y0056278D01*
X0021445Y0056852D01*
X0021551Y0057424D01*
X0021672Y0057994D01*
X0021806Y0058560D01*
X0021955Y0059122D01*
X0022117Y0059681D01*
X0022292Y0060236D01*
X0022482Y0060786D01*
X0022684Y0061331D01*
X0022900Y0061871D01*
X0023130Y0062406D01*
X0023372Y0062935D01*
X0023627Y0063458D01*
X0023895Y0063974D01*
X0024175Y0064484D01*
X0024468Y0064986D01*
X0024774Y0065482D01*
X0025091Y0065969D01*
X0025420Y0066449D01*
X0025761Y0066920D01*
X0026113Y0067383D01*
X0026477Y0067838D01*
X0026851Y0068283D01*
X0027236Y0068719D01*
X0027632Y0069145D01*
X0028039Y0069561D01*
X0028455Y0069968D01*
X0028881Y0070364D01*
X0029317Y0070749D01*
X0029762Y0071123D01*
X0030217Y0071487D01*
X0030680Y0071839D01*
X0031151Y0072180D01*
X0031631Y0072509D01*
X0032118Y0072826D01*
X0032614Y0073132D01*
X0033116Y0073425D01*
X0033626Y0073705D01*
X0034142Y0073973D01*
X0034665Y0074228D01*
X0035194Y0074470D01*
X0035729Y0074700D01*
X0036269Y0074916D01*
X0036814Y0075118D01*
X0037364Y0075308D01*
X0037919Y0075483D01*
X0038478Y0075645D01*
X0039040Y0075794D01*
X0039606Y0075928D01*
X0040176Y0076049D01*
X0040748Y0076155D01*
X0041322Y0076247D01*
X0041898Y0076326D01*
X0042477Y0076390D01*
X0043056Y0076440D01*
X0043637Y0076475D01*
X0044218Y0076497D01*
X0044800Y0076504D01*
X0045382Y0076497D01*
X0045963Y0076475D01*
X0046544Y0076440D01*
X0047123Y0076390D01*
X0047702Y0076326D01*
X0048278Y0076247D01*
X0048852Y0076155D01*
X0049424Y0076049D01*
X0049994Y0075928D01*
X0050560Y0075794D01*
X0051122Y0075645D01*
X0051681Y0075483D01*
X0052236Y0075308D01*
X0052786Y0075118D01*
X0053331Y0074916D01*
X0053871Y0074700D01*
X0054406Y0074470D01*
X0054935Y0074228D01*
X0055458Y0073973D01*
X0055974Y0073705D01*
X0056484Y0073425D01*
X0056986Y0073132D01*
X0057482Y0072826D01*
X0057969Y0072509D01*
X0058449Y0072180D01*
X0058920Y0071839D01*
X0059383Y0071487D01*
X0059838Y0071123D01*
X0060283Y0070749D01*
X0060719Y0070364D01*
X0061145Y0069968D01*
X0061561Y0069561D01*
X0061968Y0069145D01*
X0062364Y0068719D01*
X0062749Y0068283D01*
X0063123Y0067838D01*
X0063487Y0067383D01*
X0063839Y0066920D01*
X0064180Y0066449D01*
X0064509Y0065969D01*
X0064826Y0065482D01*
X0065132Y0064986D01*
X0065425Y0064484D01*
X0065705Y0063974D01*
X0065973Y0063458D01*
X0066228Y0062935D01*
X0066470Y0062406D01*
X0066700Y0061871D01*
X0066916Y0061331D01*
X0067118Y0060786D01*
X0067308Y0060236D01*
X0067483Y0059681D01*
X0067645Y0059122D01*
X0067794Y0058560D01*
X0067928Y0057994D01*
X0068049Y0057424D01*
X0068155Y0056852D01*
X0068247Y0056278D01*
X0068326Y0055702D01*
X0068390Y0055123D01*
X0068440Y0054544D01*
X0068475Y0053963D01*
X0068497Y0053382D01*
X0068504Y0052800D01*
X0068497Y0052218D01*
X0068475Y0051637D01*
X0068440Y0051056D01*
X0068390Y0050477D01*
X0068326Y0049898D01*
X0068247Y0049322D01*
X0068155Y0048748D01*
X0068049Y0048176D01*
X0067928Y0047606D01*
X0067794Y0047040D01*
X0067645Y0046478D01*
X0067483Y0045919D01*
X0067308Y0045364D01*
X0067118Y0044814D01*
X0066916Y0044269D01*
X0066700Y0043729D01*
X0066470Y0043194D01*
X0066228Y0042665D01*
X0065973Y0042142D01*
X0065705Y0041626D01*
X0065425Y0041116D01*
X0065132Y0040614D01*
X0064826Y0040118D01*
X0064509Y0039631D01*
X0064180Y0039151D01*
X0063839Y0038680D01*
X0063487Y0038217D01*
X0063123Y0037762D01*
X0062749Y0037317D01*
X0062364Y0036881D01*
X0061968Y0036455D01*
X0061561Y0036039D01*
X0061145Y0035632D01*
X0060719Y0035236D01*
X0060283Y0034851D01*
X0059838Y0034477D01*
X0059383Y0034113D01*
X0058920Y0033761D01*
X0058449Y0033420D01*
X0057969Y0033091D01*
X0057482Y0032774D01*
X0056986Y0032468D01*
X0056484Y0032175D01*
X0055974Y0031895D01*
X0055458Y0031627D01*
X0054935Y0031372D01*
X0054406Y0031130D01*
X0053871Y0030900D01*
X0053331Y0030684D01*
X0052786Y0030482D01*
X0052236Y0030292D01*
X0051681Y0030117D01*
X0051122Y0029955D01*
X0050560Y0029806D01*
X0049994Y0029672D01*
X0049424Y0029551D01*
X0048852Y0029445D01*
X0048278Y0029353D01*
X0047702Y0029274D01*
X0047123Y0029210D01*
X0046544Y0029160D01*
X0045963Y0029125D01*
X0045382Y0029103D01*
X0044800Y0029096D01*
X0044218Y0029103D01*
X0043637Y0029125D01*
X0043056Y0029160D01*
X0042477Y0029210D01*
X0041898Y0029274D01*
X0041322Y0029353D01*
X0040748Y0029445D01*
X0040176Y0029551D01*
X0039606Y0029672D01*
X0039040Y0029806D01*
X0038478Y0029955D01*
X0037919Y0030117D01*
X0037364Y0030292D01*
X0036814Y0030482D01*
X0036269Y0030684D01*
X0035729Y0030900D01*
X0035194Y0031130D01*
X0034665Y0031372D01*
X0034142Y0031627D01*
X0033626Y0031895D01*
X0033116Y0032175D01*
X0032614Y0032468D01*
X0032118Y0032774D01*
X0031631Y0033091D01*
X0031151Y0033420D01*
X0030680Y0033761D01*
X0030217Y0034113D01*
X0029762Y0034477D01*
X0029317Y0034851D01*
X0028881Y0035236D01*
X0028455Y0035632D01*
X0028039Y0036039D01*
X0027632Y0036455D01*
X0027236Y0036881D01*
X0026851Y0037317D01*
X0026477Y0037762D01*
X0026113Y0038217D01*
X0025761Y0038680D01*
X0025420Y0039151D01*
X0025091Y0039631D01*
X0024774Y0040118D01*
X0024468Y0040614D01*
X0024175Y0041116D01*
X0023895Y0041626D01*
X0023627Y0042142D01*
X0023372Y0042665D01*
X0023130Y0043194D01*
X0022900Y0043729D01*
X0022684Y0044269D01*
X0022482Y0044814D01*
X0022292Y0045364D01*
X0022117Y0045919D01*
X0021955Y0046478D01*
X0021806Y0047040D01*
X0021672Y0047606D01*
X0021551Y0048176D01*
X0021445Y0048748D01*
X0021353Y0049322D01*
X0021274Y0049898D01*
X0021210Y0050477D01*
X0021160Y0051056D01*
X0021125Y0051637D01*
X0021103Y0052218D01*
X0021096Y0052800D01*
X0036926Y0052800D02*
X0036928Y0052993D01*
X0036935Y0053186D01*
X0036947Y0053379D01*
X0036964Y0053572D01*
X0036985Y0053764D01*
X0037011Y0053955D01*
X0037042Y0054146D01*
X0037077Y0054336D01*
X0037117Y0054525D01*
X0037162Y0054713D01*
X0037211Y0054900D01*
X0037265Y0055086D01*
X0037323Y0055270D01*
X0037386Y0055453D01*
X0037454Y0055634D01*
X0037525Y0055813D01*
X0037602Y0055991D01*
X0037682Y0056167D01*
X0037767Y0056340D01*
X0037856Y0056512D01*
X0037949Y0056681D01*
X0038046Y0056848D01*
X0038148Y0057013D01*
X0038253Y0057175D01*
X0038362Y0057334D01*
X0038476Y0057491D01*
X0038593Y0057644D01*
X0038713Y0057795D01*
X0038838Y0057943D01*
X0038966Y0058088D01*
X0039097Y0058229D01*
X0039232Y0058368D01*
X0039371Y0058503D01*
X0039512Y0058634D01*
X0039657Y0058762D01*
X0039805Y0058887D01*
X0039956Y0059007D01*
X0040109Y0059124D01*
X0040266Y0059238D01*
X0040425Y0059347D01*
X0040587Y0059452D01*
X0040752Y0059554D01*
X0040919Y0059651D01*
X0041088Y0059744D01*
X0041260Y0059833D01*
X0041433Y0059918D01*
X0041609Y0059998D01*
X0041787Y0060075D01*
X0041966Y0060146D01*
X0042147Y0060214D01*
X0042330Y0060277D01*
X0042514Y0060335D01*
X0042700Y0060389D01*
X0042887Y0060438D01*
X0043075Y0060483D01*
X0043264Y0060523D01*
X0043454Y0060558D01*
X0043645Y0060589D01*
X0043836Y0060615D01*
X0044028Y0060636D01*
X0044221Y0060653D01*
X0044414Y0060665D01*
X0044607Y0060672D01*
X0044800Y0060674D01*
X0044993Y0060672D01*
X0045186Y0060665D01*
X0045379Y0060653D01*
X0045572Y0060636D01*
X0045764Y0060615D01*
X0045955Y0060589D01*
X0046146Y0060558D01*
X0046336Y0060523D01*
X0046525Y0060483D01*
X0046713Y0060438D01*
X0046900Y0060389D01*
X0047086Y0060335D01*
X0047270Y0060277D01*
X0047453Y0060214D01*
X0047634Y0060146D01*
X0047813Y0060075D01*
X0047991Y0059998D01*
X0048167Y0059918D01*
X0048340Y0059833D01*
X0048512Y0059744D01*
X0048681Y0059651D01*
X0048848Y0059554D01*
X0049013Y0059452D01*
X0049175Y0059347D01*
X0049334Y0059238D01*
X0049491Y0059124D01*
X0049644Y0059007D01*
X0049795Y0058887D01*
X0049943Y0058762D01*
X0050088Y0058634D01*
X0050229Y0058503D01*
X0050368Y0058368D01*
X0050503Y0058229D01*
X0050634Y0058088D01*
X0050762Y0057943D01*
X0050887Y0057795D01*
X0051007Y0057644D01*
X0051124Y0057491D01*
X0051238Y0057334D01*
X0051347Y0057175D01*
X0051452Y0057013D01*
X0051554Y0056848D01*
X0051651Y0056681D01*
X0051744Y0056512D01*
X0051833Y0056340D01*
X0051918Y0056167D01*
X0051998Y0055991D01*
X0052075Y0055813D01*
X0052146Y0055634D01*
X0052214Y0055453D01*
X0052277Y0055270D01*
X0052335Y0055086D01*
X0052389Y0054900D01*
X0052438Y0054713D01*
X0052483Y0054525D01*
X0052523Y0054336D01*
X0052558Y0054146D01*
X0052589Y0053955D01*
X0052615Y0053764D01*
X0052636Y0053572D01*
X0052653Y0053379D01*
X0052665Y0053186D01*
X0052672Y0052993D01*
X0052674Y0052800D01*
X0052672Y0052607D01*
X0052665Y0052414D01*
X0052653Y0052221D01*
X0052636Y0052028D01*
X0052615Y0051836D01*
X0052589Y0051645D01*
X0052558Y0051454D01*
X0052523Y0051264D01*
X0052483Y0051075D01*
X0052438Y0050887D01*
X0052389Y0050700D01*
X0052335Y0050514D01*
X0052277Y0050330D01*
X0052214Y0050147D01*
X0052146Y0049966D01*
X0052075Y0049787D01*
X0051998Y0049609D01*
X0051918Y0049433D01*
X0051833Y0049260D01*
X0051744Y0049088D01*
X0051651Y0048919D01*
X0051554Y0048752D01*
X0051452Y0048587D01*
X0051347Y0048425D01*
X0051238Y0048266D01*
X0051124Y0048109D01*
X0051007Y0047956D01*
X0050887Y0047805D01*
X0050762Y0047657D01*
X0050634Y0047512D01*
X0050503Y0047371D01*
X0050368Y0047232D01*
X0050229Y0047097D01*
X0050088Y0046966D01*
X0049943Y0046838D01*
X0049795Y0046713D01*
X0049644Y0046593D01*
X0049491Y0046476D01*
X0049334Y0046362D01*
X0049175Y0046253D01*
X0049013Y0046148D01*
X0048848Y0046046D01*
X0048681Y0045949D01*
X0048512Y0045856D01*
X0048340Y0045767D01*
X0048167Y0045682D01*
X0047991Y0045602D01*
X0047813Y0045525D01*
X0047634Y0045454D01*
X0047453Y0045386D01*
X0047270Y0045323D01*
X0047086Y0045265D01*
X0046900Y0045211D01*
X0046713Y0045162D01*
X0046525Y0045117D01*
X0046336Y0045077D01*
X0046146Y0045042D01*
X0045955Y0045011D01*
X0045764Y0044985D01*
X0045572Y0044964D01*
X0045379Y0044947D01*
X0045186Y0044935D01*
X0044993Y0044928D01*
X0044800Y0044926D01*
X0044607Y0044928D01*
X0044414Y0044935D01*
X0044221Y0044947D01*
X0044028Y0044964D01*
X0043836Y0044985D01*
X0043645Y0045011D01*
X0043454Y0045042D01*
X0043264Y0045077D01*
X0043075Y0045117D01*
X0042887Y0045162D01*
X0042700Y0045211D01*
X0042514Y0045265D01*
X0042330Y0045323D01*
X0042147Y0045386D01*
X0041966Y0045454D01*
X0041787Y0045525D01*
X0041609Y0045602D01*
X0041433Y0045682D01*
X0041260Y0045767D01*
X0041088Y0045856D01*
X0040919Y0045949D01*
X0040752Y0046046D01*
X0040587Y0046148D01*
X0040425Y0046253D01*
X0040266Y0046362D01*
X0040109Y0046476D01*
X0039956Y0046593D01*
X0039805Y0046713D01*
X0039657Y0046838D01*
X0039512Y0046966D01*
X0039371Y0047097D01*
X0039232Y0047232D01*
X0039097Y0047371D01*
X0038966Y0047512D01*
X0038838Y0047657D01*
X0038713Y0047805D01*
X0038593Y0047956D01*
X0038476Y0048109D01*
X0038362Y0048266D01*
X0038253Y0048425D01*
X0038148Y0048587D01*
X0038046Y0048752D01*
X0037949Y0048919D01*
X0037856Y0049088D01*
X0037767Y0049260D01*
X0037682Y0049433D01*
X0037602Y0049609D01*
X0037525Y0049787D01*
X0037454Y0049966D01*
X0037386Y0050147D01*
X0037323Y0050330D01*
X0037265Y0050514D01*
X0037211Y0050700D01*
X0037162Y0050887D01*
X0037117Y0051075D01*
X0037077Y0051264D01*
X0037042Y0051454D01*
X0037011Y0051645D01*
X0036985Y0051836D01*
X0036964Y0052028D01*
X0036947Y0052221D01*
X0036935Y0052414D01*
X0036928Y0052607D01*
X0036926Y0052800D01*
X0017241Y0052800D02*
X0017249Y0053476D01*
X0017274Y0054152D01*
X0017316Y0054827D01*
X0017374Y0055501D01*
X0017448Y0056174D01*
X0017539Y0056844D01*
X0017647Y0057512D01*
X0017771Y0058176D01*
X0017911Y0058838D01*
X0018067Y0059496D01*
X0018239Y0060150D01*
X0018428Y0060800D01*
X0018632Y0061445D01*
X0018852Y0062084D01*
X0019088Y0062718D01*
X0019339Y0063346D01*
X0019605Y0063968D01*
X0019887Y0064583D01*
X0020184Y0065191D01*
X0020495Y0065791D01*
X0020821Y0066384D01*
X0021162Y0066968D01*
X0021517Y0067544D01*
X0021886Y0068111D01*
X0022268Y0068669D01*
X0022664Y0069217D01*
X0023074Y0069755D01*
X0023497Y0070283D01*
X0023932Y0070801D01*
X0024380Y0071307D01*
X0024840Y0071803D01*
X0025313Y0072287D01*
X0025797Y0072760D01*
X0026293Y0073220D01*
X0026799Y0073668D01*
X0027317Y0074103D01*
X0027845Y0074526D01*
X0028383Y0074936D01*
X0028931Y0075332D01*
X0029489Y0075714D01*
X0030056Y0076083D01*
X0030632Y0076438D01*
X0031216Y0076779D01*
X0031809Y0077105D01*
X0032409Y0077416D01*
X0033017Y0077713D01*
X0033632Y0077995D01*
X0034254Y0078261D01*
X0034882Y0078512D01*
X0035516Y0078748D01*
X0036155Y0078968D01*
X0036800Y0079172D01*
X0037450Y0079361D01*
X0038104Y0079533D01*
X0038762Y0079689D01*
X0039424Y0079829D01*
X0040088Y0079953D01*
X0040756Y0080061D01*
X0041426Y0080152D01*
X0042099Y0080226D01*
X0042773Y0080284D01*
X0043448Y0080326D01*
X0044124Y0080351D01*
X0044800Y0080359D01*
X0045476Y0080351D01*
X0046152Y0080326D01*
X0046827Y0080284D01*
X0047501Y0080226D01*
X0048174Y0080152D01*
X0048844Y0080061D01*
X0049512Y0079953D01*
X0050176Y0079829D01*
X0050838Y0079689D01*
X0051496Y0079533D01*
X0052150Y0079361D01*
X0052800Y0079172D01*
X0053445Y0078968D01*
X0054084Y0078748D01*
X0054718Y0078512D01*
X0055346Y0078261D01*
X0055968Y0077995D01*
X0056583Y0077713D01*
X0057191Y0077416D01*
X0057791Y0077105D01*
X0058384Y0076779D01*
X0058968Y0076438D01*
X0059544Y0076083D01*
X0060111Y0075714D01*
X0060669Y0075332D01*
X0061217Y0074936D01*
X0061755Y0074526D01*
X0062283Y0074103D01*
X0062801Y0073668D01*
X0063307Y0073220D01*
X0063803Y0072760D01*
X0064287Y0072287D01*
X0064760Y0071803D01*
X0065220Y0071307D01*
X0065668Y0070801D01*
X0066103Y0070283D01*
X0066526Y0069755D01*
X0066936Y0069217D01*
X0067332Y0068669D01*
X0067714Y0068111D01*
X0068083Y0067544D01*
X0068438Y0066968D01*
X0068779Y0066384D01*
X0069105Y0065791D01*
X0069416Y0065191D01*
X0069713Y0064583D01*
X0069995Y0063968D01*
X0070261Y0063346D01*
X0070512Y0062718D01*
X0070748Y0062084D01*
X0070968Y0061445D01*
X0071172Y0060800D01*
X0071361Y0060150D01*
X0071533Y0059496D01*
X0071689Y0058838D01*
X0071829Y0058176D01*
X0071953Y0057512D01*
X0072061Y0056844D01*
X0072152Y0056174D01*
X0072226Y0055501D01*
X0072284Y0054827D01*
X0072326Y0054152D01*
X0072351Y0053476D01*
X0072359Y0052800D01*
X0072351Y0052124D01*
X0072326Y0051448D01*
X0072284Y0050773D01*
X0072226Y0050099D01*
X0072152Y0049426D01*
X0072061Y0048756D01*
X0071953Y0048088D01*
X0071829Y0047424D01*
X0071689Y0046762D01*
X0071533Y0046104D01*
X0071361Y0045450D01*
X0071172Y0044800D01*
X0070968Y0044155D01*
X0070748Y0043516D01*
X0070512Y0042882D01*
X0070261Y0042254D01*
X0069995Y0041632D01*
X0069713Y0041017D01*
X0069416Y0040409D01*
X0069105Y0039809D01*
X0068779Y0039216D01*
X0068438Y0038632D01*
X0068083Y0038056D01*
X0067714Y0037489D01*
X0067332Y0036931D01*
X0066936Y0036383D01*
X0066526Y0035845D01*
X0066103Y0035317D01*
X0065668Y0034799D01*
X0065220Y0034293D01*
X0064760Y0033797D01*
X0064287Y0033313D01*
X0063803Y0032840D01*
X0063307Y0032380D01*
X0062801Y0031932D01*
X0062283Y0031497D01*
X0061755Y0031074D01*
X0061217Y0030664D01*
X0060669Y0030268D01*
X0060111Y0029886D01*
X0059544Y0029517D01*
X0058968Y0029162D01*
X0058384Y0028821D01*
X0057791Y0028495D01*
X0057191Y0028184D01*
X0056583Y0027887D01*
X0055968Y0027605D01*
X0055346Y0027339D01*
X0054718Y0027088D01*
X0054084Y0026852D01*
X0053445Y0026632D01*
X0052800Y0026428D01*
X0052150Y0026239D01*
X0051496Y0026067D01*
X0050838Y0025911D01*
X0050176Y0025771D01*
X0049512Y0025647D01*
X0048844Y0025539D01*
X0048174Y0025448D01*
X0047501Y0025374D01*
X0046827Y0025316D01*
X0046152Y0025274D01*
X0045476Y0025249D01*
X0044800Y0025241D01*
X0044124Y0025249D01*
X0043448Y0025274D01*
X0042773Y0025316D01*
X0042099Y0025374D01*
X0041426Y0025448D01*
X0040756Y0025539D01*
X0040088Y0025647D01*
X0039424Y0025771D01*
X0038762Y0025911D01*
X0038104Y0026067D01*
X0037450Y0026239D01*
X0036800Y0026428D01*
X0036155Y0026632D01*
X0035516Y0026852D01*
X0034882Y0027088D01*
X0034254Y0027339D01*
X0033632Y0027605D01*
X0033017Y0027887D01*
X0032409Y0028184D01*
X0031809Y0028495D01*
X0031216Y0028821D01*
X0030632Y0029162D01*
X0030056Y0029517D01*
X0029489Y0029886D01*
X0028931Y0030268D01*
X0028383Y0030664D01*
X0027845Y0031074D01*
X0027317Y0031497D01*
X0026799Y0031932D01*
X0026293Y0032380D01*
X0025797Y0032840D01*
X0025313Y0033313D01*
X0024840Y0033797D01*
X0024380Y0034293D01*
X0023932Y0034799D01*
X0023497Y0035317D01*
X0023074Y0035845D01*
X0022664Y0036383D01*
X0022268Y0036931D01*
X0021886Y0037489D01*
X0021517Y0038056D01*
X0021162Y0038632D01*
X0020821Y0039216D01*
X0020495Y0039809D01*
X0020184Y0040409D01*
X0019887Y0041017D01*
X0019605Y0041632D01*
X0019339Y0042254D01*
X0019088Y0042882D01*
X0018852Y0043516D01*
X0018632Y0044155D01*
X0018428Y0044800D01*
X0018239Y0045450D01*
X0018067Y0046104D01*
X0017911Y0046762D01*
X0017771Y0047424D01*
X0017647Y0048088D01*
X0017539Y0048756D01*
X0017448Y0049426D01*
X0017374Y0050099D01*
X0017316Y0050773D01*
X0017274Y0051448D01*
X0017249Y0052124D01*
X0017241Y0052800D01*
X0021096Y0109800D02*
X0021103Y0110382D01*
X0021125Y0110963D01*
X0021160Y0111544D01*
X0021210Y0112123D01*
X0021274Y0112702D01*
X0021353Y0113278D01*
X0021445Y0113852D01*
X0021551Y0114424D01*
X0021672Y0114994D01*
X0021806Y0115560D01*
X0021955Y0116122D01*
X0022117Y0116681D01*
X0022292Y0117236D01*
X0022482Y0117786D01*
X0022684Y0118331D01*
X0022900Y0118871D01*
X0023130Y0119406D01*
X0023372Y0119935D01*
X0023627Y0120458D01*
X0023895Y0120974D01*
X0024175Y0121484D01*
X0024468Y0121986D01*
X0024774Y0122482D01*
X0025091Y0122969D01*
X0025420Y0123449D01*
X0025761Y0123920D01*
X0026113Y0124383D01*
X0026477Y0124838D01*
X0026851Y0125283D01*
X0027236Y0125719D01*
X0027632Y0126145D01*
X0028039Y0126561D01*
X0028455Y0126968D01*
X0028881Y0127364D01*
X0029317Y0127749D01*
X0029762Y0128123D01*
X0030217Y0128487D01*
X0030680Y0128839D01*
X0031151Y0129180D01*
X0031631Y0129509D01*
X0032118Y0129826D01*
X0032614Y0130132D01*
X0033116Y0130425D01*
X0033626Y0130705D01*
X0034142Y0130973D01*
X0034665Y0131228D01*
X0035194Y0131470D01*
X0035729Y0131700D01*
X0036269Y0131916D01*
X0036814Y0132118D01*
X0037364Y0132308D01*
X0037919Y0132483D01*
X0038478Y0132645D01*
X0039040Y0132794D01*
X0039606Y0132928D01*
X0040176Y0133049D01*
X0040748Y0133155D01*
X0041322Y0133247D01*
X0041898Y0133326D01*
X0042477Y0133390D01*
X0043056Y0133440D01*
X0043637Y0133475D01*
X0044218Y0133497D01*
X0044800Y0133504D01*
X0045382Y0133497D01*
X0045963Y0133475D01*
X0046544Y0133440D01*
X0047123Y0133390D01*
X0047702Y0133326D01*
X0048278Y0133247D01*
X0048852Y0133155D01*
X0049424Y0133049D01*
X0049994Y0132928D01*
X0050560Y0132794D01*
X0051122Y0132645D01*
X0051681Y0132483D01*
X0052236Y0132308D01*
X0052786Y0132118D01*
X0053331Y0131916D01*
X0053871Y0131700D01*
X0054406Y0131470D01*
X0054935Y0131228D01*
X0055458Y0130973D01*
X0055974Y0130705D01*
X0056484Y0130425D01*
X0056986Y0130132D01*
X0057482Y0129826D01*
X0057969Y0129509D01*
X0058449Y0129180D01*
X0058920Y0128839D01*
X0059383Y0128487D01*
X0059838Y0128123D01*
X0060283Y0127749D01*
X0060719Y0127364D01*
X0061145Y0126968D01*
X0061561Y0126561D01*
X0061968Y0126145D01*
X0062364Y0125719D01*
X0062749Y0125283D01*
X0063123Y0124838D01*
X0063487Y0124383D01*
X0063839Y0123920D01*
X0064180Y0123449D01*
X0064509Y0122969D01*
X0064826Y0122482D01*
X0065132Y0121986D01*
X0065425Y0121484D01*
X0065705Y0120974D01*
X0065973Y0120458D01*
X0066228Y0119935D01*
X0066470Y0119406D01*
X0066700Y0118871D01*
X0066916Y0118331D01*
X0067118Y0117786D01*
X0067308Y0117236D01*
X0067483Y0116681D01*
X0067645Y0116122D01*
X0067794Y0115560D01*
X0067928Y0114994D01*
X0068049Y0114424D01*
X0068155Y0113852D01*
X0068247Y0113278D01*
X0068326Y0112702D01*
X0068390Y0112123D01*
X0068440Y0111544D01*
X0068475Y0110963D01*
X0068497Y0110382D01*
X0068504Y0109800D01*
X0068497Y0109218D01*
X0068475Y0108637D01*
X0068440Y0108056D01*
X0068390Y0107477D01*
X0068326Y0106898D01*
X0068247Y0106322D01*
X0068155Y0105748D01*
X0068049Y0105176D01*
X0067928Y0104606D01*
X0067794Y0104040D01*
X0067645Y0103478D01*
X0067483Y0102919D01*
X0067308Y0102364D01*
X0067118Y0101814D01*
X0066916Y0101269D01*
X0066700Y0100729D01*
X0066470Y0100194D01*
X0066228Y0099665D01*
X0065973Y0099142D01*
X0065705Y0098626D01*
X0065425Y0098116D01*
X0065132Y0097614D01*
X0064826Y0097118D01*
X0064509Y0096631D01*
X0064180Y0096151D01*
X0063839Y0095680D01*
X0063487Y0095217D01*
X0063123Y0094762D01*
X0062749Y0094317D01*
X0062364Y0093881D01*
X0061968Y0093455D01*
X0061561Y0093039D01*
X0061145Y0092632D01*
X0060719Y0092236D01*
X0060283Y0091851D01*
X0059838Y0091477D01*
X0059383Y0091113D01*
X0058920Y0090761D01*
X0058449Y0090420D01*
X0057969Y0090091D01*
X0057482Y0089774D01*
X0056986Y0089468D01*
X0056484Y0089175D01*
X0055974Y0088895D01*
X0055458Y0088627D01*
X0054935Y0088372D01*
X0054406Y0088130D01*
X0053871Y0087900D01*
X0053331Y0087684D01*
X0052786Y0087482D01*
X0052236Y0087292D01*
X0051681Y0087117D01*
X0051122Y0086955D01*
X0050560Y0086806D01*
X0049994Y0086672D01*
X0049424Y0086551D01*
X0048852Y0086445D01*
X0048278Y0086353D01*
X0047702Y0086274D01*
X0047123Y0086210D01*
X0046544Y0086160D01*
X0045963Y0086125D01*
X0045382Y0086103D01*
X0044800Y0086096D01*
X0044218Y0086103D01*
X0043637Y0086125D01*
X0043056Y0086160D01*
X0042477Y0086210D01*
X0041898Y0086274D01*
X0041322Y0086353D01*
X0040748Y0086445D01*
X0040176Y0086551D01*
X0039606Y0086672D01*
X0039040Y0086806D01*
X0038478Y0086955D01*
X0037919Y0087117D01*
X0037364Y0087292D01*
X0036814Y0087482D01*
X0036269Y0087684D01*
X0035729Y0087900D01*
X0035194Y0088130D01*
X0034665Y0088372D01*
X0034142Y0088627D01*
X0033626Y0088895D01*
X0033116Y0089175D01*
X0032614Y0089468D01*
X0032118Y0089774D01*
X0031631Y0090091D01*
X0031151Y0090420D01*
X0030680Y0090761D01*
X0030217Y0091113D01*
X0029762Y0091477D01*
X0029317Y0091851D01*
X0028881Y0092236D01*
X0028455Y0092632D01*
X0028039Y0093039D01*
X0027632Y0093455D01*
X0027236Y0093881D01*
X0026851Y0094317D01*
X0026477Y0094762D01*
X0026113Y0095217D01*
X0025761Y0095680D01*
X0025420Y0096151D01*
X0025091Y0096631D01*
X0024774Y0097118D01*
X0024468Y0097614D01*
X0024175Y0098116D01*
X0023895Y0098626D01*
X0023627Y0099142D01*
X0023372Y0099665D01*
X0023130Y0100194D01*
X0022900Y0100729D01*
X0022684Y0101269D01*
X0022482Y0101814D01*
X0022292Y0102364D01*
X0022117Y0102919D01*
X0021955Y0103478D01*
X0021806Y0104040D01*
X0021672Y0104606D01*
X0021551Y0105176D01*
X0021445Y0105748D01*
X0021353Y0106322D01*
X0021274Y0106898D01*
X0021210Y0107477D01*
X0021160Y0108056D01*
X0021125Y0108637D01*
X0021103Y0109218D01*
X0021096Y0109800D01*
X0036926Y0109800D02*
X0036928Y0109993D01*
X0036935Y0110186D01*
X0036947Y0110379D01*
X0036964Y0110572D01*
X0036985Y0110764D01*
X0037011Y0110955D01*
X0037042Y0111146D01*
X0037077Y0111336D01*
X0037117Y0111525D01*
X0037162Y0111713D01*
X0037211Y0111900D01*
X0037265Y0112086D01*
X0037323Y0112270D01*
X0037386Y0112453D01*
X0037454Y0112634D01*
X0037525Y0112813D01*
X0037602Y0112991D01*
X0037682Y0113167D01*
X0037767Y0113340D01*
X0037856Y0113512D01*
X0037949Y0113681D01*
X0038046Y0113848D01*
X0038148Y0114013D01*
X0038253Y0114175D01*
X0038362Y0114334D01*
X0038476Y0114491D01*
X0038593Y0114644D01*
X0038713Y0114795D01*
X0038838Y0114943D01*
X0038966Y0115088D01*
X0039097Y0115229D01*
X0039232Y0115368D01*
X0039371Y0115503D01*
X0039512Y0115634D01*
X0039657Y0115762D01*
X0039805Y0115887D01*
X0039956Y0116007D01*
X0040109Y0116124D01*
X0040266Y0116238D01*
X0040425Y0116347D01*
X0040587Y0116452D01*
X0040752Y0116554D01*
X0040919Y0116651D01*
X0041088Y0116744D01*
X0041260Y0116833D01*
X0041433Y0116918D01*
X0041609Y0116998D01*
X0041787Y0117075D01*
X0041966Y0117146D01*
X0042147Y0117214D01*
X0042330Y0117277D01*
X0042514Y0117335D01*
X0042700Y0117389D01*
X0042887Y0117438D01*
X0043075Y0117483D01*
X0043264Y0117523D01*
X0043454Y0117558D01*
X0043645Y0117589D01*
X0043836Y0117615D01*
X0044028Y0117636D01*
X0044221Y0117653D01*
X0044414Y0117665D01*
X0044607Y0117672D01*
X0044800Y0117674D01*
X0044993Y0117672D01*
X0045186Y0117665D01*
X0045379Y0117653D01*
X0045572Y0117636D01*
X0045764Y0117615D01*
X0045955Y0117589D01*
X0046146Y0117558D01*
X0046336Y0117523D01*
X0046525Y0117483D01*
X0046713Y0117438D01*
X0046900Y0117389D01*
X0047086Y0117335D01*
X0047270Y0117277D01*
X0047453Y0117214D01*
X0047634Y0117146D01*
X0047813Y0117075D01*
X0047991Y0116998D01*
X0048167Y0116918D01*
X0048340Y0116833D01*
X0048512Y0116744D01*
X0048681Y0116651D01*
X0048848Y0116554D01*
X0049013Y0116452D01*
X0049175Y0116347D01*
X0049334Y0116238D01*
X0049491Y0116124D01*
X0049644Y0116007D01*
X0049795Y0115887D01*
X0049943Y0115762D01*
X0050088Y0115634D01*
X0050229Y0115503D01*
X0050368Y0115368D01*
X0050503Y0115229D01*
X0050634Y0115088D01*
X0050762Y0114943D01*
X0050887Y0114795D01*
X0051007Y0114644D01*
X0051124Y0114491D01*
X0051238Y0114334D01*
X0051347Y0114175D01*
X0051452Y0114013D01*
X0051554Y0113848D01*
X0051651Y0113681D01*
X0051744Y0113512D01*
X0051833Y0113340D01*
X0051918Y0113167D01*
X0051998Y0112991D01*
X0052075Y0112813D01*
X0052146Y0112634D01*
X0052214Y0112453D01*
X0052277Y0112270D01*
X0052335Y0112086D01*
X0052389Y0111900D01*
X0052438Y0111713D01*
X0052483Y0111525D01*
X0052523Y0111336D01*
X0052558Y0111146D01*
X0052589Y0110955D01*
X0052615Y0110764D01*
X0052636Y0110572D01*
X0052653Y0110379D01*
X0052665Y0110186D01*
X0052672Y0109993D01*
X0052674Y0109800D01*
X0052672Y0109607D01*
X0052665Y0109414D01*
X0052653Y0109221D01*
X0052636Y0109028D01*
X0052615Y0108836D01*
X0052589Y0108645D01*
X0052558Y0108454D01*
X0052523Y0108264D01*
X0052483Y0108075D01*
X0052438Y0107887D01*
X0052389Y0107700D01*
X0052335Y0107514D01*
X0052277Y0107330D01*
X0052214Y0107147D01*
X0052146Y0106966D01*
X0052075Y0106787D01*
X0051998Y0106609D01*
X0051918Y0106433D01*
X0051833Y0106260D01*
X0051744Y0106088D01*
X0051651Y0105919D01*
X0051554Y0105752D01*
X0051452Y0105587D01*
X0051347Y0105425D01*
X0051238Y0105266D01*
X0051124Y0105109D01*
X0051007Y0104956D01*
X0050887Y0104805D01*
X0050762Y0104657D01*
X0050634Y0104512D01*
X0050503Y0104371D01*
X0050368Y0104232D01*
X0050229Y0104097D01*
X0050088Y0103966D01*
X0049943Y0103838D01*
X0049795Y0103713D01*
X0049644Y0103593D01*
X0049491Y0103476D01*
X0049334Y0103362D01*
X0049175Y0103253D01*
X0049013Y0103148D01*
X0048848Y0103046D01*
X0048681Y0102949D01*
X0048512Y0102856D01*
X0048340Y0102767D01*
X0048167Y0102682D01*
X0047991Y0102602D01*
X0047813Y0102525D01*
X0047634Y0102454D01*
X0047453Y0102386D01*
X0047270Y0102323D01*
X0047086Y0102265D01*
X0046900Y0102211D01*
X0046713Y0102162D01*
X0046525Y0102117D01*
X0046336Y0102077D01*
X0046146Y0102042D01*
X0045955Y0102011D01*
X0045764Y0101985D01*
X0045572Y0101964D01*
X0045379Y0101947D01*
X0045186Y0101935D01*
X0044993Y0101928D01*
X0044800Y0101926D01*
X0044607Y0101928D01*
X0044414Y0101935D01*
X0044221Y0101947D01*
X0044028Y0101964D01*
X0043836Y0101985D01*
X0043645Y0102011D01*
X0043454Y0102042D01*
X0043264Y0102077D01*
X0043075Y0102117D01*
X0042887Y0102162D01*
X0042700Y0102211D01*
X0042514Y0102265D01*
X0042330Y0102323D01*
X0042147Y0102386D01*
X0041966Y0102454D01*
X0041787Y0102525D01*
X0041609Y0102602D01*
X0041433Y0102682D01*
X0041260Y0102767D01*
X0041088Y0102856D01*
X0040919Y0102949D01*
X0040752Y0103046D01*
X0040587Y0103148D01*
X0040425Y0103253D01*
X0040266Y0103362D01*
X0040109Y0103476D01*
X0039956Y0103593D01*
X0039805Y0103713D01*
X0039657Y0103838D01*
X0039512Y0103966D01*
X0039371Y0104097D01*
X0039232Y0104232D01*
X0039097Y0104371D01*
X0038966Y0104512D01*
X0038838Y0104657D01*
X0038713Y0104805D01*
X0038593Y0104956D01*
X0038476Y0105109D01*
X0038362Y0105266D01*
X0038253Y0105425D01*
X0038148Y0105587D01*
X0038046Y0105752D01*
X0037949Y0105919D01*
X0037856Y0106088D01*
X0037767Y0106260D01*
X0037682Y0106433D01*
X0037602Y0106609D01*
X0037525Y0106787D01*
X0037454Y0106966D01*
X0037386Y0107147D01*
X0037323Y0107330D01*
X0037265Y0107514D01*
X0037211Y0107700D01*
X0037162Y0107887D01*
X0037117Y0108075D01*
X0037077Y0108264D01*
X0037042Y0108454D01*
X0037011Y0108645D01*
X0036985Y0108836D01*
X0036964Y0109028D01*
X0036947Y0109221D01*
X0036935Y0109414D01*
X0036928Y0109607D01*
X0036926Y0109800D01*
X0017241Y0109800D02*
X0017249Y0110476D01*
X0017274Y0111152D01*
X0017316Y0111827D01*
X0017374Y0112501D01*
X0017448Y0113174D01*
X0017539Y0113844D01*
X0017647Y0114512D01*
X0017771Y0115176D01*
X0017911Y0115838D01*
X0018067Y0116496D01*
X0018239Y0117150D01*
X0018428Y0117800D01*
X0018632Y0118445D01*
X0018852Y0119084D01*
X0019088Y0119718D01*
X0019339Y0120346D01*
X0019605Y0120968D01*
X0019887Y0121583D01*
X0020184Y0122191D01*
X0020495Y0122791D01*
X0020821Y0123384D01*
X0021162Y0123968D01*
X0021517Y0124544D01*
X0021886Y0125111D01*
X0022268Y0125669D01*
X0022664Y0126217D01*
X0023074Y0126755D01*
X0023497Y0127283D01*
X0023932Y0127801D01*
X0024380Y0128307D01*
X0024840Y0128803D01*
X0025313Y0129287D01*
X0025797Y0129760D01*
X0026293Y0130220D01*
X0026799Y0130668D01*
X0027317Y0131103D01*
X0027845Y0131526D01*
X0028383Y0131936D01*
X0028931Y0132332D01*
X0029489Y0132714D01*
X0030056Y0133083D01*
X0030632Y0133438D01*
X0031216Y0133779D01*
X0031809Y0134105D01*
X0032409Y0134416D01*
X0033017Y0134713D01*
X0033632Y0134995D01*
X0034254Y0135261D01*
X0034882Y0135512D01*
X0035516Y0135748D01*
X0036155Y0135968D01*
X0036800Y0136172D01*
X0037450Y0136361D01*
X0038104Y0136533D01*
X0038762Y0136689D01*
X0039424Y0136829D01*
X0040088Y0136953D01*
X0040756Y0137061D01*
X0041426Y0137152D01*
X0042099Y0137226D01*
X0042773Y0137284D01*
X0043448Y0137326D01*
X0044124Y0137351D01*
X0044800Y0137359D01*
X0045476Y0137351D01*
X0046152Y0137326D01*
X0046827Y0137284D01*
X0047501Y0137226D01*
X0048174Y0137152D01*
X0048844Y0137061D01*
X0049512Y0136953D01*
X0050176Y0136829D01*
X0050838Y0136689D01*
X0051496Y0136533D01*
X0052150Y0136361D01*
X0052800Y0136172D01*
X0053445Y0135968D01*
X0054084Y0135748D01*
X0054718Y0135512D01*
X0055346Y0135261D01*
X0055968Y0134995D01*
X0056583Y0134713D01*
X0057191Y0134416D01*
X0057791Y0134105D01*
X0058384Y0133779D01*
X0058968Y0133438D01*
X0059544Y0133083D01*
X0060111Y0132714D01*
X0060669Y0132332D01*
X0061217Y0131936D01*
X0061755Y0131526D01*
X0062283Y0131103D01*
X0062801Y0130668D01*
X0063307Y0130220D01*
X0063803Y0129760D01*
X0064287Y0129287D01*
X0064760Y0128803D01*
X0065220Y0128307D01*
X0065668Y0127801D01*
X0066103Y0127283D01*
X0066526Y0126755D01*
X0066936Y0126217D01*
X0067332Y0125669D01*
X0067714Y0125111D01*
X0068083Y0124544D01*
X0068438Y0123968D01*
X0068779Y0123384D01*
X0069105Y0122791D01*
X0069416Y0122191D01*
X0069713Y0121583D01*
X0069995Y0120968D01*
X0070261Y0120346D01*
X0070512Y0119718D01*
X0070748Y0119084D01*
X0070968Y0118445D01*
X0071172Y0117800D01*
X0071361Y0117150D01*
X0071533Y0116496D01*
X0071689Y0115838D01*
X0071829Y0115176D01*
X0071953Y0114512D01*
X0072061Y0113844D01*
X0072152Y0113174D01*
X0072226Y0112501D01*
X0072284Y0111827D01*
X0072326Y0111152D01*
X0072351Y0110476D01*
X0072359Y0109800D01*
X0072351Y0109124D01*
X0072326Y0108448D01*
X0072284Y0107773D01*
X0072226Y0107099D01*
X0072152Y0106426D01*
X0072061Y0105756D01*
X0071953Y0105088D01*
X0071829Y0104424D01*
X0071689Y0103762D01*
X0071533Y0103104D01*
X0071361Y0102450D01*
X0071172Y0101800D01*
X0070968Y0101155D01*
X0070748Y0100516D01*
X0070512Y0099882D01*
X0070261Y0099254D01*
X0069995Y0098632D01*
X0069713Y0098017D01*
X0069416Y0097409D01*
X0069105Y0096809D01*
X0068779Y0096216D01*
X0068438Y0095632D01*
X0068083Y0095056D01*
X0067714Y0094489D01*
X0067332Y0093931D01*
X0066936Y0093383D01*
X0066526Y0092845D01*
X0066103Y0092317D01*
X0065668Y0091799D01*
X0065220Y0091293D01*
X0064760Y0090797D01*
X0064287Y0090313D01*
X0063803Y0089840D01*
X0063307Y0089380D01*
X0062801Y0088932D01*
X0062283Y0088497D01*
X0061755Y0088074D01*
X0061217Y0087664D01*
X0060669Y0087268D01*
X0060111Y0086886D01*
X0059544Y0086517D01*
X0058968Y0086162D01*
X0058384Y0085821D01*
X0057791Y0085495D01*
X0057191Y0085184D01*
X0056583Y0084887D01*
X0055968Y0084605D01*
X0055346Y0084339D01*
X0054718Y0084088D01*
X0054084Y0083852D01*
X0053445Y0083632D01*
X0052800Y0083428D01*
X0052150Y0083239D01*
X0051496Y0083067D01*
X0050838Y0082911D01*
X0050176Y0082771D01*
X0049512Y0082647D01*
X0048844Y0082539D01*
X0048174Y0082448D01*
X0047501Y0082374D01*
X0046827Y0082316D01*
X0046152Y0082274D01*
X0045476Y0082249D01*
X0044800Y0082241D01*
X0044124Y0082249D01*
X0043448Y0082274D01*
X0042773Y0082316D01*
X0042099Y0082374D01*
X0041426Y0082448D01*
X0040756Y0082539D01*
X0040088Y0082647D01*
X0039424Y0082771D01*
X0038762Y0082911D01*
X0038104Y0083067D01*
X0037450Y0083239D01*
X0036800Y0083428D01*
X0036155Y0083632D01*
X0035516Y0083852D01*
X0034882Y0084088D01*
X0034254Y0084339D01*
X0033632Y0084605D01*
X0033017Y0084887D01*
X0032409Y0085184D01*
X0031809Y0085495D01*
X0031216Y0085821D01*
X0030632Y0086162D01*
X0030056Y0086517D01*
X0029489Y0086886D01*
X0028931Y0087268D01*
X0028383Y0087664D01*
X0027845Y0088074D01*
X0027317Y0088497D01*
X0026799Y0088932D01*
X0026293Y0089380D01*
X0025797Y0089840D01*
X0025313Y0090313D01*
X0024840Y0090797D01*
X0024380Y0091293D01*
X0023932Y0091799D01*
X0023497Y0092317D01*
X0023074Y0092845D01*
X0022664Y0093383D01*
X0022268Y0093931D01*
X0021886Y0094489D01*
X0021517Y0095056D01*
X0021162Y0095632D01*
X0020821Y0096216D01*
X0020495Y0096809D01*
X0020184Y0097409D01*
X0019887Y0098017D01*
X0019605Y0098632D01*
X0019339Y0099254D01*
X0019088Y0099882D01*
X0018852Y0100516D01*
X0018632Y0101155D01*
X0018428Y0101800D01*
X0018239Y0102450D01*
X0018067Y0103104D01*
X0017911Y0103762D01*
X0017771Y0104424D01*
X0017647Y0105088D01*
X0017539Y0105756D01*
X0017448Y0106426D01*
X0017374Y0107099D01*
X0017316Y0107773D01*
X0017274Y0108448D01*
X0017249Y0109124D01*
X0017241Y0109800D01*
X0043300Y0175300D02*
X0043302Y0175344D01*
X0043308Y0175388D01*
X0043318Y0175431D01*
X0043331Y0175473D01*
X0043348Y0175514D01*
X0043369Y0175553D01*
X0043393Y0175590D01*
X0043420Y0175625D01*
X0043450Y0175657D01*
X0043483Y0175687D01*
X0043519Y0175713D01*
X0043556Y0175737D01*
X0043596Y0175756D01*
X0043637Y0175773D01*
X0043680Y0175785D01*
X0043723Y0175794D01*
X0043767Y0175799D01*
X0043811Y0175800D01*
X0043855Y0175797D01*
X0043899Y0175790D01*
X0043942Y0175779D01*
X0043984Y0175765D01*
X0044024Y0175747D01*
X0044063Y0175725D01*
X0044099Y0175701D01*
X0044133Y0175673D01*
X0044165Y0175642D01*
X0044194Y0175608D01*
X0044220Y0175572D01*
X0044242Y0175534D01*
X0044261Y0175494D01*
X0044276Y0175452D01*
X0044288Y0175410D01*
X0044296Y0175366D01*
X0044300Y0175322D01*
X0044300Y0175278D01*
X0044296Y0175234D01*
X0044288Y0175190D01*
X0044276Y0175148D01*
X0044261Y0175106D01*
X0044242Y0175066D01*
X0044220Y0175028D01*
X0044194Y0174992D01*
X0044165Y0174958D01*
X0044133Y0174927D01*
X0044099Y0174899D01*
X0044063Y0174875D01*
X0044024Y0174853D01*
X0043984Y0174835D01*
X0043942Y0174821D01*
X0043899Y0174810D01*
X0043855Y0174803D01*
X0043811Y0174800D01*
X0043767Y0174801D01*
X0043723Y0174806D01*
X0043680Y0174815D01*
X0043637Y0174827D01*
X0043596Y0174844D01*
X0043556Y0174863D01*
X0043519Y0174887D01*
X0043483Y0174913D01*
X0043450Y0174943D01*
X0043420Y0174975D01*
X0043393Y0175010D01*
X0043369Y0175047D01*
X0043348Y0175086D01*
X0043331Y0175127D01*
X0043318Y0175169D01*
X0043308Y0175212D01*
X0043302Y0175256D01*
X0043300Y0175300D01*
X0037300Y0238300D02*
X0037302Y0238344D01*
X0037308Y0238388D01*
X0037318Y0238431D01*
X0037331Y0238473D01*
X0037348Y0238514D01*
X0037369Y0238553D01*
X0037393Y0238590D01*
X0037420Y0238625D01*
X0037450Y0238657D01*
X0037483Y0238687D01*
X0037519Y0238713D01*
X0037556Y0238737D01*
X0037596Y0238756D01*
X0037637Y0238773D01*
X0037680Y0238785D01*
X0037723Y0238794D01*
X0037767Y0238799D01*
X0037811Y0238800D01*
X0037855Y0238797D01*
X0037899Y0238790D01*
X0037942Y0238779D01*
X0037984Y0238765D01*
X0038024Y0238747D01*
X0038063Y0238725D01*
X0038099Y0238701D01*
X0038133Y0238673D01*
X0038165Y0238642D01*
X0038194Y0238608D01*
X0038220Y0238572D01*
X0038242Y0238534D01*
X0038261Y0238494D01*
X0038276Y0238452D01*
X0038288Y0238410D01*
X0038296Y0238366D01*
X0038300Y0238322D01*
X0038300Y0238278D01*
X0038296Y0238234D01*
X0038288Y0238190D01*
X0038276Y0238148D01*
X0038261Y0238106D01*
X0038242Y0238066D01*
X0038220Y0238028D01*
X0038194Y0237992D01*
X0038165Y0237958D01*
X0038133Y0237927D01*
X0038099Y0237899D01*
X0038063Y0237875D01*
X0038024Y0237853D01*
X0037984Y0237835D01*
X0037942Y0237821D01*
X0037899Y0237810D01*
X0037855Y0237803D01*
X0037811Y0237800D01*
X0037767Y0237801D01*
X0037723Y0237806D01*
X0037680Y0237815D01*
X0037637Y0237827D01*
X0037596Y0237844D01*
X0037556Y0237863D01*
X0037519Y0237887D01*
X0037483Y0237913D01*
X0037450Y0237943D01*
X0037420Y0237975D01*
X0037393Y0238010D01*
X0037369Y0238047D01*
X0037348Y0238086D01*
X0037331Y0238127D01*
X0037318Y0238169D01*
X0037308Y0238212D01*
X0037302Y0238256D01*
X0037300Y0238300D01*
X0039154Y0252517D02*
X0086398Y0252517D01*
X0086398Y0291887D01*
X0039154Y0291887D01*
X0039154Y0252517D01*
X0112556Y0200910D02*
X0125154Y0200910D01*
X0125154Y0188312D02*
X0112556Y0188312D01*
X0111520Y0142780D02*
X0136520Y0142780D01*
X0136520Y0105024D02*
X0111520Y0105024D01*
X0109548Y0100044D02*
X0109548Y0005556D01*
X0078052Y0005556D01*
X0078052Y0100044D01*
X0109548Y0100044D01*
X0188997Y0132154D02*
X0218524Y0132154D01*
X0218524Y0192784D02*
X0188997Y0192784D01*
D15*
X0133265Y0181265D02*
X0133265Y0177131D01*
X0133265Y0181265D02*
X0119879Y0181265D01*
X0116335Y0177721D01*
X0116335Y0176934D01*
X0116335Y0168469D02*
X0116335Y0167879D01*
X0119879Y0164335D01*
X0133265Y0164335D01*
X0133265Y0168469D01*
X0133265Y0162265D02*
X0133265Y0158131D01*
X0133265Y0162265D02*
X0119879Y0162265D01*
X0116335Y0158721D01*
X0116335Y0157934D01*
X0116335Y0149469D02*
X0116335Y0148879D01*
X0119879Y0145335D01*
X0133265Y0145335D01*
X0133265Y0149469D01*
X0131296Y0157540D02*
X0131203Y0157697D01*
X0131106Y0157852D01*
X0131006Y0158005D01*
X0130901Y0158155D01*
X0130793Y0158302D01*
X0130682Y0158447D01*
X0130567Y0158589D01*
X0130448Y0158728D01*
X0130326Y0158865D01*
X0130201Y0158998D01*
X0130073Y0159128D01*
X0129941Y0159255D01*
X0129807Y0159379D01*
X0129669Y0159499D01*
X0129529Y0159616D01*
X0129386Y0159730D01*
X0129240Y0159840D01*
X0129091Y0159946D01*
X0128940Y0160049D01*
X0128787Y0160148D01*
X0128631Y0160243D01*
X0128472Y0160335D01*
X0128312Y0160422D01*
X0128150Y0160506D01*
X0127985Y0160586D01*
X0127819Y0160661D01*
X0127651Y0160733D01*
X0127481Y0160800D01*
X0127309Y0160864D01*
X0127136Y0160923D01*
X0126962Y0160977D01*
X0126786Y0161028D01*
X0126610Y0161074D01*
X0126432Y0161116D01*
X0126253Y0161154D01*
X0126073Y0161187D01*
X0125893Y0161216D01*
X0125712Y0161240D01*
X0125530Y0161260D01*
X0125348Y0161276D01*
X0125165Y0161287D01*
X0124983Y0161294D01*
X0124800Y0161296D01*
X0124617Y0161294D01*
X0124435Y0161287D01*
X0124252Y0161276D01*
X0124070Y0161260D01*
X0123888Y0161240D01*
X0123707Y0161216D01*
X0123527Y0161187D01*
X0123347Y0161154D01*
X0123168Y0161116D01*
X0122990Y0161074D01*
X0122814Y0161028D01*
X0122638Y0160977D01*
X0122464Y0160923D01*
X0122291Y0160864D01*
X0122119Y0160800D01*
X0121949Y0160733D01*
X0121781Y0160661D01*
X0121615Y0160586D01*
X0121450Y0160506D01*
X0121288Y0160422D01*
X0121128Y0160335D01*
X0120969Y0160243D01*
X0120813Y0160148D01*
X0120660Y0160049D01*
X0120509Y0159946D01*
X0120360Y0159840D01*
X0120214Y0159730D01*
X0120071Y0159616D01*
X0119931Y0159499D01*
X0119793Y0159379D01*
X0119659Y0159255D01*
X0119527Y0159128D01*
X0119399Y0158998D01*
X0119274Y0158865D01*
X0119152Y0158728D01*
X0119033Y0158589D01*
X0118918Y0158447D01*
X0118807Y0158302D01*
X0118699Y0158155D01*
X0118594Y0158005D01*
X0118494Y0157852D01*
X0118397Y0157697D01*
X0118304Y0157540D01*
X0118304Y0150060D02*
X0118397Y0149903D01*
X0118494Y0149748D01*
X0118594Y0149595D01*
X0118699Y0149445D01*
X0118807Y0149298D01*
X0118918Y0149153D01*
X0119033Y0149011D01*
X0119152Y0148872D01*
X0119274Y0148735D01*
X0119399Y0148602D01*
X0119527Y0148472D01*
X0119659Y0148345D01*
X0119793Y0148221D01*
X0119931Y0148101D01*
X0120071Y0147984D01*
X0120214Y0147870D01*
X0120360Y0147760D01*
X0120509Y0147654D01*
X0120660Y0147551D01*
X0120813Y0147452D01*
X0120969Y0147357D01*
X0121128Y0147265D01*
X0121288Y0147178D01*
X0121450Y0147094D01*
X0121615Y0147014D01*
X0121781Y0146939D01*
X0121949Y0146867D01*
X0122119Y0146800D01*
X0122291Y0146736D01*
X0122464Y0146677D01*
X0122638Y0146623D01*
X0122814Y0146572D01*
X0122990Y0146526D01*
X0123168Y0146484D01*
X0123347Y0146446D01*
X0123527Y0146413D01*
X0123707Y0146384D01*
X0123888Y0146360D01*
X0124070Y0146340D01*
X0124252Y0146324D01*
X0124435Y0146313D01*
X0124617Y0146306D01*
X0124800Y0146304D01*
X0124983Y0146306D01*
X0125165Y0146313D01*
X0125348Y0146324D01*
X0125530Y0146340D01*
X0125712Y0146360D01*
X0125893Y0146384D01*
X0126073Y0146413D01*
X0126253Y0146446D01*
X0126432Y0146484D01*
X0126610Y0146526D01*
X0126786Y0146572D01*
X0126962Y0146623D01*
X0127136Y0146677D01*
X0127309Y0146736D01*
X0127481Y0146800D01*
X0127651Y0146867D01*
X0127819Y0146939D01*
X0127985Y0147014D01*
X0128150Y0147094D01*
X0128312Y0147178D01*
X0128472Y0147265D01*
X0128631Y0147357D01*
X0128787Y0147452D01*
X0128940Y0147551D01*
X0129091Y0147654D01*
X0129240Y0147760D01*
X0129386Y0147870D01*
X0129529Y0147984D01*
X0129669Y0148101D01*
X0129807Y0148221D01*
X0129941Y0148345D01*
X0130073Y0148472D01*
X0130201Y0148602D01*
X0130326Y0148735D01*
X0130448Y0148872D01*
X0130567Y0149011D01*
X0130682Y0149153D01*
X0130793Y0149298D01*
X0130901Y0149445D01*
X0131006Y0149595D01*
X0131106Y0149748D01*
X0131203Y0149903D01*
X0131296Y0150060D01*
X0131296Y0176540D02*
X0131203Y0176697D01*
X0131106Y0176852D01*
X0131006Y0177005D01*
X0130901Y0177155D01*
X0130793Y0177302D01*
X0130682Y0177447D01*
X0130567Y0177589D01*
X0130448Y0177728D01*
X0130326Y0177865D01*
X0130201Y0177998D01*
X0130073Y0178128D01*
X0129941Y0178255D01*
X0129807Y0178379D01*
X0129669Y0178499D01*
X0129529Y0178616D01*
X0129386Y0178730D01*
X0129240Y0178840D01*
X0129091Y0178946D01*
X0128940Y0179049D01*
X0128787Y0179148D01*
X0128631Y0179243D01*
X0128472Y0179335D01*
X0128312Y0179422D01*
X0128150Y0179506D01*
X0127985Y0179586D01*
X0127819Y0179661D01*
X0127651Y0179733D01*
X0127481Y0179800D01*
X0127309Y0179864D01*
X0127136Y0179923D01*
X0126962Y0179977D01*
X0126786Y0180028D01*
X0126610Y0180074D01*
X0126432Y0180116D01*
X0126253Y0180154D01*
X0126073Y0180187D01*
X0125893Y0180216D01*
X0125712Y0180240D01*
X0125530Y0180260D01*
X0125348Y0180276D01*
X0125165Y0180287D01*
X0124983Y0180294D01*
X0124800Y0180296D01*
X0124617Y0180294D01*
X0124435Y0180287D01*
X0124252Y0180276D01*
X0124070Y0180260D01*
X0123888Y0180240D01*
X0123707Y0180216D01*
X0123527Y0180187D01*
X0123347Y0180154D01*
X0123168Y0180116D01*
X0122990Y0180074D01*
X0122814Y0180028D01*
X0122638Y0179977D01*
X0122464Y0179923D01*
X0122291Y0179864D01*
X0122119Y0179800D01*
X0121949Y0179733D01*
X0121781Y0179661D01*
X0121615Y0179586D01*
X0121450Y0179506D01*
X0121288Y0179422D01*
X0121128Y0179335D01*
X0120969Y0179243D01*
X0120813Y0179148D01*
X0120660Y0179049D01*
X0120509Y0178946D01*
X0120360Y0178840D01*
X0120214Y0178730D01*
X0120071Y0178616D01*
X0119931Y0178499D01*
X0119793Y0178379D01*
X0119659Y0178255D01*
X0119527Y0178128D01*
X0119399Y0177998D01*
X0119274Y0177865D01*
X0119152Y0177728D01*
X0119033Y0177589D01*
X0118918Y0177447D01*
X0118807Y0177302D01*
X0118699Y0177155D01*
X0118594Y0177005D01*
X0118494Y0176852D01*
X0118397Y0176697D01*
X0118304Y0176540D01*
X0118304Y0169060D02*
X0118397Y0168903D01*
X0118494Y0168748D01*
X0118594Y0168595D01*
X0118699Y0168445D01*
X0118807Y0168298D01*
X0118918Y0168153D01*
X0119033Y0168011D01*
X0119152Y0167872D01*
X0119274Y0167735D01*
X0119399Y0167602D01*
X0119527Y0167472D01*
X0119659Y0167345D01*
X0119793Y0167221D01*
X0119931Y0167101D01*
X0120071Y0166984D01*
X0120214Y0166870D01*
X0120360Y0166760D01*
X0120509Y0166654D01*
X0120660Y0166551D01*
X0120813Y0166452D01*
X0120969Y0166357D01*
X0121128Y0166265D01*
X0121288Y0166178D01*
X0121450Y0166094D01*
X0121615Y0166014D01*
X0121781Y0165939D01*
X0121949Y0165867D01*
X0122119Y0165800D01*
X0122291Y0165736D01*
X0122464Y0165677D01*
X0122638Y0165623D01*
X0122814Y0165572D01*
X0122990Y0165526D01*
X0123168Y0165484D01*
X0123347Y0165446D01*
X0123527Y0165413D01*
X0123707Y0165384D01*
X0123888Y0165360D01*
X0124070Y0165340D01*
X0124252Y0165324D01*
X0124435Y0165313D01*
X0124617Y0165306D01*
X0124800Y0165304D01*
X0124983Y0165306D01*
X0125165Y0165313D01*
X0125348Y0165324D01*
X0125530Y0165340D01*
X0125712Y0165360D01*
X0125893Y0165384D01*
X0126073Y0165413D01*
X0126253Y0165446D01*
X0126432Y0165484D01*
X0126610Y0165526D01*
X0126786Y0165572D01*
X0126962Y0165623D01*
X0127136Y0165677D01*
X0127309Y0165736D01*
X0127481Y0165800D01*
X0127651Y0165867D01*
X0127819Y0165939D01*
X0127985Y0166014D01*
X0128150Y0166094D01*
X0128312Y0166178D01*
X0128472Y0166265D01*
X0128631Y0166357D01*
X0128787Y0166452D01*
X0128940Y0166551D01*
X0129091Y0166654D01*
X0129240Y0166760D01*
X0129386Y0166870D01*
X0129529Y0166984D01*
X0129669Y0167101D01*
X0129807Y0167221D01*
X0129941Y0167345D01*
X0130073Y0167472D01*
X0130201Y0167602D01*
X0130326Y0167735D01*
X0130448Y0167872D01*
X0130567Y0168011D01*
X0130682Y0168153D01*
X0130793Y0168298D01*
X0130901Y0168445D01*
X0131006Y0168595D01*
X0131106Y0168748D01*
X0131203Y0168903D01*
X0131296Y0169060D01*
X0128721Y0101265D02*
X0115335Y0101265D01*
X0115335Y0097131D01*
X0115335Y0088469D02*
X0115335Y0084335D01*
X0128721Y0084335D01*
X0132265Y0087879D01*
X0132265Y0088666D01*
X0132265Y0097131D02*
X0132265Y0097721D01*
X0128721Y0101265D01*
X0130296Y0089060D02*
X0130203Y0088903D01*
X0130106Y0088748D01*
X0130006Y0088595D01*
X0129901Y0088445D01*
X0129793Y0088298D01*
X0129682Y0088153D01*
X0129567Y0088011D01*
X0129448Y0087872D01*
X0129326Y0087735D01*
X0129201Y0087602D01*
X0129073Y0087472D01*
X0128941Y0087345D01*
X0128807Y0087221D01*
X0128669Y0087101D01*
X0128529Y0086984D01*
X0128386Y0086870D01*
X0128240Y0086760D01*
X0128091Y0086654D01*
X0127940Y0086551D01*
X0127787Y0086452D01*
X0127631Y0086357D01*
X0127472Y0086265D01*
X0127312Y0086178D01*
X0127150Y0086094D01*
X0126985Y0086014D01*
X0126819Y0085939D01*
X0126651Y0085867D01*
X0126481Y0085800D01*
X0126309Y0085736D01*
X0126136Y0085677D01*
X0125962Y0085623D01*
X0125786Y0085572D01*
X0125610Y0085526D01*
X0125432Y0085484D01*
X0125253Y0085446D01*
X0125073Y0085413D01*
X0124893Y0085384D01*
X0124712Y0085360D01*
X0124530Y0085340D01*
X0124348Y0085324D01*
X0124165Y0085313D01*
X0123983Y0085306D01*
X0123800Y0085304D01*
X0123617Y0085306D01*
X0123435Y0085313D01*
X0123252Y0085324D01*
X0123070Y0085340D01*
X0122888Y0085360D01*
X0122707Y0085384D01*
X0122527Y0085413D01*
X0122347Y0085446D01*
X0122168Y0085484D01*
X0121990Y0085526D01*
X0121814Y0085572D01*
X0121638Y0085623D01*
X0121464Y0085677D01*
X0121291Y0085736D01*
X0121119Y0085800D01*
X0120949Y0085867D01*
X0120781Y0085939D01*
X0120615Y0086014D01*
X0120450Y0086094D01*
X0120288Y0086178D01*
X0120128Y0086265D01*
X0119969Y0086357D01*
X0119813Y0086452D01*
X0119660Y0086551D01*
X0119509Y0086654D01*
X0119360Y0086760D01*
X0119214Y0086870D01*
X0119071Y0086984D01*
X0118931Y0087101D01*
X0118793Y0087221D01*
X0118659Y0087345D01*
X0118527Y0087472D01*
X0118399Y0087602D01*
X0118274Y0087735D01*
X0118152Y0087872D01*
X0118033Y0088011D01*
X0117918Y0088153D01*
X0117807Y0088298D01*
X0117699Y0088445D01*
X0117594Y0088595D01*
X0117494Y0088748D01*
X0117397Y0088903D01*
X0117304Y0089060D01*
X0117304Y0096540D02*
X0117397Y0096697D01*
X0117494Y0096852D01*
X0117594Y0097005D01*
X0117699Y0097155D01*
X0117807Y0097302D01*
X0117918Y0097447D01*
X0118033Y0097589D01*
X0118152Y0097728D01*
X0118274Y0097865D01*
X0118399Y0097998D01*
X0118527Y0098128D01*
X0118659Y0098255D01*
X0118793Y0098379D01*
X0118931Y0098499D01*
X0119071Y0098616D01*
X0119214Y0098730D01*
X0119360Y0098840D01*
X0119509Y0098946D01*
X0119660Y0099049D01*
X0119813Y0099148D01*
X0119969Y0099243D01*
X0120128Y0099335D01*
X0120288Y0099422D01*
X0120450Y0099506D01*
X0120615Y0099586D01*
X0120781Y0099661D01*
X0120949Y0099733D01*
X0121119Y0099800D01*
X0121291Y0099864D01*
X0121464Y0099923D01*
X0121638Y0099977D01*
X0121814Y0100028D01*
X0121990Y0100074D01*
X0122168Y0100116D01*
X0122347Y0100154D01*
X0122527Y0100187D01*
X0122707Y0100216D01*
X0122888Y0100240D01*
X0123070Y0100260D01*
X0123252Y0100276D01*
X0123435Y0100287D01*
X0123617Y0100294D01*
X0123800Y0100296D01*
X0123983Y0100294D01*
X0124165Y0100287D01*
X0124348Y0100276D01*
X0124530Y0100260D01*
X0124712Y0100240D01*
X0124893Y0100216D01*
X0125073Y0100187D01*
X0125253Y0100154D01*
X0125432Y0100116D01*
X0125610Y0100074D01*
X0125786Y0100028D01*
X0125962Y0099977D01*
X0126136Y0099923D01*
X0126309Y0099864D01*
X0126481Y0099800D01*
X0126651Y0099733D01*
X0126819Y0099661D01*
X0126985Y0099586D01*
X0127150Y0099506D01*
X0127312Y0099422D01*
X0127472Y0099335D01*
X0127631Y0099243D01*
X0127787Y0099148D01*
X0127940Y0099049D01*
X0128091Y0098946D01*
X0128240Y0098840D01*
X0128386Y0098730D01*
X0128529Y0098616D01*
X0128669Y0098499D01*
X0128807Y0098379D01*
X0128941Y0098255D01*
X0129073Y0098128D01*
X0129201Y0097998D01*
X0129326Y0097865D01*
X0129448Y0097728D01*
X0129567Y0097589D01*
X0129682Y0097447D01*
X0129793Y0097302D01*
X0129901Y0097155D01*
X0130006Y0097005D01*
X0130106Y0096852D01*
X0130203Y0096697D01*
X0130296Y0096540D01*
X0068800Y0140524D02*
X0052265Y0140524D01*
X0052265Y0181076D01*
X0068800Y0181076D01*
X0062800Y0203524D02*
X0046265Y0203524D01*
X0046265Y0244076D01*
X0062800Y0244076D01*
D16*
X0083800Y0092800D02*
X0083800Y0090800D01*
X0084800Y0090800D01*
X0084800Y0078800D01*
X0083800Y0078800D01*
X0079800Y0078800D01*
X0079800Y0090800D01*
X0083800Y0090800D01*
X0083800Y0092800D02*
X0103800Y0092800D01*
X0103800Y0090800D01*
X0107800Y0090800D01*
X0107800Y0078800D01*
X0103800Y0078800D01*
X0102800Y0078800D01*
X0102800Y0090800D01*
X0103800Y0090800D01*
X0103800Y0078800D02*
X0103800Y0076800D01*
X0103800Y0028800D01*
X0103800Y0026800D01*
X0107800Y0026800D01*
X0107800Y0014800D01*
X0103800Y0014800D01*
X0103800Y0012800D01*
X0083800Y0012800D01*
X0083800Y0014800D01*
X0079800Y0014800D01*
X0079800Y0026800D01*
X0083800Y0026800D01*
X0084800Y0026800D01*
X0084800Y0014800D01*
X0083800Y0014800D01*
X0083800Y0026800D02*
X0083800Y0028800D01*
X0083800Y0076800D01*
X0083800Y0078800D01*
X0083800Y0076800D02*
X0103800Y0076800D01*
X0103800Y0028800D02*
X0083800Y0028800D01*
X0102800Y0026800D02*
X0102800Y0014800D01*
X0103800Y0014800D01*
X0103800Y0026800D02*
X0102800Y0026800D01*
M02*
