G75*
%MOIN*%
%OFA0B0*%
%FSLAX25Y25*%
%IPPOS*%
%LPD*%
%AMOC8*
5,1,8,0,0,1.08239X$1,22.5*
%
%ADD10C,0.00700*%
%ADD11R,0.02100X0.06700*%
%ADD12R,0.06700X0.02100*%
%ADD13R,0.05528X0.05528*%
%ADD14C,0.05528*%
%ADD15R,0.05118X0.05906*%
%ADD16R,0.10630X0.07087*%
%ADD17R,0.12598X0.07087*%
%ADD18R,0.03543X0.02756*%
%ADD19R,0.05906X0.05118*%
%ADD20OC8,0.06600*%
%ADD21R,0.10236X0.06299*%
%ADD22C,0.00591*%
%ADD23C,0.00492*%
%ADD24C,0.05669*%
%ADD25C,0.15748*%
%ADD26C,0.07087*%
%ADD27C,0.15591*%
%ADD28OC8,0.12000*%
%ADD29R,0.28543X0.40551*%
%ADD30R,0.11811X0.03937*%
%ADD31C,0.01600*%
%ADD32C,0.02962*%
D10*
X0235150Y0052455D02*
X0239354Y0052455D01*
X0237252Y0052455D02*
X0237252Y0046150D01*
X0241595Y0047201D02*
X0242646Y0046150D01*
X0244748Y0046150D01*
X0245799Y0047201D01*
X0245799Y0049303D01*
X0244748Y0050354D01*
X0242646Y0050354D01*
X0241595Y0049303D01*
X0241595Y0047201D01*
X0248041Y0046150D02*
X0251194Y0046150D01*
X0252245Y0047201D01*
X0252245Y0049303D01*
X0251194Y0050354D01*
X0248041Y0050354D01*
X0248041Y0044048D01*
D11*
X0240335Y0072427D03*
X0235335Y0072427D03*
X0230335Y0072427D03*
X0225335Y0072427D03*
X0220335Y0072427D03*
X0215335Y0072427D03*
X0210335Y0072427D03*
X0210335Y0092827D03*
X0215335Y0092827D03*
X0220335Y0092827D03*
X0225335Y0092827D03*
X0230335Y0092827D03*
X0235335Y0092827D03*
X0240335Y0092827D03*
D12*
X0171165Y0075320D03*
X0171165Y0070320D03*
X0171165Y0065320D03*
X0171165Y0060320D03*
X0171165Y0055320D03*
X0171165Y0050320D03*
X0171165Y0045320D03*
X0150765Y0045320D03*
X0150765Y0050320D03*
X0150765Y0055320D03*
X0150765Y0060320D03*
X0150765Y0065320D03*
X0150765Y0070320D03*
X0150765Y0075320D03*
D13*
X0139650Y0108902D03*
D14*
X0139650Y0118902D03*
X0139650Y0128902D03*
X0139650Y0138902D03*
X0108391Y0138902D03*
X0108391Y0128902D03*
X0108391Y0118902D03*
X0108391Y0108902D03*
D15*
X0095540Y0126800D03*
X0088060Y0126800D03*
X0120060Y0077800D03*
X0127540Y0077800D03*
X0147225Y0031383D03*
X0154706Y0031383D03*
X0167225Y0031383D03*
X0174706Y0031383D03*
X0159784Y0153989D03*
X0152304Y0153989D03*
X0152304Y0163674D03*
X0159784Y0163674D03*
X0159784Y0173359D03*
X0152304Y0173359D03*
X0152304Y0183044D03*
X0159784Y0183044D03*
X0159784Y0192729D03*
X0152304Y0192729D03*
X0152304Y0202414D03*
X0159784Y0202414D03*
X0065540Y0196800D03*
X0058060Y0196800D03*
X0058060Y0187800D03*
X0065540Y0187800D03*
D16*
X0222209Y0051351D03*
X0222209Y0034028D03*
D17*
X0206335Y0035666D03*
X0206335Y0057713D03*
D18*
X0225131Y0107792D03*
X0225131Y0112910D03*
D19*
X0235272Y0113430D03*
X0235272Y0105950D03*
X0135965Y0069060D03*
X0135965Y0061580D03*
X0135965Y0049060D03*
X0135965Y0041580D03*
X0095800Y0110060D03*
X0095800Y0117540D03*
X0025800Y0156060D03*
X0025800Y0163540D03*
X0024800Y0251060D03*
X0024800Y0258540D03*
D20*
X0021800Y0206800D03*
X0021800Y0195800D03*
X0021800Y0187800D03*
X0021800Y0176800D03*
X0092706Y0298013D03*
X0104517Y0298013D03*
X0116328Y0298013D03*
X0127800Y0297800D03*
X0140139Y0298013D03*
X0151950Y0298013D03*
X0163761Y0298013D03*
X0175572Y0298013D03*
X0187383Y0298013D03*
X0199194Y0298013D03*
X0211005Y0298013D03*
X0222816Y0298013D03*
X0236800Y0257800D03*
X0236800Y0247800D03*
X0236879Y0237517D03*
X0236800Y0227800D03*
X0243902Y0183438D03*
X0243902Y0168438D03*
X0243902Y0153438D03*
X0243902Y0138438D03*
X0243902Y0123438D03*
D21*
X0131887Y0153800D03*
X0117713Y0153800D03*
X0117713Y0172800D03*
X0131887Y0172800D03*
X0130887Y0092800D03*
X0116713Y0092800D03*
D22*
X0181733Y0134083D02*
X0189253Y0134083D01*
X0181733Y0134083D02*
X0181733Y0135855D01*
X0189253Y0135855D01*
X0189253Y0134083D01*
X0189253Y0134673D02*
X0181733Y0134673D01*
X0181733Y0135263D02*
X0189253Y0135263D01*
X0189253Y0135853D02*
X0181733Y0135853D01*
X0181733Y0139083D02*
X0189253Y0139083D01*
X0181733Y0139083D02*
X0181733Y0140855D01*
X0189253Y0140855D01*
X0189253Y0139083D01*
X0189253Y0139673D02*
X0181733Y0139673D01*
X0181733Y0140263D02*
X0189253Y0140263D01*
X0189253Y0140853D02*
X0181733Y0140853D01*
X0181733Y0144083D02*
X0189253Y0144083D01*
X0181733Y0144083D02*
X0181733Y0145855D01*
X0189253Y0145855D01*
X0189253Y0144083D01*
X0189253Y0144673D02*
X0181733Y0144673D01*
X0181733Y0145263D02*
X0189253Y0145263D01*
X0189253Y0145853D02*
X0181733Y0145853D01*
X0181733Y0149083D02*
X0189253Y0149083D01*
X0181733Y0149083D02*
X0181733Y0150855D01*
X0189253Y0150855D01*
X0189253Y0149083D01*
X0189253Y0149673D02*
X0181733Y0149673D01*
X0181733Y0150263D02*
X0189253Y0150263D01*
X0189253Y0150853D02*
X0181733Y0150853D01*
X0181733Y0154083D02*
X0189253Y0154083D01*
X0181733Y0154083D02*
X0181733Y0155855D01*
X0189253Y0155855D01*
X0189253Y0154083D01*
X0189253Y0154673D02*
X0181733Y0154673D01*
X0181733Y0155263D02*
X0189253Y0155263D01*
X0189253Y0155853D02*
X0181733Y0155853D01*
X0181733Y0159083D02*
X0189253Y0159083D01*
X0181733Y0159083D02*
X0181733Y0160855D01*
X0189253Y0160855D01*
X0189253Y0159083D01*
X0189253Y0159673D02*
X0181733Y0159673D01*
X0181733Y0160263D02*
X0189253Y0160263D01*
X0189253Y0160853D02*
X0181733Y0160853D01*
X0181733Y0164083D02*
X0189253Y0164083D01*
X0181733Y0164083D02*
X0181733Y0165855D01*
X0189253Y0165855D01*
X0189253Y0164083D01*
X0189253Y0164673D02*
X0181733Y0164673D01*
X0181733Y0165263D02*
X0189253Y0165263D01*
X0189253Y0165853D02*
X0181733Y0165853D01*
X0181733Y0169083D02*
X0189253Y0169083D01*
X0181733Y0169083D02*
X0181733Y0170855D01*
X0189253Y0170855D01*
X0189253Y0169083D01*
X0189253Y0169673D02*
X0181733Y0169673D01*
X0181733Y0170263D02*
X0189253Y0170263D01*
X0189253Y0170853D02*
X0181733Y0170853D01*
X0181733Y0174083D02*
X0189253Y0174083D01*
X0181733Y0174083D02*
X0181733Y0175855D01*
X0189253Y0175855D01*
X0189253Y0174083D01*
X0189253Y0174673D02*
X0181733Y0174673D01*
X0181733Y0175263D02*
X0189253Y0175263D01*
X0189253Y0175853D02*
X0181733Y0175853D01*
X0181733Y0179083D02*
X0189253Y0179083D01*
X0181733Y0179083D02*
X0181733Y0180855D01*
X0189253Y0180855D01*
X0189253Y0179083D01*
X0189253Y0179673D02*
X0181733Y0179673D01*
X0181733Y0180263D02*
X0189253Y0180263D01*
X0189253Y0180853D02*
X0181733Y0180853D01*
X0181733Y0184083D02*
X0189253Y0184083D01*
X0181733Y0184083D02*
X0181733Y0185855D01*
X0189253Y0185855D01*
X0189253Y0184083D01*
X0189253Y0184673D02*
X0181733Y0184673D01*
X0181733Y0185263D02*
X0189253Y0185263D01*
X0189253Y0185853D02*
X0181733Y0185853D01*
X0181733Y0189083D02*
X0189253Y0189083D01*
X0181733Y0189083D02*
X0181733Y0190855D01*
X0189253Y0190855D01*
X0189253Y0189083D01*
X0189253Y0189673D02*
X0181733Y0189673D01*
X0181733Y0190263D02*
X0189253Y0190263D01*
X0189253Y0190853D02*
X0181733Y0190853D01*
X0218268Y0189083D02*
X0225788Y0189083D01*
X0218268Y0189083D02*
X0218268Y0190855D01*
X0225788Y0190855D01*
X0225788Y0189083D01*
X0225788Y0189673D02*
X0218268Y0189673D01*
X0218268Y0190263D02*
X0225788Y0190263D01*
X0225788Y0190853D02*
X0218268Y0190853D01*
X0218268Y0184083D02*
X0225788Y0184083D01*
X0218268Y0184083D02*
X0218268Y0185855D01*
X0225788Y0185855D01*
X0225788Y0184083D01*
X0225788Y0184673D02*
X0218268Y0184673D01*
X0218268Y0185263D02*
X0225788Y0185263D01*
X0225788Y0185853D02*
X0218268Y0185853D01*
X0218268Y0179083D02*
X0225788Y0179083D01*
X0218268Y0179083D02*
X0218268Y0180855D01*
X0225788Y0180855D01*
X0225788Y0179083D01*
X0225788Y0179673D02*
X0218268Y0179673D01*
X0218268Y0180263D02*
X0225788Y0180263D01*
X0225788Y0180853D02*
X0218268Y0180853D01*
X0218268Y0174083D02*
X0225788Y0174083D01*
X0218268Y0174083D02*
X0218268Y0175855D01*
X0225788Y0175855D01*
X0225788Y0174083D01*
X0225788Y0174673D02*
X0218268Y0174673D01*
X0218268Y0175263D02*
X0225788Y0175263D01*
X0225788Y0175853D02*
X0218268Y0175853D01*
X0218268Y0169083D02*
X0225788Y0169083D01*
X0218268Y0169083D02*
X0218268Y0170855D01*
X0225788Y0170855D01*
X0225788Y0169083D01*
X0225788Y0169673D02*
X0218268Y0169673D01*
X0218268Y0170263D02*
X0225788Y0170263D01*
X0225788Y0170853D02*
X0218268Y0170853D01*
X0218268Y0164083D02*
X0225788Y0164083D01*
X0218268Y0164083D02*
X0218268Y0165855D01*
X0225788Y0165855D01*
X0225788Y0164083D01*
X0225788Y0164673D02*
X0218268Y0164673D01*
X0218268Y0165263D02*
X0225788Y0165263D01*
X0225788Y0165853D02*
X0218268Y0165853D01*
X0218268Y0159083D02*
X0225788Y0159083D01*
X0218268Y0159083D02*
X0218268Y0160855D01*
X0225788Y0160855D01*
X0225788Y0159083D01*
X0225788Y0159673D02*
X0218268Y0159673D01*
X0218268Y0160263D02*
X0225788Y0160263D01*
X0225788Y0160853D02*
X0218268Y0160853D01*
X0218268Y0154083D02*
X0225788Y0154083D01*
X0218268Y0154083D02*
X0218268Y0155855D01*
X0225788Y0155855D01*
X0225788Y0154083D01*
X0225788Y0154673D02*
X0218268Y0154673D01*
X0218268Y0155263D02*
X0225788Y0155263D01*
X0225788Y0155853D02*
X0218268Y0155853D01*
X0218268Y0149083D02*
X0225788Y0149083D01*
X0218268Y0149083D02*
X0218268Y0150855D01*
X0225788Y0150855D01*
X0225788Y0149083D01*
X0225788Y0149673D02*
X0218268Y0149673D01*
X0218268Y0150263D02*
X0225788Y0150263D01*
X0225788Y0150853D02*
X0218268Y0150853D01*
X0218268Y0144083D02*
X0225788Y0144083D01*
X0218268Y0144083D02*
X0218268Y0145855D01*
X0225788Y0145855D01*
X0225788Y0144083D01*
X0225788Y0144673D02*
X0218268Y0144673D01*
X0218268Y0145263D02*
X0225788Y0145263D01*
X0225788Y0145853D02*
X0218268Y0145853D01*
X0218268Y0139083D02*
X0225788Y0139083D01*
X0218268Y0139083D02*
X0218268Y0140855D01*
X0225788Y0140855D01*
X0225788Y0139083D01*
X0225788Y0139673D02*
X0218268Y0139673D01*
X0218268Y0140263D02*
X0225788Y0140263D01*
X0225788Y0140853D02*
X0218268Y0140853D01*
X0218268Y0134083D02*
X0225788Y0134083D01*
X0218268Y0134083D02*
X0218268Y0135855D01*
X0225788Y0135855D01*
X0225788Y0134083D01*
X0225788Y0134673D02*
X0218268Y0134673D01*
X0218268Y0135263D02*
X0225788Y0135263D01*
X0225788Y0135853D02*
X0218268Y0135853D01*
D23*
X0130145Y0191510D02*
X0124259Y0191510D01*
X0130145Y0191510D02*
X0130145Y0190034D01*
X0124259Y0190034D01*
X0124259Y0191510D01*
X0124259Y0190525D02*
X0130145Y0190525D01*
X0130145Y0191016D02*
X0124259Y0191016D01*
X0124259Y0191507D02*
X0130145Y0191507D01*
X0130145Y0194069D02*
X0124259Y0194069D01*
X0130145Y0194069D02*
X0130145Y0192593D01*
X0124259Y0192593D01*
X0124259Y0194069D01*
X0124259Y0193084D02*
X0130145Y0193084D01*
X0130145Y0193575D02*
X0124259Y0193575D01*
X0124259Y0194066D02*
X0130145Y0194066D01*
X0130145Y0196629D02*
X0124259Y0196629D01*
X0130145Y0196629D02*
X0130145Y0195153D01*
X0124259Y0195153D01*
X0124259Y0196629D01*
X0124259Y0195644D02*
X0130145Y0195644D01*
X0130145Y0196135D02*
X0124259Y0196135D01*
X0124259Y0196626D02*
X0130145Y0196626D01*
X0130145Y0199188D02*
X0124259Y0199188D01*
X0130145Y0199188D02*
X0130145Y0197712D01*
X0124259Y0197712D01*
X0124259Y0199188D01*
X0124259Y0198203D02*
X0130145Y0198203D01*
X0130145Y0198694D02*
X0124259Y0198694D01*
X0124259Y0199185D02*
X0130145Y0199185D01*
X0113452Y0199188D02*
X0107566Y0199188D01*
X0113452Y0199188D02*
X0113452Y0197712D01*
X0107566Y0197712D01*
X0107566Y0199188D01*
X0107566Y0198203D02*
X0113452Y0198203D01*
X0113452Y0198694D02*
X0107566Y0198694D01*
X0107566Y0199185D02*
X0113452Y0199185D01*
X0113452Y0196629D02*
X0107566Y0196629D01*
X0113452Y0196629D02*
X0113452Y0195153D01*
X0107566Y0195153D01*
X0107566Y0196629D01*
X0107566Y0195644D02*
X0113452Y0195644D01*
X0113452Y0196135D02*
X0107566Y0196135D01*
X0107566Y0196626D02*
X0113452Y0196626D01*
X0113452Y0194069D02*
X0107566Y0194069D01*
X0113452Y0194069D02*
X0113452Y0192593D01*
X0107566Y0192593D01*
X0107566Y0194069D01*
X0107566Y0193084D02*
X0113452Y0193084D01*
X0113452Y0193575D02*
X0107566Y0193575D01*
X0107566Y0194066D02*
X0113452Y0194066D01*
X0113452Y0191510D02*
X0107566Y0191510D01*
X0113452Y0191510D02*
X0113452Y0190034D01*
X0107566Y0190034D01*
X0107566Y0191510D01*
X0107566Y0190525D02*
X0113452Y0190525D01*
X0113452Y0191016D02*
X0107566Y0191016D01*
X0107566Y0191507D02*
X0113452Y0191507D01*
D24*
X0115044Y0212217D02*
X0115044Y0217887D01*
X0105044Y0217887D02*
X0105044Y0212217D01*
X0125044Y0212217D02*
X0125044Y0217887D01*
X0135044Y0217887D02*
X0135044Y0212217D01*
X0145044Y0212217D02*
X0145044Y0217887D01*
X0155044Y0217887D02*
X0155044Y0212217D01*
X0165044Y0212217D02*
X0165044Y0217887D01*
X0175044Y0217887D02*
X0175044Y0212217D01*
X0185044Y0212217D02*
X0185044Y0217887D01*
X0195044Y0217887D02*
X0195044Y0212217D01*
X0205044Y0212217D02*
X0205044Y0217887D01*
X0215044Y0217887D02*
X0215044Y0212217D01*
X0215044Y0272217D02*
X0215044Y0277887D01*
X0205044Y0277887D02*
X0205044Y0272217D01*
X0195044Y0272217D02*
X0195044Y0277887D01*
X0185044Y0277887D02*
X0185044Y0272217D01*
X0175044Y0272217D02*
X0175044Y0277887D01*
X0165044Y0277887D02*
X0165044Y0272217D01*
X0155044Y0272217D02*
X0155044Y0277887D01*
X0145044Y0277887D02*
X0145044Y0272217D01*
X0135044Y0272217D02*
X0135044Y0277887D01*
X0125044Y0277887D02*
X0125044Y0272217D01*
X0115044Y0272217D02*
X0115044Y0277887D01*
X0105044Y0277887D02*
X0105044Y0272217D01*
D25*
X0052674Y0109800D02*
X0036926Y0109800D01*
X0036926Y0052800D02*
X0052674Y0052800D01*
D26*
X0090335Y0262359D03*
X0090335Y0272202D03*
X0090335Y0282044D03*
D27*
X0062776Y0289524D03*
X0062776Y0254879D03*
D28*
X0093800Y0095241D03*
X0093800Y0010359D03*
D29*
X0084942Y0160800D03*
X0078942Y0223800D03*
D30*
X0038391Y0213800D03*
X0038391Y0233800D03*
X0044391Y0170800D03*
X0044391Y0150800D03*
D31*
X0005500Y0005500D02*
X0005500Y0306061D01*
X0257801Y0306061D01*
X0257801Y0005500D01*
X0101952Y0005500D01*
X0102811Y0006359D01*
X0110155Y0006359D01*
X0111625Y0006968D01*
X0127800Y0023143D01*
X0135409Y0015534D01*
X0136534Y0014409D01*
X0138004Y0013800D01*
X0179596Y0013800D01*
X0181066Y0014409D01*
X0182191Y0015534D01*
X0194191Y0027534D01*
X0194800Y0029004D01*
X0194800Y0055143D01*
X0196836Y0057179D01*
X0196836Y0053534D01*
X0197323Y0052357D01*
X0198224Y0051457D01*
X0199400Y0050970D01*
X0213271Y0050970D01*
X0213694Y0051145D01*
X0213694Y0047171D01*
X0214182Y0045995D01*
X0215082Y0045095D01*
X0216258Y0044608D01*
X0228161Y0044608D01*
X0229337Y0045095D01*
X0230237Y0045995D01*
X0230724Y0047171D01*
X0230724Y0055531D01*
X0230237Y0056707D01*
X0229337Y0057607D01*
X0228161Y0058094D01*
X0227715Y0058094D01*
X0228768Y0059148D01*
X0229450Y0060793D01*
X0233726Y0065070D01*
X0234061Y0065877D01*
X0237022Y0065877D01*
X0237835Y0066214D01*
X0238649Y0065877D01*
X0242022Y0065877D01*
X0243198Y0066364D01*
X0244098Y0067264D01*
X0244585Y0068440D01*
X0244585Y0070929D01*
X0253066Y0079409D01*
X0254191Y0080534D01*
X0254800Y0082004D01*
X0254800Y0117336D01*
X0254191Y0118806D01*
X0250402Y0122595D01*
X0250402Y0125746D01*
X0253066Y0128409D01*
X0254191Y0129534D01*
X0254800Y0131004D01*
X0254800Y0213596D01*
X0254191Y0215066D01*
X0252800Y0216457D01*
X0252800Y0246596D01*
X0252191Y0248066D01*
X0243300Y0256957D01*
X0243300Y0260492D01*
X0239492Y0264300D01*
X0234108Y0264300D01*
X0230300Y0260492D01*
X0230300Y0255108D01*
X0233598Y0251810D01*
X0231700Y0249912D01*
X0231700Y0247800D01*
X0236800Y0247800D01*
X0234800Y0247800D01*
X0228800Y0253800D01*
X0228800Y0260800D01*
X0231800Y0263800D01*
X0239800Y0263800D01*
X0255800Y0247800D01*
X0255800Y0064800D01*
X0257801Y0064142D02*
X0232799Y0064142D01*
X0234004Y0065740D02*
X0257801Y0065740D01*
X0257801Y0067339D02*
X0244129Y0067339D01*
X0244585Y0068937D02*
X0257801Y0068937D01*
X0257801Y0070536D02*
X0244585Y0070536D01*
X0245791Y0072134D02*
X0257801Y0072134D01*
X0257801Y0073733D02*
X0247390Y0073733D01*
X0248988Y0075332D02*
X0257801Y0075332D01*
X0257801Y0076930D02*
X0250587Y0076930D01*
X0252185Y0078529D02*
X0257801Y0078529D01*
X0257801Y0080127D02*
X0253784Y0080127D01*
X0254685Y0081726D02*
X0257801Y0081726D01*
X0257801Y0083324D02*
X0254800Y0083324D01*
X0254800Y0084923D02*
X0257801Y0084923D01*
X0257801Y0086521D02*
X0254800Y0086521D01*
X0254800Y0088120D02*
X0257801Y0088120D01*
X0257801Y0089718D02*
X0254800Y0089718D01*
X0254800Y0091317D02*
X0257801Y0091317D01*
X0257801Y0092915D02*
X0254800Y0092915D01*
X0254800Y0094514D02*
X0257801Y0094514D01*
X0257801Y0096112D02*
X0254800Y0096112D01*
X0254800Y0097711D02*
X0257801Y0097711D01*
X0257801Y0099309D02*
X0254800Y0099309D01*
X0254800Y0100908D02*
X0257801Y0100908D01*
X0257801Y0102506D02*
X0254800Y0102506D01*
X0254800Y0104105D02*
X0257801Y0104105D01*
X0257801Y0105703D02*
X0254800Y0105703D01*
X0254800Y0107302D02*
X0257801Y0107302D01*
X0257801Y0108900D02*
X0254800Y0108900D01*
X0254800Y0110499D02*
X0257801Y0110499D01*
X0257801Y0112097D02*
X0254800Y0112097D01*
X0254800Y0113696D02*
X0257801Y0113696D01*
X0257801Y0115294D02*
X0254800Y0115294D01*
X0254800Y0116893D02*
X0257801Y0116893D01*
X0257801Y0118491D02*
X0254321Y0118491D01*
X0252907Y0120090D02*
X0257801Y0120090D01*
X0257801Y0121688D02*
X0251309Y0121688D01*
X0250402Y0123287D02*
X0257801Y0123287D01*
X0257801Y0124885D02*
X0250402Y0124885D01*
X0251141Y0126484D02*
X0257801Y0126484D01*
X0257801Y0128082D02*
X0252739Y0128082D01*
X0254252Y0129681D02*
X0257801Y0129681D01*
X0257801Y0131279D02*
X0254800Y0131279D01*
X0254800Y0132878D02*
X0257801Y0132878D01*
X0257801Y0134476D02*
X0254800Y0134476D01*
X0254800Y0136075D02*
X0257801Y0136075D01*
X0257801Y0137673D02*
X0254800Y0137673D01*
X0254800Y0139272D02*
X0257801Y0139272D01*
X0257801Y0140870D02*
X0254800Y0140870D01*
X0254800Y0142469D02*
X0257801Y0142469D01*
X0257801Y0144068D02*
X0254800Y0144068D01*
X0254800Y0145666D02*
X0257801Y0145666D01*
X0257801Y0147265D02*
X0254800Y0147265D01*
X0254800Y0148863D02*
X0257801Y0148863D01*
X0257801Y0150462D02*
X0254800Y0150462D01*
X0254800Y0152060D02*
X0257801Y0152060D01*
X0257801Y0153659D02*
X0254800Y0153659D01*
X0254800Y0155257D02*
X0257801Y0155257D01*
X0257801Y0156856D02*
X0254800Y0156856D01*
X0254800Y0158454D02*
X0257801Y0158454D01*
X0257801Y0160053D02*
X0254800Y0160053D01*
X0254800Y0161651D02*
X0257801Y0161651D01*
X0257801Y0163250D02*
X0254800Y0163250D01*
X0254800Y0164848D02*
X0257801Y0164848D01*
X0257801Y0166447D02*
X0254800Y0166447D01*
X0254800Y0168045D02*
X0257801Y0168045D01*
X0257801Y0169644D02*
X0254800Y0169644D01*
X0254800Y0171242D02*
X0257801Y0171242D01*
X0257801Y0172841D02*
X0254800Y0172841D01*
X0254800Y0174439D02*
X0257801Y0174439D01*
X0257801Y0176038D02*
X0254800Y0176038D01*
X0254800Y0177636D02*
X0257801Y0177636D01*
X0257801Y0179235D02*
X0254800Y0179235D01*
X0254800Y0180833D02*
X0257801Y0180833D01*
X0257801Y0182432D02*
X0254800Y0182432D01*
X0254800Y0184030D02*
X0257801Y0184030D01*
X0257801Y0185629D02*
X0254800Y0185629D01*
X0254800Y0187227D02*
X0257801Y0187227D01*
X0257801Y0188826D02*
X0254800Y0188826D01*
X0254800Y0190424D02*
X0257801Y0190424D01*
X0257801Y0192023D02*
X0254800Y0192023D01*
X0254800Y0193621D02*
X0257801Y0193621D01*
X0257801Y0195220D02*
X0254800Y0195220D01*
X0254800Y0196818D02*
X0257801Y0196818D01*
X0257801Y0198417D02*
X0254800Y0198417D01*
X0254800Y0200015D02*
X0257801Y0200015D01*
X0257801Y0201614D02*
X0254800Y0201614D01*
X0254800Y0203212D02*
X0257801Y0203212D01*
X0257801Y0204811D02*
X0254800Y0204811D01*
X0254800Y0206409D02*
X0257801Y0206409D01*
X0257801Y0208008D02*
X0254800Y0208008D01*
X0254800Y0209606D02*
X0257801Y0209606D01*
X0257801Y0211205D02*
X0254800Y0211205D01*
X0254800Y0212803D02*
X0257801Y0212803D01*
X0257801Y0214402D02*
X0254466Y0214402D01*
X0253256Y0216001D02*
X0257801Y0216001D01*
X0257801Y0217599D02*
X0252800Y0217599D01*
X0252800Y0219198D02*
X0257801Y0219198D01*
X0257801Y0220796D02*
X0252800Y0220796D01*
X0252800Y0222395D02*
X0257801Y0222395D01*
X0257801Y0223993D02*
X0252800Y0223993D01*
X0252800Y0225592D02*
X0257801Y0225592D01*
X0257801Y0227190D02*
X0252800Y0227190D01*
X0252800Y0228789D02*
X0257801Y0228789D01*
X0257801Y0230387D02*
X0252800Y0230387D01*
X0252800Y0231986D02*
X0257801Y0231986D01*
X0257801Y0233584D02*
X0252800Y0233584D01*
X0252800Y0235183D02*
X0257801Y0235183D01*
X0257801Y0236781D02*
X0252800Y0236781D01*
X0252800Y0238380D02*
X0257801Y0238380D01*
X0257801Y0239978D02*
X0252800Y0239978D01*
X0252800Y0241577D02*
X0257801Y0241577D01*
X0257801Y0243175D02*
X0252800Y0243175D01*
X0252800Y0244774D02*
X0257801Y0244774D01*
X0257801Y0246372D02*
X0252800Y0246372D01*
X0252230Y0247971D02*
X0257801Y0247971D01*
X0257801Y0249569D02*
X0250688Y0249569D01*
X0249089Y0251168D02*
X0257801Y0251168D01*
X0257801Y0252766D02*
X0247491Y0252766D01*
X0245892Y0254365D02*
X0257801Y0254365D01*
X0257801Y0255963D02*
X0244294Y0255963D01*
X0243300Y0257562D02*
X0257801Y0257562D01*
X0257801Y0259160D02*
X0243300Y0259160D01*
X0243034Y0260759D02*
X0257801Y0260759D01*
X0257801Y0262357D02*
X0241435Y0262357D01*
X0239837Y0263956D02*
X0257801Y0263956D01*
X0257801Y0265554D02*
X0222211Y0265554D01*
X0222066Y0265409D02*
X0223191Y0266534D01*
X0223800Y0268004D01*
X0223800Y0291513D01*
X0225508Y0291513D01*
X0229316Y0295320D01*
X0229316Y0300705D01*
X0225508Y0304513D01*
X0220123Y0304513D01*
X0216910Y0301299D01*
X0213697Y0304513D01*
X0208312Y0304513D01*
X0205099Y0301299D01*
X0201886Y0304513D01*
X0196501Y0304513D01*
X0193288Y0301299D01*
X0190075Y0304513D01*
X0184690Y0304513D01*
X0181477Y0301299D01*
X0178264Y0304513D01*
X0172879Y0304513D01*
X0169666Y0301299D01*
X0166453Y0304513D01*
X0161068Y0304513D01*
X0157855Y0301299D01*
X0154642Y0304513D01*
X0149257Y0304513D01*
X0146044Y0301299D01*
X0142831Y0304513D01*
X0137446Y0304513D01*
X0133863Y0300929D01*
X0130492Y0304300D01*
X0125108Y0304300D01*
X0121300Y0300492D01*
X0121300Y0300253D01*
X0118440Y0303113D01*
X0116328Y0303113D01*
X0116328Y0298013D01*
X0116327Y0298013D01*
X0116327Y0298013D01*
X0111228Y0298013D01*
X0111228Y0300125D01*
X0114215Y0303113D01*
X0116327Y0303113D01*
X0116327Y0298013D01*
X0111228Y0298013D01*
X0111228Y0295900D01*
X0114215Y0292913D01*
X0116327Y0292913D01*
X0116327Y0298012D01*
X0116328Y0298012D01*
X0116328Y0292913D01*
X0118440Y0292913D01*
X0121300Y0295773D01*
X0121300Y0295108D01*
X0125108Y0291300D01*
X0130492Y0291300D01*
X0134076Y0294883D01*
X0137446Y0291513D01*
X0139856Y0291513D01*
X0139143Y0290800D01*
X0104138Y0290800D01*
X0102668Y0290191D01*
X0095578Y0283101D01*
X0095547Y0283295D01*
X0095287Y0284095D01*
X0094905Y0284845D01*
X0094411Y0285525D01*
X0093816Y0286120D01*
X0093136Y0286614D01*
X0092387Y0286996D01*
X0091587Y0287256D01*
X0090756Y0287387D01*
X0090520Y0287387D01*
X0090520Y0282228D01*
X0090151Y0282228D01*
X0090151Y0281860D01*
X0084992Y0281860D01*
X0084992Y0281624D01*
X0085124Y0280793D01*
X0085384Y0279993D01*
X0085765Y0279244D01*
X0086260Y0278563D01*
X0086791Y0278032D01*
X0086516Y0277918D01*
X0084619Y0276021D01*
X0083592Y0273543D01*
X0083592Y0270860D01*
X0084619Y0268382D01*
X0085720Y0267280D01*
X0084619Y0266179D01*
X0083592Y0263700D01*
X0083592Y0261018D01*
X0084619Y0258539D01*
X0086516Y0256642D01*
X0088994Y0255616D01*
X0091677Y0255616D01*
X0094155Y0256642D01*
X0095800Y0258287D01*
X0095800Y0209004D01*
X0096409Y0207534D01*
X0101534Y0202409D01*
X0103004Y0201800D01*
X0109143Y0201800D01*
X0109709Y0201234D01*
X0107296Y0201234D01*
X0106776Y0201094D01*
X0106309Y0200825D01*
X0105928Y0200444D01*
X0105659Y0199978D01*
X0105520Y0199457D01*
X0105520Y0198450D01*
X0106628Y0198450D01*
X0106627Y0198450D01*
X0105520Y0198450D01*
X0105520Y0197442D01*
X0105593Y0197170D01*
X0105520Y0196898D01*
X0105520Y0196897D01*
X0104644Y0196022D01*
X0104127Y0194772D01*
X0102484Y0194772D01*
X0097191Y0200066D01*
X0096066Y0201191D01*
X0094596Y0201800D01*
X0093732Y0201800D01*
X0093908Y0201847D01*
X0094319Y0202084D01*
X0094654Y0202419D01*
X0094891Y0202830D01*
X0095013Y0203287D01*
X0095013Y0223000D01*
X0079742Y0223000D01*
X0079742Y0224600D01*
X0095013Y0224600D01*
X0095013Y0244313D01*
X0094891Y0244770D01*
X0094654Y0245181D01*
X0094319Y0245516D01*
X0093908Y0245753D01*
X0093450Y0245876D01*
X0079742Y0245876D01*
X0079742Y0224600D01*
X0078142Y0224600D01*
X0078142Y0245876D01*
X0069173Y0245876D01*
X0069528Y0246080D01*
X0071575Y0248127D01*
X0073022Y0250635D01*
X0073772Y0253431D01*
X0073772Y0256326D01*
X0073022Y0259123D01*
X0071575Y0261630D01*
X0069528Y0263677D01*
X0067020Y0265125D01*
X0064224Y0265874D01*
X0061329Y0265874D01*
X0058532Y0265125D01*
X0056025Y0263677D01*
X0053978Y0261630D01*
X0052530Y0259123D01*
X0051781Y0256326D01*
X0051781Y0253431D01*
X0052530Y0250635D01*
X0053978Y0248127D01*
X0056025Y0246080D01*
X0058532Y0244633D01*
X0061329Y0243883D01*
X0062870Y0243883D01*
X0062870Y0224600D01*
X0078142Y0224600D01*
X0078142Y0223000D01*
X0062870Y0223000D01*
X0062870Y0207387D01*
X0053066Y0217191D01*
X0051596Y0217800D01*
X0046790Y0217800D01*
X0046109Y0218481D01*
X0044933Y0218968D01*
X0031849Y0218968D01*
X0030672Y0218481D01*
X0029772Y0217581D01*
X0029285Y0216405D01*
X0029285Y0211195D01*
X0029772Y0210019D01*
X0030672Y0209119D01*
X0031849Y0208631D01*
X0044933Y0208631D01*
X0046109Y0209119D01*
X0046790Y0209800D01*
X0049143Y0209800D01*
X0057390Y0201553D01*
X0055264Y0201553D01*
X0054806Y0201430D01*
X0054396Y0201193D01*
X0054060Y0200858D01*
X0053823Y0200448D01*
X0053701Y0199990D01*
X0053701Y0197280D01*
X0057580Y0197280D01*
X0057580Y0196320D01*
X0058539Y0196320D01*
X0058539Y0188280D01*
X0057580Y0188280D01*
X0057580Y0192047D01*
X0057580Y0196320D01*
X0053701Y0196320D01*
X0053701Y0193610D01*
X0053823Y0193152D01*
X0054060Y0192742D01*
X0054396Y0192407D01*
X0054581Y0192300D01*
X0054396Y0192193D01*
X0054060Y0191858D01*
X0053823Y0191448D01*
X0053701Y0190990D01*
X0053701Y0188280D01*
X0057580Y0188280D01*
X0057580Y0187320D01*
X0058539Y0187320D01*
X0058539Y0183047D01*
X0060263Y0183047D01*
X0060268Y0183035D01*
X0060540Y0182763D01*
X0060540Y0180800D01*
X0026992Y0180800D01*
X0024502Y0183290D01*
X0026900Y0185688D01*
X0026900Y0187800D01*
X0026900Y0189912D01*
X0025012Y0191800D01*
X0026900Y0193688D01*
X0026900Y0195800D01*
X0026900Y0197912D01*
X0024502Y0200310D01*
X0028300Y0204108D01*
X0028300Y0209492D01*
X0025800Y0211992D01*
X0025800Y0217143D01*
X0037288Y0228631D01*
X0044933Y0228631D01*
X0046109Y0229119D01*
X0047009Y0230019D01*
X0047496Y0231195D01*
X0047496Y0236405D01*
X0047009Y0237581D01*
X0046109Y0238481D01*
X0044933Y0238968D01*
X0040800Y0238968D01*
X0040800Y0239855D01*
X0040191Y0241326D01*
X0030953Y0250564D01*
X0030953Y0254255D01*
X0030466Y0255432D01*
X0029565Y0256332D01*
X0029553Y0256337D01*
X0029553Y0258061D01*
X0025280Y0258061D01*
X0025280Y0259020D01*
X0029553Y0259020D01*
X0029553Y0261336D01*
X0029430Y0261794D01*
X0029193Y0262204D01*
X0028858Y0262540D01*
X0028448Y0262777D01*
X0027990Y0262899D01*
X0025280Y0262899D01*
X0025280Y0259020D01*
X0024320Y0259020D01*
X0024320Y0258061D01*
X0020047Y0258061D01*
X0020047Y0256337D01*
X0020035Y0256332D01*
X0019134Y0255432D01*
X0018647Y0254255D01*
X0018647Y0247864D01*
X0019134Y0246688D01*
X0020035Y0245788D01*
X0021211Y0245301D01*
X0024902Y0245301D01*
X0031414Y0238789D01*
X0030672Y0238481D01*
X0029772Y0237581D01*
X0029285Y0236405D01*
X0029285Y0231942D01*
X0018409Y0221066D01*
X0017800Y0219596D01*
X0017800Y0211992D01*
X0015300Y0209492D01*
X0015300Y0208957D01*
X0008534Y0202191D01*
X0007409Y0201066D01*
X0006800Y0199596D01*
X0006800Y0154004D01*
X0007409Y0152534D01*
X0034409Y0125534D01*
X0035534Y0124409D01*
X0037004Y0123800D01*
X0070143Y0123800D01*
X0087274Y0106669D01*
X0088745Y0106060D01*
X0089980Y0106060D01*
X0090134Y0105688D01*
X0091035Y0104788D01*
X0091872Y0104441D01*
X0089989Y0104441D01*
X0084600Y0099052D01*
X0084600Y0091698D01*
X0056217Y0063315D01*
X0054132Y0063874D01*
X0035468Y0063874D01*
X0032652Y0063119D01*
X0030126Y0061661D01*
X0028065Y0059600D01*
X0026607Y0057074D01*
X0025852Y0054258D01*
X0025852Y0051342D01*
X0026607Y0048526D01*
X0028065Y0046000D01*
X0030126Y0043939D01*
X0032652Y0042481D01*
X0035468Y0041726D01*
X0054132Y0041726D01*
X0056948Y0042481D01*
X0059474Y0043939D01*
X0061535Y0046000D01*
X0062993Y0048526D01*
X0063748Y0051342D01*
X0063748Y0054258D01*
X0062993Y0057074D01*
X0062370Y0058154D01*
X0090257Y0086041D01*
X0097611Y0086041D01*
X0103000Y0091430D01*
X0103000Y0099052D01*
X0097751Y0104301D01*
X0099389Y0104301D01*
X0100565Y0104788D01*
X0101466Y0105688D01*
X0101913Y0106768D01*
X0103827Y0108682D01*
X0103827Y0108543D01*
X0103939Y0107834D01*
X0104161Y0107150D01*
X0104487Y0106510D01*
X0104909Y0105929D01*
X0105417Y0105421D01*
X0105999Y0104999D01*
X0106639Y0104673D01*
X0107322Y0104451D01*
X0108031Y0104339D01*
X0108390Y0104339D01*
X0108390Y0108902D01*
X0108391Y0108902D01*
X0108391Y0108902D01*
X0112954Y0108902D01*
X0112954Y0108543D01*
X0112842Y0107834D01*
X0112620Y0107150D01*
X0112294Y0106510D01*
X0111872Y0105929D01*
X0111364Y0105421D01*
X0110782Y0104999D01*
X0110142Y0104673D01*
X0109459Y0104451D01*
X0108750Y0104339D01*
X0108391Y0104339D01*
X0108391Y0108902D01*
X0112954Y0108902D01*
X0112954Y0109262D01*
X0112842Y0109971D01*
X0112620Y0110654D01*
X0112294Y0111294D01*
X0111872Y0111875D01*
X0111364Y0112383D01*
X0110782Y0112806D01*
X0110142Y0113132D01*
X0110087Y0113150D01*
X0111769Y0113847D01*
X0113446Y0115524D01*
X0114354Y0117716D01*
X0114354Y0120089D01*
X0114147Y0120589D01*
X0114316Y0120659D01*
X0128191Y0134534D01*
X0128301Y0134800D01*
X0135319Y0134800D01*
X0136216Y0133902D01*
X0134595Y0132281D01*
X0133687Y0130089D01*
X0133687Y0127716D01*
X0134595Y0125524D01*
X0136216Y0123902D01*
X0134595Y0122281D01*
X0133687Y0120089D01*
X0133687Y0118595D01*
X0120659Y0105568D01*
X0120050Y0104098D01*
X0120050Y0097750D01*
X0117488Y0097750D01*
X0117488Y0093575D01*
X0115939Y0093575D01*
X0115939Y0097750D01*
X0111358Y0097750D01*
X0110900Y0097627D01*
X0110490Y0097390D01*
X0110155Y0097055D01*
X0109918Y0096644D01*
X0109795Y0096187D01*
X0109795Y0093575D01*
X0115938Y0093575D01*
X0115938Y0092025D01*
X0109795Y0092025D01*
X0109795Y0089413D01*
X0109918Y0088956D01*
X0110155Y0088545D01*
X0110490Y0088210D01*
X0110900Y0087973D01*
X0111358Y0087850D01*
X0115939Y0087850D01*
X0115939Y0092025D01*
X0117488Y0092025D01*
X0117488Y0087850D01*
X0120050Y0087850D01*
X0120050Y0086754D01*
X0120659Y0085284D01*
X0121784Y0084159D01*
X0121784Y0084159D01*
X0122823Y0083120D01*
X0122268Y0082565D01*
X0122263Y0082553D01*
X0120539Y0082553D01*
X0120539Y0078280D01*
X0119580Y0078280D01*
X0119580Y0082553D01*
X0117264Y0082553D01*
X0116806Y0082430D01*
X0116396Y0082193D01*
X0116060Y0081858D01*
X0115823Y0081448D01*
X0115701Y0080990D01*
X0115701Y0078280D01*
X0119580Y0078280D01*
X0119580Y0077320D01*
X0120539Y0077320D01*
X0120539Y0073047D01*
X0122263Y0073047D01*
X0122268Y0073035D01*
X0123168Y0072134D01*
X0124345Y0071647D01*
X0129813Y0071647D01*
X0129813Y0071469D01*
X0125534Y0067191D01*
X0124409Y0066066D01*
X0123800Y0064596D01*
X0123800Y0030457D01*
X0107702Y0014359D01*
X0102811Y0014359D01*
X0097611Y0019559D01*
X0089989Y0019559D01*
X0084600Y0014170D01*
X0084600Y0006548D01*
X0085648Y0005500D01*
X0005500Y0005500D01*
X0005500Y0006596D02*
X0084600Y0006596D01*
X0084600Y0008194D02*
X0005500Y0008194D01*
X0005500Y0009793D02*
X0014694Y0009793D01*
X0013196Y0010413D02*
X0016832Y0008907D01*
X0020768Y0008907D01*
X0024404Y0010413D01*
X0027187Y0013196D01*
X0028693Y0016832D01*
X0028693Y0020768D01*
X0027187Y0024404D01*
X0024404Y0027187D01*
X0020768Y0028693D01*
X0016832Y0028693D01*
X0013196Y0027187D01*
X0010413Y0024404D01*
X0008907Y0020768D01*
X0008907Y0016832D01*
X0010413Y0013196D01*
X0013196Y0010413D01*
X0012218Y0011391D02*
X0005500Y0011391D01*
X0005500Y0012990D02*
X0010620Y0012990D01*
X0009837Y0014588D02*
X0005500Y0014588D01*
X0005500Y0016187D02*
X0009174Y0016187D01*
X0008907Y0017785D02*
X0005500Y0017785D01*
X0005500Y0019384D02*
X0008907Y0019384D01*
X0008996Y0020982D02*
X0005500Y0020982D01*
X0005500Y0022581D02*
X0009658Y0022581D01*
X0010320Y0024179D02*
X0005500Y0024179D01*
X0005500Y0025778D02*
X0011787Y0025778D01*
X0013653Y0027376D02*
X0005500Y0027376D01*
X0005500Y0028975D02*
X0122318Y0028975D01*
X0123800Y0030573D02*
X0005500Y0030573D01*
X0005500Y0032172D02*
X0123800Y0032172D01*
X0123800Y0033770D02*
X0005500Y0033770D01*
X0005500Y0035369D02*
X0123800Y0035369D01*
X0123800Y0036967D02*
X0005500Y0036967D01*
X0005500Y0038566D02*
X0123800Y0038566D01*
X0123800Y0040164D02*
X0005500Y0040164D01*
X0005500Y0041763D02*
X0035331Y0041763D01*
X0031126Y0043361D02*
X0005500Y0043361D01*
X0005500Y0044960D02*
X0029105Y0044960D01*
X0027742Y0046558D02*
X0005500Y0046558D01*
X0005500Y0048157D02*
X0026820Y0048157D01*
X0026277Y0049755D02*
X0005500Y0049755D01*
X0005500Y0051354D02*
X0025852Y0051354D01*
X0025852Y0052952D02*
X0005500Y0052952D01*
X0005500Y0054551D02*
X0025930Y0054551D01*
X0026359Y0056149D02*
X0005500Y0056149D01*
X0005500Y0057748D02*
X0026995Y0057748D01*
X0027918Y0059346D02*
X0005500Y0059346D01*
X0005500Y0060945D02*
X0029410Y0060945D01*
X0031654Y0062543D02*
X0005500Y0062543D01*
X0005500Y0064142D02*
X0057044Y0064142D01*
X0058643Y0065740D02*
X0005500Y0065740D01*
X0005500Y0067339D02*
X0060241Y0067339D01*
X0061840Y0068937D02*
X0005500Y0068937D01*
X0005500Y0070536D02*
X0063438Y0070536D01*
X0065037Y0072134D02*
X0005500Y0072134D01*
X0005500Y0073733D02*
X0066635Y0073733D01*
X0068234Y0075332D02*
X0005500Y0075332D01*
X0005500Y0076930D02*
X0069832Y0076930D01*
X0071431Y0078529D02*
X0005500Y0078529D01*
X0005500Y0080127D02*
X0073029Y0080127D01*
X0074628Y0081726D02*
X0005500Y0081726D01*
X0005500Y0083324D02*
X0076226Y0083324D01*
X0077825Y0084923D02*
X0005500Y0084923D01*
X0005500Y0086521D02*
X0079423Y0086521D01*
X0081022Y0088120D02*
X0005500Y0088120D01*
X0005500Y0089718D02*
X0082620Y0089718D01*
X0084219Y0091317D02*
X0005500Y0091317D01*
X0005500Y0092915D02*
X0084600Y0092915D01*
X0084600Y0094514D02*
X0005500Y0094514D01*
X0005500Y0096112D02*
X0084600Y0096112D01*
X0084600Y0097711D02*
X0005500Y0097711D01*
X0005500Y0099309D02*
X0084857Y0099309D01*
X0086456Y0100908D02*
X0056505Y0100908D01*
X0056382Y0100848D02*
X0057361Y0101320D01*
X0058281Y0101898D01*
X0059130Y0102575D01*
X0059899Y0103344D01*
X0060576Y0104193D01*
X0061154Y0105113D01*
X0061626Y0106092D01*
X0061985Y0107118D01*
X0062226Y0108177D01*
X0062319Y0109000D01*
X0045600Y0109000D01*
X0045600Y0110600D01*
X0044000Y0110600D01*
X0044000Y0119474D01*
X0036383Y0119474D01*
X0035303Y0119352D01*
X0034244Y0119111D01*
X0033218Y0118752D01*
X0032239Y0118280D01*
X0031319Y0117702D01*
X0030470Y0117025D01*
X0029701Y0116256D01*
X0029024Y0115407D01*
X0028446Y0114487D01*
X0027974Y0113508D01*
X0027615Y0112482D01*
X0027374Y0111423D01*
X0027281Y0110600D01*
X0044000Y0110600D01*
X0044000Y0109000D01*
X0045600Y0109000D01*
X0045600Y0100126D01*
X0053217Y0100126D01*
X0054297Y0100248D01*
X0055356Y0100489D01*
X0056382Y0100848D01*
X0059044Y0102506D02*
X0088055Y0102506D01*
X0089653Y0104105D02*
X0060506Y0104105D01*
X0061438Y0105703D02*
X0090128Y0105703D01*
X0086641Y0107302D02*
X0062027Y0107302D01*
X0062308Y0108900D02*
X0085043Y0108900D01*
X0083444Y0110499D02*
X0045600Y0110499D01*
X0045600Y0110600D02*
X0062319Y0110600D01*
X0062226Y0111423D01*
X0061985Y0112482D01*
X0061626Y0113508D01*
X0061154Y0114487D01*
X0060576Y0115407D01*
X0059899Y0116256D01*
X0059130Y0117025D01*
X0058281Y0117702D01*
X0057361Y0118280D01*
X0056382Y0118752D01*
X0055356Y0119111D01*
X0054297Y0119352D01*
X0053217Y0119474D01*
X0045600Y0119474D01*
X0045600Y0110600D01*
X0044800Y0109800D02*
X0050800Y0103800D01*
X0103288Y0103800D01*
X0108391Y0108902D01*
X0116713Y0100580D01*
X0116713Y0092800D01*
X0116713Y0081146D01*
X0120060Y0077800D01*
X0119580Y0077320D02*
X0119580Y0073047D01*
X0117264Y0073047D01*
X0116806Y0073170D01*
X0116396Y0073407D01*
X0116060Y0073742D01*
X0115823Y0074152D01*
X0115701Y0074610D01*
X0115701Y0077320D01*
X0119580Y0077320D01*
X0119580Y0076930D02*
X0120539Y0076930D01*
X0120539Y0075332D02*
X0119580Y0075332D01*
X0119580Y0073733D02*
X0120539Y0073733D01*
X0123168Y0072134D02*
X0076350Y0072134D01*
X0074752Y0070536D02*
X0128879Y0070536D01*
X0127281Y0068937D02*
X0073153Y0068937D01*
X0071555Y0067339D02*
X0125682Y0067339D01*
X0125534Y0067191D02*
X0125534Y0067191D01*
X0124274Y0065740D02*
X0069956Y0065740D01*
X0068358Y0064142D02*
X0123800Y0064142D01*
X0123800Y0062543D02*
X0066759Y0062543D01*
X0065161Y0060945D02*
X0123800Y0060945D01*
X0123800Y0059346D02*
X0063562Y0059346D01*
X0062605Y0057748D02*
X0123800Y0057748D01*
X0123800Y0056149D02*
X0063241Y0056149D01*
X0063670Y0054551D02*
X0123800Y0054551D01*
X0123800Y0052952D02*
X0063748Y0052952D01*
X0063748Y0051354D02*
X0123800Y0051354D01*
X0123800Y0049755D02*
X0063323Y0049755D01*
X0062780Y0048157D02*
X0123800Y0048157D01*
X0123800Y0046558D02*
X0061858Y0046558D01*
X0060495Y0044960D02*
X0123800Y0044960D01*
X0123800Y0043361D02*
X0058474Y0043361D01*
X0054269Y0041763D02*
X0123800Y0041763D01*
X0131800Y0036059D02*
X0131800Y0030457D01*
X0140457Y0021800D01*
X0167143Y0021800D01*
X0165534Y0023409D01*
X0164409Y0024534D01*
X0164121Y0025230D01*
X0164030Y0025230D01*
X0162853Y0025717D01*
X0161953Y0026617D01*
X0161636Y0027383D01*
X0160294Y0027383D01*
X0159977Y0026617D01*
X0159077Y0025717D01*
X0157901Y0025230D01*
X0151510Y0025230D01*
X0150334Y0025717D01*
X0149434Y0026617D01*
X0149428Y0026630D01*
X0147705Y0026630D01*
X0147705Y0030903D01*
X0146746Y0030903D01*
X0146746Y0026630D01*
X0144429Y0026630D01*
X0143971Y0026753D01*
X0143561Y0026990D01*
X0143226Y0027325D01*
X0142989Y0027735D01*
X0142866Y0028193D01*
X0142866Y0030903D01*
X0146746Y0030903D01*
X0146746Y0031862D01*
X0142866Y0031862D01*
X0142866Y0033800D01*
X0138949Y0033800D01*
X0137479Y0034409D01*
X0136068Y0035820D01*
X0132376Y0035820D01*
X0131800Y0036059D01*
X0131800Y0035369D02*
X0136519Y0035369D01*
X0135800Y0031800D02*
X0136217Y0031383D01*
X0147225Y0031383D01*
X0146746Y0030573D02*
X0147705Y0030573D01*
X0147705Y0028975D02*
X0146746Y0028975D01*
X0146746Y0027376D02*
X0147705Y0027376D01*
X0150273Y0025778D02*
X0136479Y0025778D01*
X0134881Y0027376D02*
X0143196Y0027376D01*
X0142866Y0028975D02*
X0133282Y0028975D01*
X0131800Y0030573D02*
X0142866Y0030573D01*
X0142866Y0032172D02*
X0131800Y0032172D01*
X0131800Y0033770D02*
X0142866Y0033770D01*
X0139745Y0037800D02*
X0135965Y0041580D01*
X0139745Y0037800D02*
X0173800Y0037800D01*
X0174800Y0038800D01*
X0174800Y0031477D01*
X0174706Y0031383D01*
X0174800Y0038800D02*
X0174800Y0043800D01*
X0173280Y0045320D01*
X0171165Y0045320D01*
X0171165Y0050320D02*
X0171165Y0055320D01*
X0163280Y0055320D01*
X0153800Y0064800D01*
X0151285Y0064800D01*
X0150765Y0065320D01*
X0150765Y0070320D01*
X0156320Y0070320D01*
X0159800Y0073800D01*
X0159800Y0113800D01*
X0152800Y0120800D01*
X0146225Y0125225D02*
X0150800Y0129800D01*
X0150800Y0143800D01*
X0144800Y0149800D01*
X0144800Y0173174D01*
X0127202Y0190772D01*
X0127202Y0193331D01*
X0127202Y0195891D02*
X0139457Y0195891D01*
X0152304Y0183044D01*
X0152304Y0173359D01*
X0152304Y0163674D01*
X0152304Y0153989D01*
X0159784Y0153989D02*
X0170765Y0164969D01*
X0185493Y0164969D01*
X0185493Y0159969D02*
X0185324Y0159800D01*
X0170800Y0159800D01*
X0165800Y0154800D01*
X0165800Y0068800D01*
X0169280Y0065320D01*
X0171165Y0065320D01*
X0171165Y0060320D02*
X0175280Y0060320D01*
X0183800Y0051800D01*
X0183800Y0028800D01*
X0177800Y0022800D01*
X0171800Y0022800D01*
X0167800Y0026800D01*
X0167800Y0030808D01*
X0167225Y0031383D01*
X0154706Y0031383D01*
X0160292Y0027376D02*
X0161639Y0027376D01*
X0162793Y0025778D02*
X0159138Y0025778D01*
X0164764Y0024179D02*
X0138078Y0024179D01*
X0139676Y0022581D02*
X0166362Y0022581D01*
X0178800Y0017800D02*
X0138800Y0017800D01*
X0127800Y0028800D01*
X0109359Y0010359D01*
X0093800Y0010359D01*
X0099385Y0017785D02*
X0111128Y0017785D01*
X0109530Y0016187D02*
X0100983Y0016187D01*
X0102582Y0014588D02*
X0107931Y0014588D01*
X0112727Y0019384D02*
X0097786Y0019384D01*
X0089814Y0019384D02*
X0028693Y0019384D01*
X0028693Y0017785D02*
X0088215Y0017785D01*
X0086617Y0016187D02*
X0028425Y0016187D01*
X0027763Y0014588D02*
X0085018Y0014588D01*
X0084600Y0012990D02*
X0026980Y0012990D01*
X0025382Y0011391D02*
X0084600Y0011391D01*
X0084600Y0009793D02*
X0022906Y0009793D01*
X0028604Y0020982D02*
X0114325Y0020982D01*
X0115924Y0022581D02*
X0027942Y0022581D01*
X0027280Y0024179D02*
X0117522Y0024179D01*
X0119121Y0025778D02*
X0025813Y0025778D01*
X0023947Y0027376D02*
X0120719Y0027376D01*
X0125639Y0020982D02*
X0129961Y0020982D01*
X0131560Y0019384D02*
X0124040Y0019384D01*
X0122442Y0017785D02*
X0133158Y0017785D01*
X0134757Y0016187D02*
X0120843Y0016187D01*
X0119245Y0014588D02*
X0136355Y0014588D01*
X0135409Y0015534D02*
X0135409Y0015534D01*
X0128362Y0022581D02*
X0127237Y0022581D01*
X0127800Y0028800D02*
X0127800Y0063800D01*
X0133060Y0069060D01*
X0135965Y0069060D01*
X0139965Y0069060D01*
X0146225Y0075320D01*
X0146225Y0125225D01*
X0139650Y0128902D02*
X0139650Y0130650D01*
X0144800Y0135800D01*
X0144800Y0140887D01*
X0131887Y0153800D01*
X0124800Y0157800D02*
X0131887Y0164887D01*
X0131887Y0172800D01*
X0124800Y0167800D02*
X0117713Y0160713D01*
X0117713Y0153800D01*
X0117800Y0153713D01*
X0117800Y0139800D01*
X0108391Y0130391D01*
X0108391Y0128902D01*
X0112050Y0124050D02*
X0104550Y0124050D01*
X0101800Y0126800D01*
X0101800Y0137942D01*
X0088060Y0151682D01*
X0088060Y0153682D01*
X0084942Y0156800D01*
X0084942Y0154800D01*
X0088060Y0151682D01*
X0088060Y0126800D01*
X0082301Y0126484D02*
X0078773Y0126484D01*
X0077174Y0128082D02*
X0082301Y0128082D01*
X0082301Y0129681D02*
X0075576Y0129681D01*
X0075191Y0130066D02*
X0074066Y0131191D01*
X0072596Y0131800D01*
X0039457Y0131800D01*
X0014800Y0156457D01*
X0014800Y0197143D01*
X0018532Y0200875D01*
X0019098Y0200310D01*
X0016700Y0197912D01*
X0016700Y0195800D01*
X0021800Y0195800D01*
X0021800Y0187800D01*
X0019800Y0187800D01*
X0014800Y0182800D01*
X0014800Y0174540D01*
X0018800Y0170540D01*
X0018800Y0152800D01*
X0039800Y0131800D01*
X0072800Y0131800D01*
X0087060Y0117540D01*
X0095800Y0117540D01*
X0095800Y0126540D01*
X0095540Y0126800D01*
X0095061Y0127280D02*
X0095061Y0131553D01*
X0093337Y0131553D01*
X0093332Y0131565D01*
X0092432Y0132466D01*
X0092060Y0132620D01*
X0092060Y0137324D01*
X0096760Y0137324D01*
X0097800Y0136285D01*
X0097800Y0131553D01*
X0096020Y0131553D01*
X0096020Y0127280D01*
X0095061Y0127280D01*
X0095061Y0128082D02*
X0096020Y0128082D01*
X0096020Y0129681D02*
X0095061Y0129681D01*
X0095061Y0131279D02*
X0096020Y0131279D01*
X0097800Y0132878D02*
X0092060Y0132878D01*
X0092060Y0134476D02*
X0097800Y0134476D01*
X0097800Y0136075D02*
X0092060Y0136075D01*
X0084060Y0136075D02*
X0082481Y0136075D01*
X0082481Y0136731D02*
X0082235Y0137324D01*
X0084060Y0137324D01*
X0084060Y0132620D01*
X0083688Y0132466D01*
X0082788Y0131565D01*
X0082301Y0130389D01*
X0082301Y0123211D01*
X0082481Y0122776D01*
X0075191Y0130066D01*
X0075225Y0131800D02*
X0076869Y0131119D01*
X0078731Y0131119D01*
X0080452Y0131832D01*
X0081768Y0133148D01*
X0082481Y0134869D01*
X0082481Y0136731D01*
X0082319Y0134476D02*
X0084060Y0134476D01*
X0084060Y0132878D02*
X0081498Y0132878D01*
X0082670Y0131279D02*
X0079119Y0131279D01*
X0076481Y0131279D02*
X0073852Y0131279D01*
X0075225Y0131800D02*
X0050185Y0131800D01*
X0048715Y0132409D01*
X0047590Y0133534D01*
X0047590Y0133534D01*
X0042125Y0139000D01*
X0042125Y0139000D01*
X0041000Y0140125D01*
X0040391Y0141595D01*
X0040391Y0145631D01*
X0037849Y0145631D01*
X0036672Y0146119D01*
X0035772Y0147019D01*
X0035285Y0148195D01*
X0035285Y0152060D01*
X0031620Y0152060D01*
X0031466Y0151688D01*
X0030565Y0150788D01*
X0029389Y0150301D01*
X0022211Y0150301D01*
X0021035Y0150788D01*
X0020134Y0151688D01*
X0019647Y0152864D01*
X0019647Y0159255D01*
X0020134Y0160432D01*
X0021035Y0161332D01*
X0021047Y0161337D01*
X0021047Y0163061D01*
X0025320Y0163061D01*
X0025320Y0164020D01*
X0021047Y0164020D01*
X0021047Y0166336D01*
X0021170Y0166794D01*
X0021407Y0167204D01*
X0021742Y0167540D01*
X0022152Y0167777D01*
X0022610Y0167899D01*
X0025320Y0167899D01*
X0025320Y0164020D01*
X0026280Y0164020D01*
X0030553Y0164020D01*
X0030553Y0166336D01*
X0030430Y0166794D01*
X0030193Y0167204D01*
X0029858Y0167540D01*
X0029448Y0167777D01*
X0028990Y0167899D01*
X0026280Y0167899D01*
X0026280Y0164020D01*
X0026280Y0163061D01*
X0030553Y0163061D01*
X0030553Y0161337D01*
X0030565Y0161332D01*
X0031466Y0160432D01*
X0031620Y0160060D01*
X0039926Y0160060D01*
X0041397Y0159451D01*
X0044879Y0155968D01*
X0050933Y0155968D01*
X0052109Y0155481D01*
X0053009Y0154581D01*
X0053496Y0153405D01*
X0053496Y0148195D01*
X0053009Y0147019D01*
X0052109Y0146119D01*
X0050933Y0145631D01*
X0048391Y0145631D01*
X0048391Y0144047D01*
X0052638Y0139800D01*
X0067506Y0139800D01*
X0067470Y0139888D01*
X0067470Y0166615D01*
X0061285Y0172800D01*
X0052096Y0172800D01*
X0052096Y0170984D01*
X0044575Y0170984D01*
X0044575Y0170616D01*
X0052096Y0170616D01*
X0052096Y0168595D01*
X0051973Y0168137D01*
X0051736Y0167726D01*
X0051401Y0167391D01*
X0050991Y0167154D01*
X0050533Y0167031D01*
X0044575Y0167031D01*
X0044575Y0170616D01*
X0044206Y0170616D01*
X0036685Y0170616D01*
X0036685Y0168595D01*
X0036808Y0168137D01*
X0037045Y0167726D01*
X0037380Y0167391D01*
X0037790Y0167154D01*
X0038248Y0167031D01*
X0044206Y0167031D01*
X0044206Y0170616D01*
X0044206Y0170984D01*
X0036685Y0170984D01*
X0036685Y0172800D01*
X0026992Y0172800D01*
X0024492Y0170300D01*
X0019108Y0170300D01*
X0015300Y0174108D01*
X0015300Y0179492D01*
X0019098Y0183290D01*
X0016700Y0185688D01*
X0016700Y0187800D01*
X0021800Y0187800D01*
X0058060Y0187800D01*
X0058060Y0196800D01*
X0042800Y0196800D01*
X0030800Y0208800D01*
X0030800Y0222800D01*
X0054800Y0222800D01*
X0054800Y0233800D01*
X0030060Y0258540D01*
X0024800Y0258540D01*
X0024320Y0259020D02*
X0020047Y0259020D01*
X0020047Y0261336D01*
X0020170Y0261794D01*
X0020407Y0262204D01*
X0020742Y0262540D01*
X0021152Y0262777D01*
X0021610Y0262899D01*
X0024320Y0262899D01*
X0024320Y0259020D01*
X0024320Y0259160D02*
X0025280Y0259160D01*
X0025280Y0260759D02*
X0024320Y0260759D01*
X0024320Y0262357D02*
X0025280Y0262357D01*
X0029040Y0262357D02*
X0054705Y0262357D01*
X0053475Y0260759D02*
X0029553Y0260759D01*
X0029553Y0259160D02*
X0052552Y0259160D01*
X0052112Y0257562D02*
X0029553Y0257562D01*
X0029934Y0255963D02*
X0051781Y0255963D01*
X0051781Y0254365D02*
X0030907Y0254365D01*
X0030953Y0252766D02*
X0051959Y0252766D01*
X0052388Y0251168D02*
X0030953Y0251168D01*
X0031947Y0249569D02*
X0053146Y0249569D01*
X0054135Y0247971D02*
X0033546Y0247971D01*
X0035144Y0246372D02*
X0055733Y0246372D01*
X0058288Y0244774D02*
X0036743Y0244774D01*
X0038341Y0243175D02*
X0062870Y0243175D01*
X0062870Y0241577D02*
X0039940Y0241577D01*
X0040749Y0239978D02*
X0062870Y0239978D01*
X0062870Y0238380D02*
X0046210Y0238380D01*
X0047340Y0236781D02*
X0062870Y0236781D01*
X0062870Y0235183D02*
X0047496Y0235183D01*
X0047496Y0233584D02*
X0062870Y0233584D01*
X0062870Y0231986D02*
X0047496Y0231986D01*
X0047161Y0230387D02*
X0062870Y0230387D01*
X0062870Y0228789D02*
X0045312Y0228789D01*
X0042800Y0233800D02*
X0038391Y0233800D01*
X0036800Y0233800D01*
X0036800Y0239060D01*
X0024800Y0251060D01*
X0018647Y0251168D02*
X0005500Y0251168D01*
X0005500Y0252766D02*
X0018647Y0252766D01*
X0018693Y0254365D02*
X0005500Y0254365D01*
X0005500Y0255963D02*
X0019666Y0255963D01*
X0020047Y0257562D02*
X0005500Y0257562D01*
X0005500Y0259160D02*
X0020047Y0259160D01*
X0020047Y0260759D02*
X0005500Y0260759D01*
X0005500Y0262357D02*
X0020560Y0262357D01*
X0018647Y0249569D02*
X0005500Y0249569D01*
X0005500Y0247971D02*
X0018647Y0247971D01*
X0019450Y0246372D02*
X0005500Y0246372D01*
X0005500Y0244774D02*
X0025429Y0244774D01*
X0027028Y0243175D02*
X0005500Y0243175D01*
X0005500Y0241577D02*
X0028626Y0241577D01*
X0030225Y0239978D02*
X0005500Y0239978D01*
X0005500Y0238380D02*
X0030571Y0238380D01*
X0029441Y0236781D02*
X0005500Y0236781D01*
X0005500Y0235183D02*
X0029285Y0235183D01*
X0029285Y0233584D02*
X0005500Y0233584D01*
X0005500Y0231986D02*
X0029285Y0231986D01*
X0027730Y0230387D02*
X0005500Y0230387D01*
X0005500Y0228789D02*
X0026132Y0228789D01*
X0024533Y0227190D02*
X0005500Y0227190D01*
X0005500Y0225592D02*
X0022935Y0225592D01*
X0021336Y0223993D02*
X0005500Y0223993D01*
X0005500Y0222395D02*
X0019738Y0222395D01*
X0018297Y0220796D02*
X0005500Y0220796D01*
X0005500Y0219198D02*
X0017800Y0219198D01*
X0017800Y0217599D02*
X0005500Y0217599D01*
X0005500Y0216001D02*
X0017800Y0216001D01*
X0017800Y0214402D02*
X0005500Y0214402D01*
X0005500Y0212803D02*
X0017800Y0212803D01*
X0017013Y0211205D02*
X0005500Y0211205D01*
X0005500Y0209606D02*
X0015414Y0209606D01*
X0014351Y0208008D02*
X0005500Y0208008D01*
X0005500Y0206409D02*
X0012753Y0206409D01*
X0011154Y0204811D02*
X0005500Y0204811D01*
X0005500Y0203212D02*
X0009556Y0203212D01*
X0007957Y0201614D02*
X0005500Y0201614D01*
X0005500Y0200015D02*
X0006974Y0200015D01*
X0006800Y0198417D02*
X0005500Y0198417D01*
X0005500Y0196818D02*
X0006800Y0196818D01*
X0006800Y0195220D02*
X0005500Y0195220D01*
X0005500Y0193621D02*
X0006800Y0193621D01*
X0006800Y0192023D02*
X0005500Y0192023D01*
X0005500Y0190424D02*
X0006800Y0190424D01*
X0006800Y0188826D02*
X0005500Y0188826D01*
X0005500Y0187227D02*
X0006800Y0187227D01*
X0006800Y0185629D02*
X0005500Y0185629D01*
X0005500Y0184030D02*
X0006800Y0184030D01*
X0006800Y0182432D02*
X0005500Y0182432D01*
X0005500Y0180833D02*
X0006800Y0180833D01*
X0006800Y0179235D02*
X0005500Y0179235D01*
X0005500Y0177636D02*
X0006800Y0177636D01*
X0006800Y0176038D02*
X0005500Y0176038D01*
X0005500Y0174439D02*
X0006800Y0174439D01*
X0006800Y0172841D02*
X0005500Y0172841D01*
X0005500Y0171242D02*
X0006800Y0171242D01*
X0006800Y0169644D02*
X0005500Y0169644D01*
X0005500Y0168045D02*
X0006800Y0168045D01*
X0006800Y0166447D02*
X0005500Y0166447D01*
X0005500Y0164848D02*
X0006800Y0164848D01*
X0006800Y0163250D02*
X0005500Y0163250D01*
X0005500Y0161651D02*
X0006800Y0161651D01*
X0006800Y0160053D02*
X0005500Y0160053D01*
X0005500Y0158454D02*
X0006800Y0158454D01*
X0006800Y0156856D02*
X0005500Y0156856D01*
X0005500Y0155257D02*
X0006800Y0155257D01*
X0006943Y0153659D02*
X0005500Y0153659D01*
X0005500Y0152060D02*
X0007883Y0152060D01*
X0009482Y0150462D02*
X0005500Y0150462D01*
X0005500Y0148863D02*
X0011080Y0148863D01*
X0012679Y0147265D02*
X0005500Y0147265D01*
X0005500Y0145666D02*
X0014277Y0145666D01*
X0015876Y0144068D02*
X0005500Y0144068D01*
X0005500Y0142469D02*
X0017474Y0142469D01*
X0019073Y0140870D02*
X0005500Y0140870D01*
X0005500Y0139272D02*
X0020671Y0139272D01*
X0022270Y0137673D02*
X0005500Y0137673D01*
X0005500Y0136075D02*
X0023868Y0136075D01*
X0025467Y0134476D02*
X0005500Y0134476D01*
X0005500Y0132878D02*
X0027065Y0132878D01*
X0028664Y0131279D02*
X0005500Y0131279D01*
X0005500Y0129681D02*
X0030262Y0129681D01*
X0031861Y0128082D02*
X0005500Y0128082D01*
X0005500Y0126484D02*
X0033459Y0126484D01*
X0035058Y0124885D02*
X0005500Y0124885D01*
X0005500Y0123287D02*
X0070656Y0123287D01*
X0072255Y0121688D02*
X0005500Y0121688D01*
X0005500Y0120090D02*
X0073853Y0120090D01*
X0075452Y0118491D02*
X0056923Y0118491D01*
X0059262Y0116893D02*
X0077050Y0116893D01*
X0078649Y0115294D02*
X0060647Y0115294D01*
X0061535Y0113696D02*
X0080247Y0113696D01*
X0081846Y0112097D02*
X0062072Y0112097D01*
X0045600Y0112097D02*
X0044000Y0112097D01*
X0044000Y0110499D02*
X0005500Y0110499D01*
X0005500Y0112097D02*
X0027528Y0112097D01*
X0028065Y0113696D02*
X0005500Y0113696D01*
X0005500Y0115294D02*
X0028953Y0115294D01*
X0030338Y0116893D02*
X0005500Y0116893D01*
X0005500Y0118491D02*
X0032677Y0118491D01*
X0037800Y0127800D02*
X0071800Y0127800D01*
X0089540Y0110060D01*
X0095800Y0110060D01*
X0099548Y0110060D01*
X0108391Y0118902D01*
X0113217Y0115294D02*
X0130385Y0115294D01*
X0128787Y0113696D02*
X0111405Y0113696D01*
X0111650Y0112097D02*
X0127188Y0112097D01*
X0125590Y0110499D02*
X0112670Y0110499D01*
X0112954Y0108900D02*
X0123991Y0108900D01*
X0122393Y0107302D02*
X0112669Y0107302D01*
X0111646Y0105703D02*
X0120794Y0105703D01*
X0120053Y0104105D02*
X0097947Y0104105D01*
X0099545Y0102506D02*
X0120050Y0102506D01*
X0120050Y0100908D02*
X0101144Y0100908D01*
X0102742Y0099309D02*
X0120050Y0099309D01*
X0117488Y0097711D02*
X0115939Y0097711D01*
X0115939Y0096112D02*
X0117488Y0096112D01*
X0117488Y0094514D02*
X0115939Y0094514D01*
X0115938Y0092915D02*
X0103000Y0092915D01*
X0103000Y0094514D02*
X0109795Y0094514D01*
X0109795Y0096112D02*
X0103000Y0096112D01*
X0103000Y0097711D02*
X0111213Y0097711D01*
X0109795Y0091317D02*
X0102886Y0091317D01*
X0101288Y0089718D02*
X0109795Y0089718D01*
X0110647Y0088120D02*
X0099689Y0088120D01*
X0098091Y0086521D02*
X0120147Y0086521D01*
X0121021Y0084923D02*
X0089138Y0084923D01*
X0087540Y0083324D02*
X0122619Y0083324D01*
X0120539Y0081726D02*
X0119580Y0081726D01*
X0119580Y0080127D02*
X0120539Y0080127D01*
X0120539Y0078529D02*
X0119580Y0078529D01*
X0115984Y0081726D02*
X0085941Y0081726D01*
X0084343Y0080127D02*
X0115701Y0080127D01*
X0115701Y0078529D02*
X0082744Y0078529D01*
X0081146Y0076930D02*
X0115701Y0076930D01*
X0115701Y0075332D02*
X0079547Y0075332D01*
X0077949Y0073733D02*
X0116069Y0073733D01*
X0127540Y0077800D02*
X0127540Y0084060D01*
X0124050Y0087550D01*
X0124050Y0103302D01*
X0139650Y0118902D01*
X0135601Y0123287D02*
X0116944Y0123287D01*
X0118542Y0124885D02*
X0135233Y0124885D01*
X0134197Y0126484D02*
X0120141Y0126484D01*
X0121739Y0128082D02*
X0133687Y0128082D01*
X0133687Y0129681D02*
X0123338Y0129681D01*
X0124936Y0131279D02*
X0134180Y0131279D01*
X0135192Y0132878D02*
X0126535Y0132878D01*
X0128133Y0134476D02*
X0135642Y0134476D01*
X0139548Y0138800D02*
X0124800Y0138800D01*
X0124800Y0136800D01*
X0112050Y0124050D01*
X0115345Y0121688D02*
X0134349Y0121688D01*
X0133687Y0120090D02*
X0114354Y0120090D01*
X0114354Y0118491D02*
X0133583Y0118491D01*
X0131984Y0116893D02*
X0114013Y0116893D01*
X0108390Y0108900D02*
X0108391Y0108900D01*
X0108390Y0107302D02*
X0108391Y0107302D01*
X0108390Y0105703D02*
X0108391Y0105703D01*
X0105136Y0105703D02*
X0101472Y0105703D01*
X0102447Y0107302D02*
X0104112Y0107302D01*
X0100553Y0116721D02*
X0100553Y0117061D01*
X0096280Y0117061D01*
X0096280Y0118020D01*
X0100553Y0118020D01*
X0100553Y0120336D01*
X0100430Y0120794D01*
X0100193Y0121204D01*
X0099858Y0121540D01*
X0099448Y0121777D01*
X0098990Y0121899D01*
X0096280Y0121899D01*
X0096280Y0118020D01*
X0095320Y0118020D01*
X0095320Y0117061D01*
X0091047Y0117061D01*
X0091047Y0115337D01*
X0091035Y0115332D01*
X0090480Y0114777D01*
X0084430Y0120827D01*
X0084864Y0120647D01*
X0091131Y0120647D01*
X0091047Y0120336D01*
X0091047Y0118020D01*
X0095320Y0118020D01*
X0095320Y0121899D01*
X0093196Y0121899D01*
X0093332Y0122035D01*
X0093337Y0122047D01*
X0095061Y0122047D01*
X0095061Y0126320D01*
X0096020Y0126320D01*
X0096020Y0122047D01*
X0098336Y0122047D01*
X0098794Y0122170D01*
X0099204Y0122407D01*
X0099540Y0122742D01*
X0099777Y0123152D01*
X0099780Y0123164D01*
X0102284Y0120659D01*
X0102608Y0120525D01*
X0102427Y0120089D01*
X0102427Y0118595D01*
X0100553Y0116721D01*
X0100553Y0116893D02*
X0100724Y0116893D01*
X0100553Y0118491D02*
X0102323Y0118491D01*
X0102427Y0120090D02*
X0100553Y0120090D01*
X0101255Y0121688D02*
X0099600Y0121688D01*
X0096280Y0121688D02*
X0095320Y0121688D01*
X0095320Y0120090D02*
X0096280Y0120090D01*
X0096280Y0118491D02*
X0095320Y0118491D01*
X0095061Y0123287D02*
X0096020Y0123287D01*
X0096020Y0124885D02*
X0095061Y0124885D01*
X0091047Y0120090D02*
X0085167Y0120090D01*
X0086766Y0118491D02*
X0091047Y0118491D01*
X0091047Y0116893D02*
X0088364Y0116893D01*
X0089963Y0115294D02*
X0090997Y0115294D01*
X0082301Y0123287D02*
X0081970Y0123287D01*
X0082301Y0124885D02*
X0080371Y0124885D01*
X0077800Y0135800D02*
X0050981Y0135800D01*
X0044391Y0142391D01*
X0044391Y0150800D01*
X0039131Y0156060D01*
X0025800Y0156060D01*
X0019647Y0156856D02*
X0014800Y0156856D01*
X0014800Y0158454D02*
X0019647Y0158454D01*
X0019977Y0160053D02*
X0014800Y0160053D01*
X0014800Y0161651D02*
X0021047Y0161651D01*
X0021047Y0164848D02*
X0014800Y0164848D01*
X0014800Y0163250D02*
X0025320Y0163250D01*
X0025800Y0163540D02*
X0024540Y0163540D01*
X0025800Y0163540D02*
X0035131Y0163540D01*
X0036861Y0168045D02*
X0014800Y0168045D01*
X0014800Y0166447D02*
X0021077Y0166447D01*
X0018165Y0171242D02*
X0014800Y0171242D01*
X0014800Y0169644D02*
X0036685Y0169644D01*
X0036685Y0171242D02*
X0025435Y0171242D01*
X0025320Y0166447D02*
X0026280Y0166447D01*
X0026280Y0164848D02*
X0025320Y0164848D01*
X0026280Y0163250D02*
X0067470Y0163250D01*
X0067470Y0164848D02*
X0030553Y0164848D01*
X0030523Y0166447D02*
X0067470Y0166447D01*
X0066040Y0168045D02*
X0051921Y0168045D01*
X0052096Y0169644D02*
X0064441Y0169644D01*
X0062843Y0171242D02*
X0052096Y0171242D01*
X0044575Y0169644D02*
X0044206Y0169644D01*
X0044391Y0170800D02*
X0042391Y0170800D01*
X0044206Y0168045D02*
X0044575Y0168045D01*
X0039944Y0160053D02*
X0067470Y0160053D01*
X0067470Y0161651D02*
X0030553Y0161651D01*
X0029777Y0150462D02*
X0035285Y0150462D01*
X0035285Y0148863D02*
X0022394Y0148863D01*
X0021823Y0150462D02*
X0020795Y0150462D01*
X0019980Y0152060D02*
X0019197Y0152060D01*
X0019647Y0153659D02*
X0017598Y0153659D01*
X0016000Y0155257D02*
X0019647Y0155257D01*
X0023992Y0147265D02*
X0035670Y0147265D01*
X0037765Y0145666D02*
X0025591Y0145666D01*
X0027189Y0144068D02*
X0040391Y0144068D01*
X0040391Y0142469D02*
X0028788Y0142469D01*
X0030386Y0140870D02*
X0040691Y0140870D01*
X0041852Y0139272D02*
X0031985Y0139272D01*
X0033583Y0137673D02*
X0043451Y0137673D01*
X0045049Y0136075D02*
X0035182Y0136075D01*
X0036780Y0134476D02*
X0046648Y0134476D01*
X0048246Y0132878D02*
X0038379Y0132878D01*
X0037800Y0127800D02*
X0010800Y0154800D01*
X0010800Y0198800D01*
X0018800Y0206800D01*
X0021800Y0206800D01*
X0021800Y0218800D01*
X0036800Y0233800D01*
X0035847Y0227190D02*
X0062870Y0227190D01*
X0062870Y0225592D02*
X0034248Y0225592D01*
X0032650Y0223993D02*
X0078142Y0223993D01*
X0077800Y0223800D02*
X0076800Y0222800D01*
X0079942Y0222800D01*
X0078942Y0223800D01*
X0078942Y0235398D01*
X0072540Y0241800D01*
X0069820Y0246372D02*
X0095800Y0246372D01*
X0095800Y0244774D02*
X0094889Y0244774D01*
X0095013Y0243175D02*
X0095800Y0243175D01*
X0095800Y0241577D02*
X0095013Y0241577D01*
X0095013Y0239978D02*
X0095800Y0239978D01*
X0095800Y0238380D02*
X0095013Y0238380D01*
X0095013Y0236781D02*
X0095800Y0236781D01*
X0095800Y0235183D02*
X0095013Y0235183D01*
X0095013Y0233584D02*
X0095800Y0233584D01*
X0095800Y0231986D02*
X0095013Y0231986D01*
X0095013Y0230387D02*
X0095800Y0230387D01*
X0095800Y0228789D02*
X0095013Y0228789D01*
X0095013Y0227190D02*
X0095800Y0227190D01*
X0095800Y0225592D02*
X0095013Y0225592D01*
X0095800Y0223993D02*
X0079742Y0223993D01*
X0078942Y0223800D02*
X0077800Y0223800D01*
X0076800Y0222800D02*
X0054800Y0222800D01*
X0052081Y0217599D02*
X0062870Y0217599D01*
X0062870Y0216001D02*
X0054256Y0216001D01*
X0055855Y0214402D02*
X0062870Y0214402D01*
X0062870Y0212803D02*
X0057453Y0212803D01*
X0059052Y0211205D02*
X0062870Y0211205D01*
X0062870Y0209606D02*
X0060650Y0209606D01*
X0062249Y0208008D02*
X0062870Y0208008D01*
X0057329Y0201614D02*
X0025806Y0201614D01*
X0024797Y0200015D02*
X0053708Y0200015D01*
X0053701Y0198417D02*
X0026396Y0198417D01*
X0026900Y0196818D02*
X0057580Y0196818D01*
X0057580Y0195220D02*
X0058539Y0195220D01*
X0058539Y0193621D02*
X0057580Y0193621D01*
X0057580Y0192023D02*
X0058539Y0192023D01*
X0058539Y0190424D02*
X0057580Y0190424D01*
X0057580Y0188826D02*
X0058539Y0188826D01*
X0058539Y0187227D02*
X0057580Y0187227D01*
X0057580Y0187320D02*
X0057580Y0183047D01*
X0055264Y0183047D01*
X0054806Y0183170D01*
X0054396Y0183407D01*
X0054060Y0183742D01*
X0053823Y0184152D01*
X0053701Y0184610D01*
X0053701Y0187320D01*
X0057580Y0187320D01*
X0057580Y0185629D02*
X0058539Y0185629D01*
X0058539Y0184030D02*
X0057580Y0184030D01*
X0060540Y0182432D02*
X0025361Y0182432D01*
X0025243Y0184030D02*
X0053894Y0184030D01*
X0053701Y0185629D02*
X0026841Y0185629D01*
X0026900Y0187227D02*
X0053701Y0187227D01*
X0053701Y0188826D02*
X0026900Y0188826D01*
X0026900Y0187800D02*
X0021800Y0187800D01*
X0021800Y0187800D01*
X0021800Y0187800D01*
X0021800Y0190700D01*
X0021800Y0195800D01*
X0026900Y0195800D01*
X0021800Y0195800D01*
X0021800Y0195800D01*
X0021800Y0195800D01*
X0021800Y0195800D01*
X0016700Y0195800D01*
X0016700Y0193688D01*
X0018588Y0191800D01*
X0016700Y0189912D01*
X0016700Y0187800D01*
X0021800Y0187800D01*
X0021800Y0187800D01*
X0026900Y0187800D01*
X0026388Y0190424D02*
X0053701Y0190424D01*
X0054225Y0192023D02*
X0025235Y0192023D01*
X0026834Y0193621D02*
X0053701Y0193621D01*
X0053701Y0195220D02*
X0026900Y0195220D01*
X0021800Y0195220D02*
X0021800Y0195220D01*
X0021800Y0195800D02*
X0021800Y0187800D01*
X0021800Y0188826D02*
X0021800Y0188826D01*
X0021800Y0190424D02*
X0021800Y0190424D01*
X0021800Y0192023D02*
X0021800Y0192023D01*
X0021800Y0193621D02*
X0021800Y0193621D01*
X0018365Y0192023D02*
X0014800Y0192023D01*
X0014800Y0193621D02*
X0016766Y0193621D01*
X0016700Y0195220D02*
X0014800Y0195220D01*
X0014800Y0196818D02*
X0016700Y0196818D01*
X0017204Y0198417D02*
X0016074Y0198417D01*
X0017672Y0200015D02*
X0018803Y0200015D01*
X0027405Y0203212D02*
X0055731Y0203212D01*
X0054132Y0204811D02*
X0028300Y0204811D01*
X0028300Y0206409D02*
X0052534Y0206409D01*
X0050935Y0208008D02*
X0028300Y0208008D01*
X0028186Y0209606D02*
X0030185Y0209606D01*
X0029285Y0211205D02*
X0026587Y0211205D01*
X0025800Y0212803D02*
X0029285Y0212803D01*
X0029285Y0214402D02*
X0025800Y0214402D01*
X0025800Y0216001D02*
X0029285Y0216001D01*
X0029790Y0217599D02*
X0026256Y0217599D01*
X0027854Y0219198D02*
X0062870Y0219198D01*
X0062870Y0220796D02*
X0029453Y0220796D01*
X0031051Y0222395D02*
X0062870Y0222395D01*
X0050800Y0213800D02*
X0065540Y0199060D01*
X0065540Y0196800D01*
X0066540Y0197800D01*
X0093800Y0197800D01*
X0100828Y0190772D01*
X0110509Y0190772D01*
X0110536Y0190800D01*
X0115800Y0190800D01*
X0116800Y0191800D01*
X0116800Y0199800D01*
X0110800Y0205800D01*
X0103800Y0205800D01*
X0099800Y0209800D01*
X0099800Y0266800D01*
X0126792Y0266800D01*
X0135044Y0275052D01*
X0140800Y0263800D02*
X0120300Y0243300D01*
X0120300Y0189300D01*
X0124800Y0184800D01*
X0124800Y0167800D01*
X0117713Y0172800D02*
X0108391Y0163477D01*
X0108391Y0138902D01*
X0124800Y0138800D02*
X0124800Y0157800D01*
X0139650Y0138902D02*
X0139548Y0138800D01*
X0159784Y0163674D02*
X0166080Y0169969D01*
X0185493Y0169969D01*
X0185493Y0174969D02*
X0161394Y0174969D01*
X0159784Y0173359D01*
X0159784Y0183044D02*
X0160540Y0183800D01*
X0171800Y0183800D01*
X0175631Y0179969D01*
X0185493Y0179969D01*
X0185493Y0184969D02*
X0180631Y0184969D01*
X0173800Y0191800D01*
X0160713Y0191800D01*
X0159784Y0192729D01*
X0152304Y0192729D02*
X0152304Y0183044D01*
X0152304Y0192729D02*
X0152304Y0202414D01*
X0147186Y0202414D01*
X0139800Y0209800D01*
X0139800Y0232800D01*
X0174800Y0267800D01*
X0174800Y0274808D01*
X0175044Y0275052D01*
X0168432Y0267089D02*
X0136409Y0235066D01*
X0135800Y0233596D01*
X0135800Y0222459D01*
X0135409Y0222521D01*
X0135044Y0222521D01*
X0134679Y0222521D01*
X0133959Y0222407D01*
X0133265Y0222182D01*
X0132615Y0221851D01*
X0132025Y0221422D01*
X0131509Y0220906D01*
X0131080Y0220316D01*
X0130799Y0219763D01*
X0130160Y0221305D01*
X0128462Y0223003D01*
X0126244Y0223921D01*
X0124300Y0223921D01*
X0124300Y0241643D01*
X0142457Y0259800D01*
X0159596Y0259800D01*
X0161066Y0260409D01*
X0162191Y0261534D01*
X0162191Y0261534D01*
X0167260Y0266603D01*
X0168432Y0267089D01*
X0166898Y0265554D02*
X0166211Y0265554D01*
X0165299Y0263956D02*
X0164613Y0263956D01*
X0163701Y0262357D02*
X0163014Y0262357D01*
X0162102Y0260759D02*
X0161416Y0260759D01*
X0160503Y0259160D02*
X0141817Y0259160D01*
X0140219Y0257562D02*
X0158905Y0257562D01*
X0157306Y0255963D02*
X0138620Y0255963D01*
X0137022Y0254365D02*
X0155708Y0254365D01*
X0154109Y0252766D02*
X0135423Y0252766D01*
X0133825Y0251168D02*
X0152511Y0251168D01*
X0150912Y0249569D02*
X0132226Y0249569D01*
X0130628Y0247971D02*
X0149314Y0247971D01*
X0147715Y0246372D02*
X0129029Y0246372D01*
X0127431Y0244774D02*
X0146117Y0244774D01*
X0144518Y0243175D02*
X0125832Y0243175D01*
X0124300Y0241577D02*
X0142920Y0241577D01*
X0141321Y0239978D02*
X0124300Y0239978D01*
X0124300Y0238380D02*
X0139723Y0238380D01*
X0138124Y0236781D02*
X0124300Y0236781D01*
X0124300Y0235183D02*
X0136526Y0235183D01*
X0135800Y0233584D02*
X0124300Y0233584D01*
X0124300Y0231986D02*
X0135800Y0231986D01*
X0135800Y0230387D02*
X0124300Y0230387D01*
X0124300Y0228789D02*
X0135800Y0228789D01*
X0135800Y0227190D02*
X0124300Y0227190D01*
X0124300Y0225592D02*
X0135800Y0225592D01*
X0135800Y0223993D02*
X0124300Y0223993D01*
X0129070Y0222395D02*
X0133920Y0222395D01*
X0135044Y0222395D02*
X0135044Y0222395D01*
X0135044Y0222521D02*
X0135044Y0215052D01*
X0135044Y0215052D01*
X0135044Y0222521D01*
X0135044Y0220796D02*
X0135044Y0220796D01*
X0135044Y0219198D02*
X0135044Y0219198D01*
X0135044Y0217599D02*
X0135044Y0217599D01*
X0135044Y0216001D02*
X0135044Y0216001D01*
X0135044Y0215052D02*
X0135044Y0207583D01*
X0135044Y0215052D01*
X0135044Y0215052D01*
X0135044Y0214402D02*
X0135044Y0214402D01*
X0135044Y0212803D02*
X0135044Y0212803D01*
X0135044Y0211205D02*
X0135044Y0211205D01*
X0135044Y0209606D02*
X0135044Y0209606D01*
X0135044Y0208008D02*
X0135044Y0208008D01*
X0135044Y0207583D02*
X0135409Y0207583D01*
X0136129Y0207697D01*
X0136316Y0207758D01*
X0136409Y0207534D01*
X0136581Y0207362D01*
X0135225Y0206800D01*
X0130756Y0206800D01*
X0129286Y0206191D01*
X0125729Y0202634D01*
X0124300Y0202634D01*
X0124300Y0206183D01*
X0126244Y0206183D01*
X0128462Y0207101D01*
X0130160Y0208799D01*
X0130799Y0210341D01*
X0131080Y0209788D01*
X0131509Y0209198D01*
X0132025Y0208682D01*
X0132615Y0208253D01*
X0133265Y0207922D01*
X0133959Y0207697D01*
X0134679Y0207583D01*
X0135044Y0207583D01*
X0133097Y0208008D02*
X0129369Y0208008D01*
X0129813Y0206409D02*
X0126792Y0206409D01*
X0127906Y0204811D02*
X0124300Y0204811D01*
X0124300Y0203212D02*
X0126308Y0203212D01*
X0127202Y0198450D02*
X0131552Y0202800D01*
X0137800Y0202800D01*
X0131212Y0209606D02*
X0130494Y0209606D01*
X0130371Y0220796D02*
X0131429Y0220796D01*
X0109329Y0201614D02*
X0095045Y0201614D01*
X0094993Y0203212D02*
X0100731Y0203212D01*
X0099132Y0204811D02*
X0095013Y0204811D01*
X0095013Y0206409D02*
X0097534Y0206409D01*
X0096213Y0208008D02*
X0095013Y0208008D01*
X0095013Y0209606D02*
X0095800Y0209606D01*
X0095800Y0211205D02*
X0095013Y0211205D01*
X0095013Y0212803D02*
X0095800Y0212803D01*
X0095800Y0214402D02*
X0095013Y0214402D01*
X0095013Y0216001D02*
X0095800Y0216001D01*
X0095800Y0217599D02*
X0095013Y0217599D01*
X0095013Y0219198D02*
X0095800Y0219198D01*
X0095800Y0220796D02*
X0095013Y0220796D01*
X0095013Y0222395D02*
X0095800Y0222395D01*
X0079942Y0222800D02*
X0104292Y0198450D01*
X0110509Y0198450D01*
X0110509Y0195891D01*
X0105441Y0196818D02*
X0100438Y0196818D01*
X0098840Y0198417D02*
X0105520Y0198417D01*
X0105681Y0200015D02*
X0097241Y0200015D01*
X0102037Y0195220D02*
X0104312Y0195220D01*
X0079742Y0225592D02*
X0078142Y0225592D01*
X0078142Y0227190D02*
X0079742Y0227190D01*
X0079742Y0228789D02*
X0078142Y0228789D01*
X0078142Y0230387D02*
X0079742Y0230387D01*
X0079742Y0231986D02*
X0078142Y0231986D01*
X0078142Y0233584D02*
X0079742Y0233584D01*
X0079942Y0234398D02*
X0078942Y0235398D01*
X0078142Y0235183D02*
X0079742Y0235183D01*
X0079742Y0236781D02*
X0078142Y0236781D01*
X0078142Y0238380D02*
X0079742Y0238380D01*
X0079742Y0239978D02*
X0078142Y0239978D01*
X0078142Y0241577D02*
X0079742Y0241577D01*
X0079742Y0243175D02*
X0078142Y0243175D01*
X0078142Y0244774D02*
X0079742Y0244774D01*
X0072407Y0249569D02*
X0095800Y0249569D01*
X0095800Y0247971D02*
X0071418Y0247971D01*
X0073165Y0251168D02*
X0095800Y0251168D01*
X0095800Y0252766D02*
X0073593Y0252766D01*
X0073772Y0254365D02*
X0095800Y0254365D01*
X0095800Y0255963D02*
X0092516Y0255963D01*
X0095075Y0257562D02*
X0095800Y0257562D01*
X0090335Y0262359D02*
X0094776Y0266800D01*
X0099800Y0266800D01*
X0090335Y0272202D02*
X0104934Y0286800D01*
X0140800Y0286800D01*
X0151950Y0297950D01*
X0151950Y0298013D01*
X0156834Y0302320D02*
X0158876Y0302320D01*
X0160474Y0303919D02*
X0155236Y0303919D01*
X0148663Y0303919D02*
X0143425Y0303919D01*
X0145023Y0302320D02*
X0147065Y0302320D01*
X0136852Y0303919D02*
X0130874Y0303919D01*
X0132472Y0302320D02*
X0135254Y0302320D01*
X0134631Y0294328D02*
X0133520Y0294328D01*
X0131921Y0292729D02*
X0136230Y0292729D01*
X0139474Y0291131D02*
X0073729Y0291131D01*
X0073772Y0290972D02*
X0073022Y0293768D01*
X0071575Y0296276D01*
X0069528Y0298323D01*
X0067020Y0299770D01*
X0064224Y0300520D01*
X0061329Y0300520D01*
X0058532Y0299770D01*
X0056025Y0298323D01*
X0053978Y0296276D01*
X0052530Y0293768D01*
X0051781Y0290972D01*
X0051781Y0288077D01*
X0052530Y0285280D01*
X0053978Y0282773D01*
X0056025Y0280726D01*
X0058532Y0279278D01*
X0061329Y0278529D01*
X0064224Y0278529D01*
X0067020Y0279278D01*
X0069528Y0280726D01*
X0071575Y0282773D01*
X0073022Y0285280D01*
X0073772Y0288077D01*
X0073772Y0290972D01*
X0073772Y0289532D02*
X0102009Y0289532D01*
X0100411Y0287934D02*
X0073733Y0287934D01*
X0073305Y0286335D02*
X0087151Y0286335D01*
X0086855Y0286120D02*
X0087535Y0286614D01*
X0088284Y0286996D01*
X0089084Y0287256D01*
X0089915Y0287387D01*
X0090151Y0287387D01*
X0090151Y0282228D01*
X0084992Y0282228D01*
X0084992Y0282465D01*
X0085124Y0283295D01*
X0085384Y0284095D01*
X0085765Y0284845D01*
X0086260Y0285525D01*
X0086855Y0286120D01*
X0085710Y0284737D02*
X0072708Y0284737D01*
X0071785Y0283138D02*
X0085099Y0283138D01*
X0085005Y0281539D02*
X0070341Y0281539D01*
X0068168Y0279941D02*
X0085410Y0279941D01*
X0086480Y0278342D02*
X0005500Y0278342D01*
X0005500Y0276744D02*
X0085341Y0276744D01*
X0084256Y0275145D02*
X0005500Y0275145D01*
X0005500Y0273547D02*
X0083594Y0273547D01*
X0083592Y0271948D02*
X0005500Y0271948D01*
X0005500Y0270350D02*
X0083804Y0270350D01*
X0084466Y0268751D02*
X0005500Y0268751D01*
X0005500Y0267153D02*
X0085593Y0267153D01*
X0084360Y0265554D02*
X0065417Y0265554D01*
X0069045Y0263956D02*
X0083698Y0263956D01*
X0083592Y0262357D02*
X0070847Y0262357D01*
X0072078Y0260759D02*
X0083699Y0260759D01*
X0084361Y0259160D02*
X0073001Y0259160D01*
X0073441Y0257562D02*
X0085596Y0257562D01*
X0088155Y0255963D02*
X0073772Y0255963D01*
X0060136Y0265554D02*
X0005500Y0265554D01*
X0005500Y0263956D02*
X0056508Y0263956D01*
X0057385Y0279941D02*
X0005500Y0279941D01*
X0005500Y0281539D02*
X0055212Y0281539D01*
X0053767Y0283138D02*
X0021325Y0283138D01*
X0020768Y0282907D02*
X0024404Y0284413D01*
X0027187Y0287196D01*
X0028693Y0290832D01*
X0028693Y0294768D01*
X0027187Y0298404D01*
X0024404Y0301187D01*
X0020768Y0302693D01*
X0016832Y0302693D01*
X0013196Y0301187D01*
X0010413Y0298404D01*
X0008907Y0294768D01*
X0008907Y0290832D01*
X0010413Y0287196D01*
X0013196Y0284413D01*
X0016832Y0282907D01*
X0020768Y0282907D01*
X0016275Y0283138D02*
X0005500Y0283138D01*
X0005500Y0284737D02*
X0012873Y0284737D01*
X0011274Y0286335D02*
X0005500Y0286335D01*
X0005500Y0287934D02*
X0010108Y0287934D01*
X0009446Y0289532D02*
X0005500Y0289532D01*
X0005500Y0291131D02*
X0008907Y0291131D01*
X0008907Y0292729D02*
X0005500Y0292729D01*
X0005500Y0294328D02*
X0008907Y0294328D01*
X0009387Y0295926D02*
X0005500Y0295926D01*
X0005500Y0297525D02*
X0010049Y0297525D01*
X0011132Y0299123D02*
X0005500Y0299123D01*
X0005500Y0300722D02*
X0012731Y0300722D01*
X0015932Y0302320D02*
X0005500Y0302320D01*
X0005500Y0303919D02*
X0124726Y0303919D01*
X0123128Y0302320D02*
X0119232Y0302320D01*
X0120831Y0300722D02*
X0121529Y0300722D01*
X0116328Y0300722D02*
X0116327Y0300722D01*
X0116327Y0302320D02*
X0116328Y0302320D01*
X0113423Y0302320D02*
X0107421Y0302320D01*
X0106629Y0303113D02*
X0104517Y0303113D01*
X0104517Y0298013D01*
X0109617Y0298013D01*
X0109617Y0300125D01*
X0106629Y0303113D01*
X0104516Y0303113D02*
X0102404Y0303113D01*
X0099417Y0300125D01*
X0099417Y0298013D01*
X0104516Y0298013D01*
X0104516Y0298013D01*
X0104516Y0303113D01*
X0104516Y0302320D02*
X0104517Y0302320D01*
X0104516Y0300722D02*
X0104517Y0300722D01*
X0104516Y0299123D02*
X0104517Y0299123D01*
X0104517Y0298013D02*
X0104516Y0298013D01*
X0099417Y0298013D01*
X0099417Y0295900D01*
X0102404Y0292913D01*
X0104516Y0292913D01*
X0104516Y0298012D01*
X0104517Y0298012D01*
X0104517Y0292913D01*
X0106629Y0292913D01*
X0109617Y0295900D01*
X0109617Y0298013D01*
X0104517Y0298013D01*
X0104517Y0298013D01*
X0104516Y0297525D02*
X0104517Y0297525D01*
X0104516Y0295926D02*
X0104517Y0295926D01*
X0104516Y0294328D02*
X0104517Y0294328D01*
X0108044Y0294328D02*
X0112800Y0294328D01*
X0111228Y0295926D02*
X0109617Y0295926D01*
X0109617Y0297525D02*
X0111228Y0297525D01*
X0111228Y0299123D02*
X0109617Y0299123D01*
X0109020Y0300722D02*
X0111824Y0300722D01*
X0116327Y0299123D02*
X0116328Y0299123D01*
X0116327Y0297525D02*
X0116328Y0297525D01*
X0116327Y0295926D02*
X0116328Y0295926D01*
X0116327Y0294328D02*
X0116328Y0294328D01*
X0119855Y0294328D02*
X0122080Y0294328D01*
X0123679Y0292729D02*
X0073301Y0292729D01*
X0072700Y0294328D02*
X0089178Y0294328D01*
X0090593Y0292913D02*
X0087606Y0295900D01*
X0087606Y0298013D01*
X0092705Y0298013D01*
X0092705Y0298013D01*
X0092705Y0303113D01*
X0090593Y0303113D01*
X0087606Y0300125D01*
X0087606Y0298013D01*
X0092705Y0298013D01*
X0092706Y0298013D01*
X0097805Y0298013D01*
X0097805Y0300125D01*
X0094818Y0303113D01*
X0092706Y0303113D01*
X0092706Y0298013D01*
X0092706Y0298013D01*
X0097805Y0298013D01*
X0097805Y0295900D01*
X0094818Y0292913D01*
X0092706Y0292913D01*
X0092706Y0298012D01*
X0092705Y0298012D01*
X0092705Y0292913D01*
X0090593Y0292913D01*
X0092705Y0294328D02*
X0092706Y0294328D01*
X0092705Y0295926D02*
X0092706Y0295926D01*
X0092705Y0297525D02*
X0092706Y0297525D01*
X0092705Y0299123D02*
X0092706Y0299123D01*
X0092705Y0300722D02*
X0092706Y0300722D01*
X0092705Y0302320D02*
X0092706Y0302320D01*
X0095610Y0302320D02*
X0101612Y0302320D01*
X0100013Y0300722D02*
X0097209Y0300722D01*
X0097805Y0299123D02*
X0099417Y0299123D01*
X0099417Y0297525D02*
X0097805Y0297525D01*
X0097805Y0295926D02*
X0099417Y0295926D01*
X0100989Y0294328D02*
X0096233Y0294328D01*
X0098812Y0286335D02*
X0093520Y0286335D01*
X0094961Y0284737D02*
X0097214Y0284737D01*
X0095615Y0283138D02*
X0095572Y0283138D01*
X0090520Y0283138D02*
X0090151Y0283138D01*
X0090151Y0284737D02*
X0090520Y0284737D01*
X0090520Y0286335D02*
X0090151Y0286335D01*
X0087606Y0295926D02*
X0071777Y0295926D01*
X0070326Y0297525D02*
X0087606Y0297525D01*
X0087606Y0299123D02*
X0068141Y0299123D01*
X0057411Y0299123D02*
X0026468Y0299123D01*
X0027551Y0297525D02*
X0055227Y0297525D01*
X0053776Y0295926D02*
X0028213Y0295926D01*
X0028693Y0294328D02*
X0052853Y0294328D01*
X0052252Y0292729D02*
X0028693Y0292729D01*
X0028693Y0291131D02*
X0051824Y0291131D01*
X0051781Y0289532D02*
X0028154Y0289532D01*
X0027492Y0287934D02*
X0051820Y0287934D01*
X0052248Y0286335D02*
X0026326Y0286335D01*
X0024727Y0284737D02*
X0052844Y0284737D01*
X0024869Y0300722D02*
X0088202Y0300722D01*
X0089801Y0302320D02*
X0021668Y0302320D01*
X0005500Y0305517D02*
X0257801Y0305517D01*
X0257801Y0303919D02*
X0226102Y0303919D01*
X0227701Y0302320D02*
X0240932Y0302320D01*
X0241832Y0302693D02*
X0238196Y0301187D01*
X0235413Y0298404D01*
X0233907Y0294768D01*
X0233907Y0290832D01*
X0235413Y0287196D01*
X0238196Y0284413D01*
X0241832Y0282907D01*
X0245768Y0282907D01*
X0249404Y0284413D01*
X0252187Y0287196D01*
X0253693Y0290832D01*
X0253693Y0294768D01*
X0252187Y0298404D01*
X0249404Y0301187D01*
X0245768Y0302693D01*
X0241832Y0302693D01*
X0237731Y0300722D02*
X0229299Y0300722D01*
X0229316Y0299123D02*
X0236132Y0299123D01*
X0235049Y0297525D02*
X0229316Y0297525D01*
X0229316Y0295926D02*
X0234387Y0295926D01*
X0233907Y0294328D02*
X0228323Y0294328D01*
X0226725Y0292729D02*
X0233907Y0292729D01*
X0233907Y0291131D02*
X0223800Y0291131D01*
X0223800Y0289532D02*
X0234446Y0289532D01*
X0235108Y0287934D02*
X0223800Y0287934D01*
X0223800Y0286335D02*
X0236274Y0286335D01*
X0237873Y0284737D02*
X0223800Y0284737D01*
X0223800Y0283138D02*
X0241275Y0283138D01*
X0246325Y0283138D02*
X0257801Y0283138D01*
X0257801Y0284737D02*
X0249727Y0284737D01*
X0251326Y0286335D02*
X0257801Y0286335D01*
X0257801Y0287934D02*
X0252492Y0287934D01*
X0253154Y0289532D02*
X0257801Y0289532D01*
X0257801Y0291131D02*
X0253693Y0291131D01*
X0253693Y0292729D02*
X0257801Y0292729D01*
X0257801Y0294328D02*
X0253693Y0294328D01*
X0253213Y0295926D02*
X0257801Y0295926D01*
X0257801Y0297525D02*
X0252551Y0297525D01*
X0251468Y0299123D02*
X0257801Y0299123D01*
X0257801Y0300722D02*
X0249869Y0300722D01*
X0246668Y0302320D02*
X0257801Y0302320D01*
X0257801Y0281539D02*
X0223800Y0281539D01*
X0223800Y0279941D02*
X0257801Y0279941D01*
X0257801Y0278342D02*
X0223800Y0278342D01*
X0223800Y0276744D02*
X0257801Y0276744D01*
X0257801Y0275145D02*
X0223800Y0275145D01*
X0223800Y0273547D02*
X0257801Y0273547D01*
X0257801Y0271948D02*
X0223800Y0271948D01*
X0223800Y0270350D02*
X0257801Y0270350D01*
X0257801Y0268751D02*
X0223800Y0268751D01*
X0223447Y0267153D02*
X0257801Y0267153D01*
X0241900Y0247043D02*
X0244800Y0244143D01*
X0244800Y0216457D01*
X0222694Y0194350D01*
X0217573Y0194350D01*
X0216289Y0193818D01*
X0215305Y0192835D01*
X0214773Y0191550D01*
X0214773Y0188388D01*
X0215154Y0187469D01*
X0214773Y0186550D01*
X0214773Y0183388D01*
X0215154Y0182469D01*
X0214773Y0181550D01*
X0214773Y0178388D01*
X0215154Y0177469D01*
X0215047Y0177210D01*
X0198800Y0193457D01*
X0198800Y0207439D01*
X0200044Y0208683D01*
X0201626Y0207101D01*
X0203844Y0206183D01*
X0206244Y0206183D01*
X0208462Y0207101D01*
X0210044Y0208683D01*
X0211626Y0207101D01*
X0213844Y0206183D01*
X0216244Y0206183D01*
X0218462Y0207101D01*
X0220160Y0208799D01*
X0221079Y0211017D01*
X0221079Y0219087D01*
X0220160Y0221305D01*
X0219044Y0222421D01*
X0219044Y0262387D01*
X0222066Y0265409D01*
X0220613Y0263956D02*
X0233763Y0263956D01*
X0232165Y0262357D02*
X0219044Y0262357D01*
X0219044Y0260759D02*
X0230566Y0260759D01*
X0230300Y0259160D02*
X0219044Y0259160D01*
X0219044Y0257562D02*
X0230300Y0257562D01*
X0230300Y0255963D02*
X0219044Y0255963D01*
X0219044Y0254365D02*
X0231043Y0254365D01*
X0232641Y0252766D02*
X0219044Y0252766D01*
X0219044Y0251168D02*
X0232955Y0251168D01*
X0231700Y0249569D02*
X0219044Y0249569D01*
X0219044Y0247971D02*
X0231700Y0247971D01*
X0231700Y0247800D02*
X0231700Y0245688D01*
X0233779Y0243609D01*
X0230379Y0240209D01*
X0230379Y0234824D01*
X0232505Y0232698D01*
X0230300Y0230492D01*
X0230300Y0225108D01*
X0234108Y0221300D01*
X0239492Y0221300D01*
X0243300Y0225108D01*
X0243300Y0230492D01*
X0241173Y0232619D01*
X0243379Y0234824D01*
X0243379Y0240209D01*
X0239900Y0243688D01*
X0241900Y0245688D01*
X0241900Y0247043D01*
X0241900Y0246372D02*
X0242571Y0246372D01*
X0240986Y0244774D02*
X0244169Y0244774D01*
X0244800Y0243175D02*
X0240412Y0243175D01*
X0242011Y0241577D02*
X0244800Y0241577D01*
X0244800Y0239978D02*
X0243379Y0239978D01*
X0243379Y0238380D02*
X0244800Y0238380D01*
X0244800Y0236781D02*
X0243379Y0236781D01*
X0243379Y0235183D02*
X0244800Y0235183D01*
X0244800Y0233584D02*
X0242139Y0233584D01*
X0241807Y0231986D02*
X0244800Y0231986D01*
X0244800Y0230387D02*
X0243300Y0230387D01*
X0243300Y0228789D02*
X0244800Y0228789D01*
X0244800Y0227190D02*
X0243300Y0227190D01*
X0243300Y0225592D02*
X0244800Y0225592D01*
X0244800Y0223993D02*
X0242185Y0223993D01*
X0240587Y0222395D02*
X0244800Y0222395D01*
X0244800Y0220796D02*
X0220371Y0220796D01*
X0221033Y0219198D02*
X0244800Y0219198D01*
X0244800Y0217599D02*
X0221079Y0217599D01*
X0221079Y0216001D02*
X0244344Y0216001D01*
X0242745Y0214402D02*
X0221079Y0214402D01*
X0221079Y0212803D02*
X0241147Y0212803D01*
X0239548Y0211205D02*
X0221079Y0211205D01*
X0220494Y0209606D02*
X0237950Y0209606D01*
X0236351Y0208008D02*
X0219369Y0208008D01*
X0216792Y0206409D02*
X0234753Y0206409D01*
X0233154Y0204811D02*
X0198800Y0204811D01*
X0198800Y0206409D02*
X0203296Y0206409D01*
X0200719Y0208008D02*
X0199369Y0208008D01*
X0198800Y0203212D02*
X0231556Y0203212D01*
X0229957Y0201614D02*
X0198800Y0201614D01*
X0198800Y0200015D02*
X0228359Y0200015D01*
X0226760Y0198417D02*
X0198800Y0198417D01*
X0198800Y0196818D02*
X0225162Y0196818D01*
X0223563Y0195220D02*
X0198800Y0195220D01*
X0198800Y0193621D02*
X0216092Y0193621D01*
X0214969Y0192023D02*
X0200234Y0192023D01*
X0201833Y0190424D02*
X0214773Y0190424D01*
X0214773Y0188826D02*
X0203431Y0188826D01*
X0205030Y0187227D02*
X0215054Y0187227D01*
X0214773Y0185629D02*
X0206628Y0185629D01*
X0208227Y0184030D02*
X0214773Y0184030D01*
X0215138Y0182432D02*
X0209825Y0182432D01*
X0211424Y0180833D02*
X0214773Y0180833D01*
X0214773Y0179235D02*
X0213022Y0179235D01*
X0214621Y0177636D02*
X0215085Y0177636D01*
X0222028Y0179969D02*
X0232371Y0179969D01*
X0243902Y0168438D01*
X0241800Y0160800D02*
X0241800Y0155540D01*
X0243902Y0153438D01*
X0241800Y0160800D02*
X0227631Y0174969D01*
X0222028Y0174969D01*
X0222028Y0169969D02*
X0226631Y0169969D01*
X0236800Y0159800D01*
X0236800Y0151800D01*
X0242800Y0145800D01*
X0242800Y0139540D01*
X0243902Y0138438D01*
X0238800Y0142528D02*
X0238800Y0144143D01*
X0233409Y0149534D01*
X0232800Y0151004D01*
X0232800Y0158143D01*
X0227714Y0163229D01*
X0227465Y0162797D01*
X0227137Y0162469D01*
X0227465Y0162142D01*
X0227741Y0161664D01*
X0227883Y0161131D01*
X0227883Y0159969D01*
X0222028Y0159969D01*
X0216173Y0159969D01*
X0216173Y0158808D01*
X0216195Y0158725D01*
X0215305Y0157835D01*
X0214773Y0156550D01*
X0214773Y0153388D01*
X0215154Y0152469D01*
X0214773Y0151550D01*
X0214773Y0148388D01*
X0215154Y0147469D01*
X0214773Y0146550D01*
X0214773Y0143388D01*
X0215154Y0142469D01*
X0192368Y0142469D01*
X0192367Y0142469D02*
X0192748Y0143388D01*
X0192748Y0146550D01*
X0192367Y0147469D01*
X0192748Y0148388D01*
X0192748Y0151550D01*
X0192367Y0152469D01*
X0192748Y0153388D01*
X0192748Y0156550D01*
X0192367Y0157469D01*
X0192748Y0158388D01*
X0192748Y0161550D01*
X0192367Y0162469D01*
X0192748Y0163388D01*
X0192748Y0166550D01*
X0192367Y0167469D01*
X0192748Y0168388D01*
X0192748Y0171550D01*
X0192367Y0172469D01*
X0192748Y0173388D01*
X0192748Y0176550D01*
X0192367Y0177469D01*
X0192748Y0178388D01*
X0192748Y0181550D01*
X0192367Y0182469D01*
X0192748Y0183388D01*
X0192748Y0186550D01*
X0192367Y0187469D01*
X0192691Y0188252D01*
X0214534Y0166409D01*
X0216004Y0165800D01*
X0216173Y0165800D01*
X0216173Y0164969D01*
X0216173Y0163808D01*
X0216316Y0163275D01*
X0216592Y0162797D01*
X0216920Y0162469D01*
X0216592Y0162142D01*
X0216316Y0161664D01*
X0216173Y0161131D01*
X0216173Y0159969D01*
X0222028Y0159969D01*
X0222028Y0159969D01*
X0221859Y0159800D01*
X0216800Y0159800D01*
X0191969Y0134969D01*
X0185493Y0134969D01*
X0185493Y0131988D01*
X0189529Y0131988D01*
X0190062Y0132131D01*
X0190539Y0132407D01*
X0190929Y0132797D01*
X0191205Y0133275D01*
X0191348Y0133808D01*
X0191348Y0134969D01*
X0185493Y0134969D01*
X0185493Y0134969D01*
X0185493Y0134969D01*
X0185493Y0131988D01*
X0181457Y0131988D01*
X0180924Y0132131D01*
X0180447Y0132407D01*
X0180237Y0132617D01*
X0179452Y0131832D01*
X0177731Y0131119D01*
X0175869Y0131119D01*
X0174148Y0131832D01*
X0172832Y0133148D01*
X0172119Y0134869D01*
X0172119Y0136731D01*
X0172832Y0138452D01*
X0173193Y0138813D01*
X0173148Y0138832D01*
X0171832Y0140148D01*
X0171119Y0141869D01*
X0171119Y0143731D01*
X0171832Y0145452D01*
X0172743Y0146363D01*
X0172119Y0147869D01*
X0172119Y0149731D01*
X0172832Y0151452D01*
X0173180Y0151800D01*
X0172832Y0152148D01*
X0172119Y0153869D01*
X0172119Y0155462D01*
X0169800Y0153143D01*
X0169800Y0122457D01*
X0173150Y0125807D01*
X0173832Y0127452D01*
X0175148Y0128768D01*
X0176869Y0129481D01*
X0178731Y0129481D01*
X0180452Y0128768D01*
X0181768Y0127452D01*
X0182481Y0125731D01*
X0182481Y0123869D01*
X0181768Y0122148D01*
X0180452Y0120832D01*
X0178807Y0120150D01*
X0175165Y0116508D01*
X0175165Y0079564D01*
X0176328Y0079083D01*
X0177228Y0078182D01*
X0177715Y0077006D01*
X0177715Y0076372D01*
X0184150Y0082807D01*
X0184832Y0084452D01*
X0186148Y0085768D01*
X0187869Y0086481D01*
X0189731Y0086481D01*
X0191452Y0085768D01*
X0192768Y0084452D01*
X0193481Y0082731D01*
X0193481Y0080869D01*
X0192768Y0079148D01*
X0191452Y0077832D01*
X0189807Y0077150D01*
X0179585Y0066929D01*
X0178115Y0066320D01*
X0177715Y0066320D01*
X0177715Y0063633D01*
X0177688Y0063568D01*
X0186066Y0055191D01*
X0186800Y0054457D01*
X0186800Y0057596D01*
X0187409Y0059066D01*
X0194409Y0066066D01*
X0195534Y0067191D01*
X0197004Y0067800D01*
X0203143Y0067800D01*
X0206085Y0070742D01*
X0206085Y0076413D01*
X0206573Y0077589D01*
X0206956Y0077973D01*
X0207409Y0079066D01*
X0209409Y0081066D01*
X0210534Y0082191D01*
X0212004Y0082800D01*
X0220679Y0082800D01*
X0221335Y0083457D01*
X0221335Y0086277D01*
X0218649Y0086277D01*
X0217835Y0086614D01*
X0217022Y0086277D01*
X0213649Y0086277D01*
X0212473Y0086764D01*
X0211573Y0087664D01*
X0211567Y0087677D01*
X0210335Y0087677D01*
X0210335Y0092827D01*
X0210335Y0092827D01*
X0207485Y0092827D01*
X0207485Y0096414D01*
X0207608Y0096872D01*
X0207845Y0097282D01*
X0208180Y0097617D01*
X0208273Y0097670D01*
X0206534Y0099409D01*
X0205409Y0100534D01*
X0204800Y0102004D01*
X0204800Y0125225D01*
X0204119Y0126869D01*
X0204119Y0128731D01*
X0204832Y0130452D01*
X0206148Y0131768D01*
X0207869Y0132481D01*
X0209731Y0132481D01*
X0211375Y0131800D01*
X0213202Y0131800D01*
X0214778Y0133376D01*
X0214773Y0133388D01*
X0214773Y0136550D01*
X0215154Y0137469D01*
X0214773Y0138388D01*
X0214773Y0141550D01*
X0215154Y0142469D01*
X0214773Y0140870D02*
X0192748Y0140870D01*
X0192748Y0141550D02*
X0192367Y0142469D01*
X0192748Y0141550D02*
X0192748Y0138388D01*
X0192216Y0137104D01*
X0191326Y0136214D01*
X0191348Y0136131D01*
X0191348Y0134969D01*
X0185493Y0134969D01*
X0185493Y0134476D02*
X0185493Y0134476D01*
X0185493Y0132878D02*
X0185493Y0132878D01*
X0190976Y0132878D02*
X0214280Y0132878D01*
X0214773Y0134476D02*
X0191348Y0134476D01*
X0191969Y0134969D02*
X0196800Y0130139D01*
X0196800Y0083800D01*
X0199800Y0083800D01*
X0201309Y0083800D01*
X0205554Y0088046D01*
X0208800Y0084800D01*
X0219800Y0084800D01*
X0222800Y0087800D01*
X0222800Y0102800D01*
X0220800Y0104800D01*
X0220800Y0111800D01*
X0221800Y0112800D01*
X0225020Y0112800D01*
X0225131Y0112910D01*
X0225131Y0112910D01*
X0228702Y0112910D01*
X0228702Y0111888D01*
X0228715Y0111883D01*
X0229615Y0110983D01*
X0229806Y0110521D01*
X0230507Y0111221D01*
X0230520Y0111227D01*
X0230520Y0112950D01*
X0234793Y0112950D01*
X0234793Y0113909D01*
X0230520Y0113909D01*
X0230520Y0116119D01*
X0229869Y0116119D01*
X0228148Y0116832D01*
X0226832Y0118148D01*
X0226119Y0119869D01*
X0226119Y0121731D01*
X0226832Y0123452D01*
X0227383Y0124003D01*
X0227409Y0124066D01*
X0228534Y0125191D01*
X0230004Y0125800D01*
X0230800Y0125800D01*
X0230800Y0128143D01*
X0220450Y0117793D01*
X0219800Y0116225D01*
X0219800Y0105457D01*
X0220640Y0104617D01*
X0220159Y0105778D01*
X0220159Y0109807D01*
X0220646Y0110983D01*
X0221546Y0111883D01*
X0221559Y0111888D01*
X0221559Y0112910D01*
X0225131Y0112910D01*
X0228702Y0112910D01*
X0228702Y0114525D01*
X0228580Y0114983D01*
X0228343Y0115393D01*
X0228008Y0115729D01*
X0227597Y0115966D01*
X0227139Y0116088D01*
X0225131Y0116088D01*
X0225131Y0112910D01*
X0225650Y0113430D01*
X0235272Y0113430D01*
X0234793Y0113696D02*
X0228702Y0113696D01*
X0228702Y0112097D02*
X0230520Y0112097D01*
X0225131Y0107792D02*
X0226800Y0106123D01*
X0226800Y0100800D01*
X0230335Y0097265D01*
X0230335Y0092827D01*
X0225335Y0092827D02*
X0225335Y0086800D01*
X0225335Y0081800D01*
X0222335Y0078800D01*
X0212800Y0078800D01*
X0210800Y0076800D01*
X0210800Y0071962D01*
X0210335Y0072427D01*
X0210800Y0071962D02*
X0210800Y0069800D01*
X0204800Y0063800D01*
X0197800Y0063800D01*
X0190800Y0056800D01*
X0190800Y0029800D01*
X0178800Y0017800D01*
X0181245Y0014588D02*
X0235837Y0014588D01*
X0236413Y0013196D02*
X0239196Y0010413D01*
X0242832Y0008907D01*
X0246768Y0008907D01*
X0250404Y0010413D01*
X0253187Y0013196D01*
X0254693Y0016832D01*
X0254693Y0020768D01*
X0253187Y0024404D01*
X0250404Y0027187D01*
X0246768Y0028693D01*
X0242832Y0028693D01*
X0239196Y0027187D01*
X0236413Y0024404D01*
X0234907Y0020768D01*
X0234907Y0016832D01*
X0236413Y0013196D01*
X0236620Y0012990D02*
X0117646Y0012990D01*
X0116048Y0011391D02*
X0238218Y0011391D01*
X0240694Y0009793D02*
X0114449Y0009793D01*
X0112851Y0008194D02*
X0257801Y0008194D01*
X0257801Y0006596D02*
X0110726Y0006596D01*
X0142118Y0041800D02*
X0142118Y0044775D01*
X0141893Y0045320D01*
X0141965Y0045493D01*
X0142869Y0045119D01*
X0144731Y0045119D01*
X0145615Y0045485D01*
X0145615Y0045320D01*
X0150765Y0045320D01*
X0150765Y0045320D01*
X0145615Y0045320D01*
X0145615Y0044033D01*
X0145738Y0043575D01*
X0145975Y0043164D01*
X0146310Y0042829D01*
X0146721Y0042592D01*
X0147178Y0042470D01*
X0150765Y0042470D01*
X0150765Y0045320D01*
X0148746Y0043300D01*
X0143800Y0043300D01*
X0142118Y0043361D02*
X0145861Y0043361D01*
X0145615Y0044960D02*
X0142042Y0044960D01*
X0142118Y0041800D02*
X0165760Y0041800D01*
X0165103Y0042457D01*
X0164615Y0043633D01*
X0164615Y0047006D01*
X0164952Y0047820D01*
X0164615Y0048633D01*
X0164615Y0051320D01*
X0164076Y0051320D01*
X0162485Y0051320D01*
X0161014Y0051929D01*
X0157315Y0055628D01*
X0157315Y0053633D01*
X0156978Y0052820D01*
X0157315Y0052006D01*
X0157315Y0048633D01*
X0156828Y0047457D01*
X0155928Y0046557D01*
X0155915Y0046552D01*
X0155915Y0045320D01*
X0150765Y0045320D01*
X0150765Y0045320D01*
X0150765Y0045320D01*
X0150765Y0042470D01*
X0154352Y0042470D01*
X0154810Y0042592D01*
X0155221Y0042829D01*
X0155556Y0043164D01*
X0155793Y0043575D01*
X0155915Y0044033D01*
X0155915Y0045320D01*
X0150765Y0045320D01*
X0150765Y0044960D02*
X0150765Y0044960D01*
X0150765Y0043361D02*
X0150765Y0043361D01*
X0155669Y0043361D02*
X0164728Y0043361D01*
X0164615Y0044960D02*
X0155915Y0044960D01*
X0155929Y0046558D02*
X0164615Y0046558D01*
X0164813Y0048157D02*
X0157118Y0048157D01*
X0157315Y0049755D02*
X0164615Y0049755D01*
X0162402Y0051354D02*
X0157315Y0051354D01*
X0157033Y0052952D02*
X0159991Y0052952D01*
X0158392Y0054551D02*
X0157315Y0054551D01*
X0150765Y0055320D02*
X0144280Y0055320D01*
X0143800Y0055800D01*
X0144320Y0050320D02*
X0143800Y0049800D01*
X0144320Y0050320D02*
X0150765Y0050320D01*
X0150765Y0060320D02*
X0137225Y0060320D01*
X0135965Y0061580D01*
X0135965Y0049060D01*
X0146225Y0075320D02*
X0150765Y0075320D01*
X0171165Y0075320D02*
X0171165Y0118165D01*
X0177800Y0124800D01*
X0181138Y0128082D02*
X0204119Y0128082D01*
X0204278Y0126484D02*
X0182169Y0126484D01*
X0182481Y0124885D02*
X0204800Y0124885D01*
X0204800Y0123287D02*
X0182240Y0123287D01*
X0181308Y0121688D02*
X0204800Y0121688D01*
X0204800Y0120090D02*
X0178747Y0120090D01*
X0177148Y0118491D02*
X0204800Y0118491D01*
X0204800Y0116893D02*
X0175550Y0116893D01*
X0175165Y0115294D02*
X0204800Y0115294D01*
X0204800Y0113696D02*
X0175165Y0113696D01*
X0175165Y0112097D02*
X0204800Y0112097D01*
X0204800Y0110499D02*
X0175165Y0110499D01*
X0175165Y0108900D02*
X0204800Y0108900D01*
X0204800Y0107302D02*
X0175165Y0107302D01*
X0175165Y0105703D02*
X0204800Y0105703D01*
X0204800Y0104105D02*
X0175165Y0104105D01*
X0175165Y0102506D02*
X0204800Y0102506D01*
X0205254Y0100908D02*
X0175165Y0100908D01*
X0175165Y0099309D02*
X0206634Y0099309D01*
X0208232Y0097711D02*
X0175165Y0097711D01*
X0175165Y0096112D02*
X0207485Y0096112D01*
X0207485Y0094514D02*
X0175165Y0094514D01*
X0175165Y0092915D02*
X0207485Y0092915D01*
X0207485Y0092827D02*
X0207485Y0089240D01*
X0207608Y0088782D01*
X0207845Y0088372D01*
X0208180Y0088036D01*
X0208591Y0087799D01*
X0209048Y0087677D01*
X0210335Y0087677D01*
X0210335Y0092827D01*
X0207485Y0092827D01*
X0207485Y0091317D02*
X0175165Y0091317D01*
X0175165Y0089718D02*
X0207485Y0089718D01*
X0208097Y0088120D02*
X0175165Y0088120D01*
X0175165Y0086521D02*
X0213059Y0086521D01*
X0210335Y0088120D02*
X0210335Y0088120D01*
X0210335Y0089718D02*
X0210335Y0089718D01*
X0210335Y0091265D02*
X0210335Y0092827D01*
X0205554Y0088046D01*
X0210335Y0091317D02*
X0210335Y0091317D01*
X0210335Y0092827D02*
X0210335Y0092827D01*
X0215335Y0092827D02*
X0215335Y0096265D01*
X0208800Y0102800D01*
X0208800Y0127800D01*
X0214859Y0127800D01*
X0222028Y0134969D01*
X0221859Y0134800D01*
X0223198Y0138800D02*
X0222028Y0139969D01*
X0223198Y0138800D02*
X0228800Y0138800D01*
X0230800Y0136800D01*
X0230800Y0133800D01*
X0215800Y0118800D01*
X0215800Y0103800D01*
X0220335Y0099265D01*
X0220335Y0092827D01*
X0218059Y0086521D02*
X0217612Y0086521D01*
X0221335Y0084923D02*
X0192297Y0084923D01*
X0193235Y0083324D02*
X0221203Y0083324D01*
X0225335Y0081800D02*
X0225335Y0072427D01*
X0220335Y0072427D02*
X0219800Y0071891D01*
X0219800Y0053761D01*
X0222209Y0051351D01*
X0228998Y0057748D02*
X0257801Y0057748D01*
X0257801Y0059346D02*
X0228850Y0059346D01*
X0229602Y0060945D02*
X0257801Y0060945D01*
X0257801Y0062543D02*
X0231200Y0062543D01*
X0230335Y0067335D02*
X0224800Y0061800D01*
X0230335Y0067335D02*
X0230335Y0072427D01*
X0235335Y0072427D02*
X0235335Y0076335D01*
X0245800Y0086800D01*
X0245800Y0112800D01*
X0237800Y0120800D01*
X0234800Y0120800D01*
X0234800Y0137800D01*
X0227631Y0144969D01*
X0222028Y0144969D01*
X0229283Y0148614D02*
X0229283Y0151550D01*
X0228903Y0152469D01*
X0229283Y0153388D01*
X0229283Y0156550D01*
X0228751Y0157835D01*
X0227861Y0158725D01*
X0227883Y0158808D01*
X0227883Y0159969D01*
X0222028Y0159969D01*
X0222028Y0164969D01*
X0216173Y0164969D01*
X0222028Y0164969D01*
X0222028Y0164969D01*
X0222028Y0164969D01*
X0222028Y0159969D01*
X0222028Y0159969D01*
X0222028Y0159969D01*
X0222028Y0162950D01*
X0222028Y0164969D01*
X0222028Y0164848D02*
X0222028Y0164848D01*
X0222028Y0163250D02*
X0222028Y0163250D01*
X0222028Y0161651D02*
X0222028Y0161651D01*
X0222028Y0160053D02*
X0222028Y0160053D01*
X0216173Y0160053D02*
X0192748Y0160053D01*
X0192706Y0161651D02*
X0216313Y0161651D01*
X0216330Y0163250D02*
X0192691Y0163250D01*
X0192748Y0164848D02*
X0216173Y0164848D01*
X0214496Y0166447D02*
X0192748Y0166447D01*
X0192606Y0168045D02*
X0212898Y0168045D01*
X0211299Y0169644D02*
X0192748Y0169644D01*
X0192748Y0171242D02*
X0209701Y0171242D01*
X0208102Y0172841D02*
X0192521Y0172841D01*
X0192748Y0174439D02*
X0206504Y0174439D01*
X0204905Y0176038D02*
X0192748Y0176038D01*
X0192437Y0177636D02*
X0203307Y0177636D01*
X0201708Y0179235D02*
X0192748Y0179235D01*
X0192748Y0180833D02*
X0200110Y0180833D01*
X0198511Y0182432D02*
X0192383Y0182432D01*
X0192748Y0184030D02*
X0196913Y0184030D01*
X0195314Y0185629D02*
X0192748Y0185629D01*
X0192468Y0187227D02*
X0193716Y0187227D01*
X0194800Y0191800D02*
X0194800Y0214808D01*
X0195044Y0215052D01*
X0205044Y0215052D02*
X0205800Y0215808D01*
X0205800Y0264800D01*
X0209800Y0268800D01*
X0209800Y0296808D01*
X0211005Y0298013D01*
X0215890Y0302320D02*
X0217931Y0302320D01*
X0219529Y0303919D02*
X0214291Y0303919D01*
X0207718Y0303919D02*
X0202480Y0303919D01*
X0204079Y0302320D02*
X0206120Y0302320D01*
X0195907Y0303919D02*
X0190669Y0303919D01*
X0192268Y0302320D02*
X0194309Y0302320D01*
X0184096Y0303919D02*
X0178858Y0303919D01*
X0180456Y0302320D02*
X0182498Y0302320D01*
X0172285Y0303919D02*
X0167047Y0303919D01*
X0168645Y0302320D02*
X0170687Y0302320D01*
X0165044Y0275052D02*
X0165044Y0270044D01*
X0158800Y0263800D01*
X0140800Y0263800D01*
X0121423Y0282800D02*
X0119928Y0281305D01*
X0119290Y0279763D01*
X0119008Y0280316D01*
X0118579Y0280906D01*
X0118063Y0281422D01*
X0117473Y0281851D01*
X0116823Y0282182D01*
X0116129Y0282407D01*
X0115409Y0282521D01*
X0115044Y0282521D01*
X0114679Y0282521D01*
X0113959Y0282407D01*
X0113265Y0282182D01*
X0112615Y0281851D01*
X0112025Y0281422D01*
X0111509Y0280906D01*
X0111080Y0280316D01*
X0110799Y0279763D01*
X0110160Y0281305D01*
X0108665Y0282800D01*
X0121423Y0282800D01*
X0120163Y0281539D02*
X0117901Y0281539D01*
X0119199Y0279941D02*
X0119363Y0279941D01*
X0115044Y0279941D02*
X0115044Y0279941D01*
X0115044Y0281539D02*
X0115044Y0281539D01*
X0115044Y0282521D02*
X0115044Y0275052D01*
X0115044Y0275052D01*
X0115044Y0282521D01*
X0112187Y0281539D02*
X0109925Y0281539D01*
X0110725Y0279941D02*
X0110889Y0279941D01*
X0115044Y0278342D02*
X0115044Y0278342D01*
X0115044Y0276744D02*
X0115044Y0276744D01*
X0115044Y0275145D02*
X0115044Y0275145D01*
X0159784Y0202414D02*
X0177186Y0202414D01*
X0185493Y0194107D01*
X0185493Y0189969D01*
X0194800Y0191800D02*
X0216800Y0169800D01*
X0221859Y0169800D01*
X0222028Y0169969D01*
X0227744Y0161651D02*
X0229292Y0161651D01*
X0227883Y0160053D02*
X0230891Y0160053D01*
X0232489Y0158454D02*
X0228132Y0158454D01*
X0229157Y0156856D02*
X0232800Y0156856D01*
X0232800Y0155257D02*
X0229283Y0155257D01*
X0229283Y0153659D02*
X0232800Y0153659D01*
X0232800Y0152060D02*
X0229072Y0152060D01*
X0229283Y0150462D02*
X0233025Y0150462D01*
X0234080Y0148863D02*
X0229283Y0148863D01*
X0229283Y0148614D02*
X0229897Y0148360D01*
X0237066Y0141191D01*
X0237402Y0140854D01*
X0237402Y0141130D01*
X0238800Y0142528D01*
X0238741Y0142469D02*
X0235788Y0142469D01*
X0237386Y0140870D02*
X0237402Y0140870D01*
X0238800Y0144068D02*
X0234189Y0144068D01*
X0232591Y0145666D02*
X0237277Y0145666D01*
X0235679Y0147265D02*
X0230992Y0147265D01*
X0215069Y0147265D02*
X0192452Y0147265D01*
X0192748Y0148863D02*
X0214773Y0148863D01*
X0214773Y0150462D02*
X0192748Y0150462D01*
X0192537Y0152060D02*
X0214984Y0152060D01*
X0214773Y0153659D02*
X0192748Y0153659D01*
X0192748Y0155257D02*
X0214773Y0155257D01*
X0214900Y0156856D02*
X0192622Y0156856D01*
X0192748Y0158454D02*
X0215924Y0158454D01*
X0214773Y0145666D02*
X0192748Y0145666D01*
X0192748Y0144068D02*
X0214773Y0144068D01*
X0214773Y0139272D02*
X0192748Y0139272D01*
X0192452Y0137673D02*
X0215069Y0137673D01*
X0214773Y0136075D02*
X0191348Y0136075D01*
X0185493Y0139969D02*
X0185324Y0139800D01*
X0180800Y0139800D01*
X0176800Y0135800D01*
X0175481Y0131279D02*
X0169800Y0131279D01*
X0169800Y0129681D02*
X0204512Y0129681D01*
X0205659Y0131279D02*
X0178119Y0131279D01*
X0174462Y0128082D02*
X0169800Y0128082D01*
X0169800Y0126484D02*
X0173431Y0126484D01*
X0172229Y0124885D02*
X0169800Y0124885D01*
X0169800Y0123287D02*
X0170630Y0123287D01*
X0169800Y0132878D02*
X0173102Y0132878D01*
X0172281Y0134476D02*
X0169800Y0134476D01*
X0169800Y0136075D02*
X0172119Y0136075D01*
X0172509Y0137673D02*
X0169800Y0137673D01*
X0169800Y0139272D02*
X0172708Y0139272D01*
X0171532Y0140870D02*
X0169800Y0140870D01*
X0169800Y0142469D02*
X0171119Y0142469D01*
X0171258Y0144068D02*
X0169800Y0144068D01*
X0169800Y0145666D02*
X0172046Y0145666D01*
X0172369Y0147265D02*
X0169800Y0147265D01*
X0169800Y0148863D02*
X0172119Y0148863D01*
X0172421Y0150462D02*
X0169800Y0150462D01*
X0169800Y0152060D02*
X0172920Y0152060D01*
X0172206Y0153659D02*
X0170315Y0153659D01*
X0171914Y0155257D02*
X0172119Y0155257D01*
X0176800Y0154800D02*
X0185324Y0154800D01*
X0185493Y0154969D01*
X0185493Y0149969D02*
X0185324Y0149800D01*
X0180800Y0149800D01*
X0179800Y0148800D01*
X0176800Y0148800D01*
X0181800Y0144800D02*
X0185324Y0144800D01*
X0185493Y0144969D01*
X0181800Y0144800D02*
X0179800Y0142800D01*
X0175800Y0142800D01*
X0183969Y0139969D02*
X0185493Y0139969D01*
X0220077Y0116893D02*
X0228087Y0116893D01*
X0228400Y0115294D02*
X0230520Y0115294D01*
X0230800Y0120800D02*
X0234800Y0120800D01*
X0230800Y0120800D02*
X0230800Y0121800D01*
X0228229Y0124885D02*
X0227542Y0124885D01*
X0226763Y0123287D02*
X0225944Y0123287D01*
X0226119Y0121688D02*
X0224345Y0121688D01*
X0222747Y0120090D02*
X0226119Y0120090D01*
X0226689Y0118491D02*
X0221148Y0118491D01*
X0222664Y0115966D02*
X0222254Y0115729D01*
X0221919Y0115393D01*
X0221682Y0114983D01*
X0221559Y0114525D01*
X0221559Y0112910D01*
X0225131Y0112910D01*
X0225131Y0112910D01*
X0225131Y0112910D01*
X0225131Y0116088D01*
X0223122Y0116088D01*
X0222664Y0115966D01*
X0221861Y0115294D02*
X0219800Y0115294D01*
X0219800Y0113696D02*
X0221559Y0113696D01*
X0221559Y0112097D02*
X0219800Y0112097D01*
X0219800Y0110499D02*
X0220446Y0110499D01*
X0220159Y0108900D02*
X0219800Y0108900D01*
X0219800Y0107302D02*
X0220159Y0107302D01*
X0220190Y0105703D02*
X0219800Y0105703D01*
X0221562Y0103695D02*
X0222800Y0102457D01*
X0222800Y0103214D01*
X0222723Y0103214D01*
X0221562Y0103695D01*
X0222751Y0102506D02*
X0222800Y0102506D01*
X0225131Y0113696D02*
X0225131Y0113696D01*
X0225131Y0115294D02*
X0225131Y0115294D01*
X0229141Y0126484D02*
X0230800Y0126484D01*
X0230800Y0128082D02*
X0230739Y0128082D01*
X0243902Y0124902D02*
X0243902Y0123438D01*
X0250800Y0116540D01*
X0250800Y0082800D01*
X0240427Y0072427D01*
X0240335Y0072427D01*
X0237800Y0086800D02*
X0225335Y0086800D01*
X0235335Y0092827D02*
X0235335Y0105887D01*
X0235272Y0105950D01*
X0240335Y0092827D02*
X0240335Y0089335D01*
X0237800Y0086800D01*
X0215800Y0071962D02*
X0215800Y0066800D01*
X0206713Y0057713D01*
X0206335Y0057713D01*
X0198473Y0051354D02*
X0194800Y0051354D01*
X0194800Y0052952D02*
X0197077Y0052952D01*
X0196836Y0054551D02*
X0194800Y0054551D01*
X0195806Y0056149D02*
X0196836Y0056149D01*
X0190887Y0062543D02*
X0178713Y0062543D01*
X0177715Y0064142D02*
X0192485Y0064142D01*
X0194084Y0065740D02*
X0177715Y0065740D01*
X0179996Y0067339D02*
X0195891Y0067339D01*
X0204281Y0068937D02*
X0181594Y0068937D01*
X0183193Y0070536D02*
X0205879Y0070536D01*
X0206085Y0072134D02*
X0184791Y0072134D01*
X0186390Y0073733D02*
X0206085Y0073733D01*
X0206085Y0075332D02*
X0187988Y0075332D01*
X0189587Y0076930D02*
X0206299Y0076930D01*
X0207186Y0078529D02*
X0192149Y0078529D01*
X0193174Y0080127D02*
X0208470Y0080127D01*
X0210069Y0081726D02*
X0193481Y0081726D01*
X0188800Y0081800D02*
X0177320Y0070320D01*
X0171165Y0070320D01*
X0177715Y0076930D02*
X0178273Y0076930D01*
X0176882Y0078529D02*
X0179872Y0078529D01*
X0181470Y0080127D02*
X0175165Y0080127D01*
X0175165Y0081726D02*
X0183069Y0081726D01*
X0184365Y0083324D02*
X0175165Y0083324D01*
X0175165Y0084923D02*
X0185303Y0084923D01*
X0189288Y0060945D02*
X0180312Y0060945D01*
X0181910Y0059346D02*
X0187690Y0059346D01*
X0186863Y0057748D02*
X0183509Y0057748D01*
X0185107Y0056149D02*
X0186800Y0056149D01*
X0186800Y0054551D02*
X0186706Y0054551D01*
X0194800Y0049755D02*
X0213694Y0049755D01*
X0213694Y0048157D02*
X0194800Y0048157D01*
X0194800Y0046558D02*
X0213948Y0046558D01*
X0215408Y0044960D02*
X0194800Y0044960D01*
X0194800Y0043361D02*
X0235020Y0043361D01*
X0235241Y0043140D02*
X0236546Y0042600D01*
X0237958Y0042600D01*
X0239263Y0043140D01*
X0239949Y0043827D01*
X0240635Y0043140D01*
X0241940Y0042600D01*
X0244798Y0042600D01*
X0245031Y0042037D01*
X0246030Y0041039D01*
X0247335Y0040498D01*
X0248747Y0040498D01*
X0250052Y0041039D01*
X0251051Y0042037D01*
X0251284Y0042600D01*
X0251900Y0042600D01*
X0253205Y0043140D01*
X0254203Y0044139D01*
X0255254Y0045190D01*
X0255795Y0046495D01*
X0255795Y0050009D01*
X0255254Y0051314D01*
X0254255Y0052312D01*
X0253205Y0053363D01*
X0251900Y0053904D01*
X0247335Y0053904D01*
X0246395Y0053514D01*
X0245454Y0053904D01*
X0242596Y0053904D01*
X0242363Y0054466D01*
X0241364Y0055465D01*
X0240060Y0056005D01*
X0234444Y0056005D01*
X0233139Y0055465D01*
X0232140Y0054466D01*
X0231600Y0053162D01*
X0231600Y0051749D01*
X0232140Y0050444D01*
X0233139Y0049446D01*
X0233702Y0049213D01*
X0233702Y0045444D01*
X0234242Y0044139D01*
X0235241Y0043140D01*
X0233902Y0044960D02*
X0229011Y0044960D01*
X0230470Y0046558D02*
X0233702Y0046558D01*
X0233702Y0048157D02*
X0230724Y0048157D01*
X0230724Y0049755D02*
X0232830Y0049755D01*
X0231764Y0051354D02*
X0230724Y0051354D01*
X0230724Y0052952D02*
X0231600Y0052952D01*
X0232225Y0054551D02*
X0230724Y0054551D01*
X0230468Y0056149D02*
X0257801Y0056149D01*
X0257801Y0054551D02*
X0242279Y0054551D01*
X0240415Y0043361D02*
X0239484Y0043361D01*
X0245306Y0041763D02*
X0194800Y0041763D01*
X0194800Y0040164D02*
X0198509Y0040164D01*
X0198596Y0040315D02*
X0198359Y0039904D01*
X0198236Y0039446D01*
X0198236Y0036466D01*
X0205535Y0036466D01*
X0205535Y0034866D01*
X0198236Y0034866D01*
X0198236Y0031886D01*
X0198359Y0031428D01*
X0198596Y0031018D01*
X0198931Y0030682D01*
X0199341Y0030445D01*
X0199799Y0030323D01*
X0205535Y0030323D01*
X0205535Y0034866D01*
X0207135Y0034866D01*
X0207135Y0030323D01*
X0212872Y0030323D01*
X0213329Y0030445D01*
X0213740Y0030682D01*
X0214075Y0031018D01*
X0214312Y0031428D01*
X0214435Y0031886D01*
X0214435Y0034866D01*
X0207135Y0034866D01*
X0207135Y0036466D01*
X0205535Y0036466D01*
X0205535Y0041009D01*
X0199799Y0041009D01*
X0199341Y0040887D01*
X0198931Y0040650D01*
X0198596Y0040315D01*
X0198236Y0038566D02*
X0194800Y0038566D01*
X0194800Y0036967D02*
X0198236Y0036967D01*
X0198236Y0033770D02*
X0194800Y0033770D01*
X0194800Y0032172D02*
X0198236Y0032172D01*
X0199120Y0030573D02*
X0194800Y0030573D01*
X0194788Y0028975D02*
X0215910Y0028975D01*
X0215789Y0029045D02*
X0216200Y0028808D01*
X0216658Y0028685D01*
X0221409Y0028685D01*
X0221409Y0033228D01*
X0215094Y0033228D01*
X0215094Y0030248D01*
X0215217Y0029790D01*
X0215454Y0029380D01*
X0215789Y0029045D01*
X0215094Y0030573D02*
X0213551Y0030573D01*
X0214435Y0032172D02*
X0215094Y0032172D01*
X0214435Y0033770D02*
X0221409Y0033770D01*
X0221800Y0033800D02*
X0220800Y0033800D01*
X0219800Y0032800D01*
X0209202Y0032800D01*
X0206335Y0035666D01*
X0206335Y0034335D01*
X0205535Y0033770D02*
X0207135Y0033770D01*
X0207135Y0032172D02*
X0205535Y0032172D01*
X0205535Y0030573D02*
X0207135Y0030573D01*
X0207135Y0035369D02*
X0215094Y0035369D01*
X0215094Y0034828D02*
X0215094Y0037809D01*
X0215217Y0038266D01*
X0215454Y0038677D01*
X0215789Y0039012D01*
X0216200Y0039249D01*
X0216658Y0039372D01*
X0221409Y0039372D01*
X0221409Y0034828D01*
X0221409Y0033228D01*
X0223009Y0033228D01*
X0223009Y0028685D01*
X0227761Y0028685D01*
X0228219Y0028808D01*
X0228630Y0029045D01*
X0228965Y0029380D01*
X0229202Y0029790D01*
X0229324Y0030248D01*
X0229324Y0033228D01*
X0223009Y0033228D01*
X0223009Y0034828D01*
X0221409Y0034828D01*
X0215094Y0034828D01*
X0214435Y0036466D02*
X0214435Y0039446D01*
X0214312Y0039904D01*
X0214075Y0040315D01*
X0213740Y0040650D01*
X0213329Y0040887D01*
X0212872Y0041009D01*
X0207135Y0041009D01*
X0207135Y0036466D01*
X0214435Y0036466D01*
X0214435Y0036967D02*
X0215094Y0036967D01*
X0215390Y0038566D02*
X0214435Y0038566D01*
X0214162Y0040164D02*
X0257801Y0040164D01*
X0257801Y0038566D02*
X0229029Y0038566D01*
X0228965Y0038677D02*
X0228630Y0039012D01*
X0228219Y0039249D01*
X0227761Y0039372D01*
X0223009Y0039372D01*
X0223009Y0034828D01*
X0229324Y0034828D01*
X0229324Y0037809D01*
X0229202Y0038266D01*
X0228965Y0038677D01*
X0229324Y0036967D02*
X0257801Y0036967D01*
X0257801Y0035369D02*
X0229324Y0035369D01*
X0229324Y0032172D02*
X0257801Y0032172D01*
X0257801Y0033770D02*
X0223009Y0033770D01*
X0222209Y0034028D02*
X0221847Y0033666D01*
X0221800Y0033800D02*
X0222028Y0034028D01*
X0222209Y0034028D01*
X0221409Y0035369D02*
X0223009Y0035369D01*
X0223009Y0036967D02*
X0221409Y0036967D01*
X0221409Y0038566D02*
X0223009Y0038566D01*
X0223800Y0032800D02*
X0219800Y0032800D01*
X0221409Y0032172D02*
X0223009Y0032172D01*
X0223009Y0030573D02*
X0221409Y0030573D01*
X0221409Y0028975D02*
X0223009Y0028975D01*
X0228508Y0028975D02*
X0257801Y0028975D01*
X0257801Y0030573D02*
X0229324Y0030573D01*
X0236320Y0024179D02*
X0190836Y0024179D01*
X0189237Y0022581D02*
X0235658Y0022581D01*
X0234996Y0020982D02*
X0187639Y0020982D01*
X0186040Y0019384D02*
X0234907Y0019384D01*
X0234907Y0017785D02*
X0184442Y0017785D01*
X0182843Y0016187D02*
X0235174Y0016187D01*
X0237787Y0025778D02*
X0192435Y0025778D01*
X0194033Y0027376D02*
X0239653Y0027376D01*
X0249947Y0027376D02*
X0257801Y0027376D01*
X0257801Y0025778D02*
X0251813Y0025778D01*
X0253280Y0024179D02*
X0257801Y0024179D01*
X0257801Y0022581D02*
X0253942Y0022581D01*
X0254604Y0020982D02*
X0257801Y0020982D01*
X0257801Y0019384D02*
X0254693Y0019384D01*
X0254693Y0017785D02*
X0257801Y0017785D01*
X0257801Y0016187D02*
X0254425Y0016187D01*
X0253763Y0014588D02*
X0257801Y0014588D01*
X0257801Y0012990D02*
X0252980Y0012990D01*
X0251382Y0011391D02*
X0257801Y0011391D01*
X0257801Y0009793D02*
X0248906Y0009793D01*
X0250776Y0041763D02*
X0257801Y0041763D01*
X0257801Y0043361D02*
X0253425Y0043361D01*
X0255024Y0044960D02*
X0257801Y0044960D01*
X0257801Y0046558D02*
X0255795Y0046558D01*
X0255795Y0048157D02*
X0257801Y0048157D01*
X0257801Y0049755D02*
X0255795Y0049755D01*
X0255214Y0051354D02*
X0257801Y0051354D01*
X0257801Y0052952D02*
X0253615Y0052952D01*
X0215800Y0071962D02*
X0215335Y0072427D01*
X0207135Y0040164D02*
X0205535Y0040164D01*
X0205535Y0038566D02*
X0207135Y0038566D01*
X0207135Y0036967D02*
X0205535Y0036967D01*
X0205535Y0035369D02*
X0194800Y0035369D01*
X0130887Y0100139D02*
X0139650Y0108902D01*
X0130887Y0100139D02*
X0130887Y0092800D01*
X0117488Y0091317D02*
X0115939Y0091317D01*
X0115939Y0089718D02*
X0117488Y0089718D01*
X0117488Y0088120D02*
X0115939Y0088120D01*
X0093800Y0095241D02*
X0051359Y0052800D01*
X0044800Y0052800D01*
X0044000Y0100126D02*
X0036383Y0100126D01*
X0035303Y0100248D01*
X0034244Y0100489D01*
X0033218Y0100848D01*
X0032239Y0101320D01*
X0031319Y0101898D01*
X0030470Y0102575D01*
X0029701Y0103344D01*
X0029024Y0104193D01*
X0028446Y0105113D01*
X0027974Y0106092D01*
X0027615Y0107118D01*
X0027374Y0108177D01*
X0027281Y0109000D01*
X0044000Y0109000D01*
X0044000Y0100126D01*
X0044000Y0100908D02*
X0045600Y0100908D01*
X0045600Y0102506D02*
X0044000Y0102506D01*
X0044000Y0104105D02*
X0045600Y0104105D01*
X0045600Y0105703D02*
X0044000Y0105703D01*
X0044000Y0107302D02*
X0045600Y0107302D01*
X0045600Y0108900D02*
X0044000Y0108900D01*
X0044000Y0113696D02*
X0045600Y0113696D01*
X0045600Y0115294D02*
X0044000Y0115294D01*
X0044000Y0116893D02*
X0045600Y0116893D01*
X0045600Y0118491D02*
X0044000Y0118491D01*
X0029094Y0104105D02*
X0005500Y0104105D01*
X0005500Y0105703D02*
X0028162Y0105703D01*
X0027573Y0107302D02*
X0005500Y0107302D01*
X0005500Y0108900D02*
X0027292Y0108900D01*
X0030556Y0102506D02*
X0005500Y0102506D01*
X0005500Y0100908D02*
X0033095Y0100908D01*
X0051567Y0140870D02*
X0067470Y0140870D01*
X0067470Y0142469D02*
X0049969Y0142469D01*
X0048391Y0144068D02*
X0067470Y0144068D01*
X0067470Y0145666D02*
X0051016Y0145666D01*
X0053111Y0147265D02*
X0067470Y0147265D01*
X0067470Y0148863D02*
X0053496Y0148863D01*
X0053496Y0150462D02*
X0067470Y0150462D01*
X0067470Y0152060D02*
X0053496Y0152060D01*
X0053391Y0153659D02*
X0067470Y0153659D01*
X0067470Y0155257D02*
X0052333Y0155257D01*
X0043992Y0156856D02*
X0067470Y0156856D01*
X0067470Y0158454D02*
X0042393Y0158454D01*
X0026959Y0180833D02*
X0060540Y0180833D01*
X0064540Y0176800D02*
X0064540Y0175202D01*
X0078942Y0160800D01*
X0084942Y0160800D01*
X0084942Y0156800D01*
X0064540Y0176800D02*
X0064540Y0186800D01*
X0065540Y0187800D01*
X0064540Y0176800D02*
X0021800Y0176800D01*
X0016641Y0180833D02*
X0014800Y0180833D01*
X0014800Y0179235D02*
X0015300Y0179235D01*
X0015300Y0177636D02*
X0014800Y0177636D01*
X0014800Y0176038D02*
X0015300Y0176038D01*
X0015300Y0174439D02*
X0014800Y0174439D01*
X0014800Y0172841D02*
X0016567Y0172841D01*
X0018239Y0182432D02*
X0014800Y0182432D01*
X0014800Y0184030D02*
X0018357Y0184030D01*
X0016759Y0185629D02*
X0014800Y0185629D01*
X0014800Y0187227D02*
X0016700Y0187227D01*
X0016700Y0188826D02*
X0014800Y0188826D01*
X0014800Y0190424D02*
X0017212Y0190424D01*
X0038391Y0213800D02*
X0050800Y0213800D01*
X0049337Y0209606D02*
X0046597Y0209606D01*
X0206792Y0206409D02*
X0213296Y0206409D01*
X0210719Y0208008D02*
X0209369Y0208008D01*
X0215044Y0215052D02*
X0215044Y0264044D01*
X0219800Y0268800D01*
X0219800Y0294997D01*
X0222816Y0298013D01*
X0236800Y0257800D02*
X0248800Y0245800D01*
X0248800Y0214800D01*
X0250800Y0212800D01*
X0250800Y0131800D01*
X0243902Y0124902D01*
X0243902Y0183438D02*
X0242371Y0184969D01*
X0222028Y0184969D01*
X0222028Y0189969D02*
X0223969Y0189969D01*
X0248800Y0214800D01*
X0233013Y0222395D02*
X0219070Y0222395D01*
X0219044Y0223993D02*
X0231415Y0223993D01*
X0230300Y0225592D02*
X0219044Y0225592D01*
X0219044Y0227190D02*
X0230300Y0227190D01*
X0230300Y0228789D02*
X0219044Y0228789D01*
X0219044Y0230387D02*
X0230300Y0230387D01*
X0231793Y0231986D02*
X0219044Y0231986D01*
X0219044Y0233584D02*
X0231619Y0233584D01*
X0230379Y0235183D02*
X0219044Y0235183D01*
X0219044Y0236781D02*
X0230379Y0236781D01*
X0230379Y0238380D02*
X0219044Y0238380D01*
X0219044Y0239978D02*
X0230379Y0239978D01*
X0231747Y0241577D02*
X0219044Y0241577D01*
X0219044Y0243175D02*
X0233345Y0243175D01*
X0232614Y0244774D02*
X0219044Y0244774D01*
X0219044Y0246372D02*
X0231700Y0246372D01*
X0231700Y0247800D02*
X0236800Y0247800D01*
X0236800Y0247800D01*
D32*
X0176800Y0154800D03*
X0176800Y0148800D03*
X0175800Y0142800D03*
X0176800Y0135800D03*
X0177800Y0124800D03*
X0152800Y0120800D03*
X0188800Y0081800D03*
X0199800Y0083800D03*
X0224800Y0061800D03*
X0215800Y0118800D03*
X0208800Y0127800D03*
X0230800Y0120800D03*
X0143800Y0055800D03*
X0143800Y0049800D03*
X0143800Y0043300D03*
X0135800Y0031800D03*
X0077800Y0135800D03*
X0137800Y0202800D03*
M02*
