G75*
%MOIN*%
%OFA0B0*%
%FSLAX25Y25*%
%IPPOS*%
%LPD*%
%AMOC8*
5,1,8,0,0,1.08239X$1,22.5*
%
%ADD10C,0.14186*%
%ADD11R,0.02900X0.07500*%
%ADD12R,0.07500X0.02900*%
%ADD13R,0.06328X0.06328*%
%ADD14C,0.06328*%
%ADD15R,0.05918X0.06706*%
%ADD16R,0.11430X0.07887*%
%ADD17R,0.13398X0.07887*%
%ADD18R,0.04343X0.03556*%
%ADD19R,0.06706X0.05918*%
%ADD20OC8,0.07400*%
%ADD21R,0.11036X0.07099*%
%ADD22C,0.00791*%
%ADD23C,0.00692*%
%ADD24C,0.06469*%
%ADD25C,0.16548*%
%ADD26C,0.07887*%
%ADD27C,0.16391*%
%ADD28OC8,0.12800*%
%ADD29R,0.29343X0.41351*%
%ADD30R,0.12611X0.04737*%
%ADD31C,0.03762*%
D10*
X0018800Y0018800D03*
X0244800Y0018800D03*
X0243800Y0292800D03*
X0018800Y0292800D03*
D11*
X0210335Y0092827D03*
X0215335Y0092827D03*
X0220335Y0092827D03*
X0225335Y0092827D03*
X0230335Y0092827D03*
X0235335Y0092827D03*
X0240335Y0092827D03*
X0240335Y0072427D03*
X0235335Y0072427D03*
X0230335Y0072427D03*
X0225335Y0072427D03*
X0220335Y0072427D03*
X0215335Y0072427D03*
X0210335Y0072427D03*
D12*
X0171165Y0070320D03*
X0171165Y0075320D03*
X0171165Y0065320D03*
X0171165Y0060320D03*
X0171165Y0055320D03*
X0171165Y0050320D03*
X0171165Y0045320D03*
X0150765Y0045320D03*
X0150765Y0050320D03*
X0150765Y0055320D03*
X0150765Y0060320D03*
X0150765Y0065320D03*
X0150765Y0070320D03*
X0150765Y0075320D03*
D13*
X0139650Y0108902D03*
D14*
X0139650Y0118902D03*
X0139650Y0128902D03*
X0139650Y0138902D03*
X0108391Y0138902D03*
X0108391Y0128902D03*
X0108391Y0118902D03*
X0108391Y0108902D03*
D15*
X0095540Y0126800D03*
X0088060Y0126800D03*
X0120060Y0077800D03*
X0127540Y0077800D03*
X0147225Y0031383D03*
X0154706Y0031383D03*
X0167225Y0031383D03*
X0174706Y0031383D03*
X0159784Y0153989D03*
X0152304Y0153989D03*
X0152304Y0163674D03*
X0159784Y0163674D03*
X0159784Y0173359D03*
X0152304Y0173359D03*
X0152304Y0183044D03*
X0159784Y0183044D03*
X0159784Y0192729D03*
X0152304Y0192729D03*
X0152304Y0202414D03*
X0159784Y0202414D03*
X0065540Y0196800D03*
X0058060Y0196800D03*
X0058060Y0187800D03*
X0065540Y0187800D03*
D16*
X0222209Y0051351D03*
X0222209Y0034028D03*
D17*
X0206335Y0035666D03*
X0206335Y0057713D03*
D18*
X0225131Y0107792D03*
X0225131Y0112910D03*
D19*
X0235272Y0113430D03*
X0235272Y0105950D03*
X0135965Y0069060D03*
X0135965Y0061580D03*
X0135965Y0049060D03*
X0135965Y0041580D03*
X0095800Y0110060D03*
X0095800Y0117540D03*
X0025800Y0156060D03*
X0025800Y0163540D03*
X0024800Y0251060D03*
X0024800Y0258540D03*
D20*
X0021800Y0206800D03*
X0021800Y0195800D03*
X0021800Y0187800D03*
X0021800Y0176800D03*
X0092706Y0298013D03*
X0104517Y0298013D03*
X0116328Y0298013D03*
X0127800Y0297800D03*
X0140139Y0298013D03*
X0151950Y0298013D03*
X0163761Y0298013D03*
X0175572Y0298013D03*
X0187383Y0298013D03*
X0199194Y0298013D03*
X0211005Y0298013D03*
X0222816Y0298013D03*
X0236800Y0257800D03*
X0236800Y0247800D03*
X0236879Y0237517D03*
X0236800Y0227800D03*
X0243902Y0183438D03*
X0243902Y0168438D03*
X0243902Y0153438D03*
X0243902Y0138438D03*
X0243902Y0123438D03*
D21*
X0131887Y0153800D03*
X0117713Y0153800D03*
X0117713Y0172800D03*
X0131887Y0172800D03*
X0130887Y0092800D03*
X0116713Y0092800D03*
D22*
X0181433Y0133783D02*
X0189553Y0133783D01*
X0181433Y0133783D02*
X0181433Y0136155D01*
X0189553Y0136155D01*
X0189553Y0133783D01*
X0189553Y0134573D02*
X0181433Y0134573D01*
X0181433Y0135363D02*
X0189553Y0135363D01*
X0189553Y0136153D02*
X0181433Y0136153D01*
X0181433Y0138783D02*
X0189553Y0138783D01*
X0181433Y0138783D02*
X0181433Y0141155D01*
X0189553Y0141155D01*
X0189553Y0138783D01*
X0189553Y0139573D02*
X0181433Y0139573D01*
X0181433Y0140363D02*
X0189553Y0140363D01*
X0189553Y0141153D02*
X0181433Y0141153D01*
X0181433Y0143783D02*
X0189553Y0143783D01*
X0181433Y0143783D02*
X0181433Y0146155D01*
X0189553Y0146155D01*
X0189553Y0143783D01*
X0189553Y0144573D02*
X0181433Y0144573D01*
X0181433Y0145363D02*
X0189553Y0145363D01*
X0189553Y0146153D02*
X0181433Y0146153D01*
X0181433Y0148783D02*
X0189553Y0148783D01*
X0181433Y0148783D02*
X0181433Y0151155D01*
X0189553Y0151155D01*
X0189553Y0148783D01*
X0189553Y0149573D02*
X0181433Y0149573D01*
X0181433Y0150363D02*
X0189553Y0150363D01*
X0189553Y0151153D02*
X0181433Y0151153D01*
X0181433Y0153783D02*
X0189553Y0153783D01*
X0181433Y0153783D02*
X0181433Y0156155D01*
X0189553Y0156155D01*
X0189553Y0153783D01*
X0189553Y0154573D02*
X0181433Y0154573D01*
X0181433Y0155363D02*
X0189553Y0155363D01*
X0189553Y0156153D02*
X0181433Y0156153D01*
X0181433Y0158783D02*
X0189553Y0158783D01*
X0181433Y0158783D02*
X0181433Y0161155D01*
X0189553Y0161155D01*
X0189553Y0158783D01*
X0189553Y0159573D02*
X0181433Y0159573D01*
X0181433Y0160363D02*
X0189553Y0160363D01*
X0189553Y0161153D02*
X0181433Y0161153D01*
X0181433Y0163783D02*
X0189553Y0163783D01*
X0181433Y0163783D02*
X0181433Y0166155D01*
X0189553Y0166155D01*
X0189553Y0163783D01*
X0189553Y0164573D02*
X0181433Y0164573D01*
X0181433Y0165363D02*
X0189553Y0165363D01*
X0189553Y0166153D02*
X0181433Y0166153D01*
X0181433Y0168783D02*
X0189553Y0168783D01*
X0181433Y0168783D02*
X0181433Y0171155D01*
X0189553Y0171155D01*
X0189553Y0168783D01*
X0189553Y0169573D02*
X0181433Y0169573D01*
X0181433Y0170363D02*
X0189553Y0170363D01*
X0189553Y0171153D02*
X0181433Y0171153D01*
X0181433Y0173783D02*
X0189553Y0173783D01*
X0181433Y0173783D02*
X0181433Y0176155D01*
X0189553Y0176155D01*
X0189553Y0173783D01*
X0189553Y0174573D02*
X0181433Y0174573D01*
X0181433Y0175363D02*
X0189553Y0175363D01*
X0189553Y0176153D02*
X0181433Y0176153D01*
X0181433Y0178783D02*
X0189553Y0178783D01*
X0181433Y0178783D02*
X0181433Y0181155D01*
X0189553Y0181155D01*
X0189553Y0178783D01*
X0189553Y0179573D02*
X0181433Y0179573D01*
X0181433Y0180363D02*
X0189553Y0180363D01*
X0189553Y0181153D02*
X0181433Y0181153D01*
X0181433Y0183783D02*
X0189553Y0183783D01*
X0181433Y0183783D02*
X0181433Y0186155D01*
X0189553Y0186155D01*
X0189553Y0183783D01*
X0189553Y0184573D02*
X0181433Y0184573D01*
X0181433Y0185363D02*
X0189553Y0185363D01*
X0189553Y0186153D02*
X0181433Y0186153D01*
X0181433Y0188783D02*
X0189553Y0188783D01*
X0181433Y0188783D02*
X0181433Y0191155D01*
X0189553Y0191155D01*
X0189553Y0188783D01*
X0189553Y0189573D02*
X0181433Y0189573D01*
X0181433Y0190363D02*
X0189553Y0190363D01*
X0189553Y0191153D02*
X0181433Y0191153D01*
X0217968Y0188783D02*
X0226088Y0188783D01*
X0217968Y0188783D02*
X0217968Y0191155D01*
X0226088Y0191155D01*
X0226088Y0188783D01*
X0226088Y0189573D02*
X0217968Y0189573D01*
X0217968Y0190363D02*
X0226088Y0190363D01*
X0226088Y0191153D02*
X0217968Y0191153D01*
X0217968Y0183783D02*
X0226088Y0183783D01*
X0217968Y0183783D02*
X0217968Y0186155D01*
X0226088Y0186155D01*
X0226088Y0183783D01*
X0226088Y0184573D02*
X0217968Y0184573D01*
X0217968Y0185363D02*
X0226088Y0185363D01*
X0226088Y0186153D02*
X0217968Y0186153D01*
X0217968Y0178783D02*
X0226088Y0178783D01*
X0217968Y0178783D02*
X0217968Y0181155D01*
X0226088Y0181155D01*
X0226088Y0178783D01*
X0226088Y0179573D02*
X0217968Y0179573D01*
X0217968Y0180363D02*
X0226088Y0180363D01*
X0226088Y0181153D02*
X0217968Y0181153D01*
X0217968Y0173783D02*
X0226088Y0173783D01*
X0217968Y0173783D02*
X0217968Y0176155D01*
X0226088Y0176155D01*
X0226088Y0173783D01*
X0226088Y0174573D02*
X0217968Y0174573D01*
X0217968Y0175363D02*
X0226088Y0175363D01*
X0226088Y0176153D02*
X0217968Y0176153D01*
X0217968Y0168783D02*
X0226088Y0168783D01*
X0217968Y0168783D02*
X0217968Y0171155D01*
X0226088Y0171155D01*
X0226088Y0168783D01*
X0226088Y0169573D02*
X0217968Y0169573D01*
X0217968Y0170363D02*
X0226088Y0170363D01*
X0226088Y0171153D02*
X0217968Y0171153D01*
X0217968Y0163783D02*
X0226088Y0163783D01*
X0217968Y0163783D02*
X0217968Y0166155D01*
X0226088Y0166155D01*
X0226088Y0163783D01*
X0226088Y0164573D02*
X0217968Y0164573D01*
X0217968Y0165363D02*
X0226088Y0165363D01*
X0226088Y0166153D02*
X0217968Y0166153D01*
X0217968Y0158783D02*
X0226088Y0158783D01*
X0217968Y0158783D02*
X0217968Y0161155D01*
X0226088Y0161155D01*
X0226088Y0158783D01*
X0226088Y0159573D02*
X0217968Y0159573D01*
X0217968Y0160363D02*
X0226088Y0160363D01*
X0226088Y0161153D02*
X0217968Y0161153D01*
X0217968Y0153783D02*
X0226088Y0153783D01*
X0217968Y0153783D02*
X0217968Y0156155D01*
X0226088Y0156155D01*
X0226088Y0153783D01*
X0226088Y0154573D02*
X0217968Y0154573D01*
X0217968Y0155363D02*
X0226088Y0155363D01*
X0226088Y0156153D02*
X0217968Y0156153D01*
X0217968Y0148783D02*
X0226088Y0148783D01*
X0217968Y0148783D02*
X0217968Y0151155D01*
X0226088Y0151155D01*
X0226088Y0148783D01*
X0226088Y0149573D02*
X0217968Y0149573D01*
X0217968Y0150363D02*
X0226088Y0150363D01*
X0226088Y0151153D02*
X0217968Y0151153D01*
X0217968Y0143783D02*
X0226088Y0143783D01*
X0217968Y0143783D02*
X0217968Y0146155D01*
X0226088Y0146155D01*
X0226088Y0143783D01*
X0226088Y0144573D02*
X0217968Y0144573D01*
X0217968Y0145363D02*
X0226088Y0145363D01*
X0226088Y0146153D02*
X0217968Y0146153D01*
X0217968Y0138783D02*
X0226088Y0138783D01*
X0217968Y0138783D02*
X0217968Y0141155D01*
X0226088Y0141155D01*
X0226088Y0138783D01*
X0226088Y0139573D02*
X0217968Y0139573D01*
X0217968Y0140363D02*
X0226088Y0140363D01*
X0226088Y0141153D02*
X0217968Y0141153D01*
X0217968Y0133783D02*
X0226088Y0133783D01*
X0217968Y0133783D02*
X0217968Y0136155D01*
X0226088Y0136155D01*
X0226088Y0133783D01*
X0226088Y0134573D02*
X0217968Y0134573D01*
X0217968Y0135363D02*
X0226088Y0135363D01*
X0226088Y0136153D02*
X0217968Y0136153D01*
D23*
X0130445Y0191810D02*
X0123959Y0191810D01*
X0130445Y0191810D02*
X0130445Y0189734D01*
X0123959Y0189734D01*
X0123959Y0191810D01*
X0123959Y0190425D02*
X0130445Y0190425D01*
X0130445Y0191116D02*
X0123959Y0191116D01*
X0123959Y0191807D02*
X0130445Y0191807D01*
X0130445Y0194369D02*
X0123959Y0194369D01*
X0130445Y0194369D02*
X0130445Y0192293D01*
X0123959Y0192293D01*
X0123959Y0194369D01*
X0123959Y0192984D02*
X0130445Y0192984D01*
X0130445Y0193675D02*
X0123959Y0193675D01*
X0123959Y0194366D02*
X0130445Y0194366D01*
X0130445Y0196929D02*
X0123959Y0196929D01*
X0130445Y0196929D02*
X0130445Y0194853D01*
X0123959Y0194853D01*
X0123959Y0196929D01*
X0123959Y0195544D02*
X0130445Y0195544D01*
X0130445Y0196235D02*
X0123959Y0196235D01*
X0123959Y0196926D02*
X0130445Y0196926D01*
X0130445Y0199488D02*
X0123959Y0199488D01*
X0130445Y0199488D02*
X0130445Y0197412D01*
X0123959Y0197412D01*
X0123959Y0199488D01*
X0123959Y0198103D02*
X0130445Y0198103D01*
X0130445Y0198794D02*
X0123959Y0198794D01*
X0123959Y0199485D02*
X0130445Y0199485D01*
X0113752Y0199488D02*
X0107266Y0199488D01*
X0113752Y0199488D02*
X0113752Y0197412D01*
X0107266Y0197412D01*
X0107266Y0199488D01*
X0107266Y0198103D02*
X0113752Y0198103D01*
X0113752Y0198794D02*
X0107266Y0198794D01*
X0107266Y0199485D02*
X0113752Y0199485D01*
X0113752Y0196929D02*
X0107266Y0196929D01*
X0113752Y0196929D02*
X0113752Y0194853D01*
X0107266Y0194853D01*
X0107266Y0196929D01*
X0107266Y0195544D02*
X0113752Y0195544D01*
X0113752Y0196235D02*
X0107266Y0196235D01*
X0107266Y0196926D02*
X0113752Y0196926D01*
X0113752Y0194369D02*
X0107266Y0194369D01*
X0113752Y0194369D02*
X0113752Y0192293D01*
X0107266Y0192293D01*
X0107266Y0194369D01*
X0107266Y0192984D02*
X0113752Y0192984D01*
X0113752Y0193675D02*
X0107266Y0193675D01*
X0107266Y0194366D02*
X0113752Y0194366D01*
X0113752Y0191810D02*
X0107266Y0191810D01*
X0113752Y0191810D02*
X0113752Y0189734D01*
X0107266Y0189734D01*
X0107266Y0191810D01*
X0107266Y0190425D02*
X0113752Y0190425D01*
X0113752Y0191116D02*
X0107266Y0191116D01*
X0107266Y0191807D02*
X0113752Y0191807D01*
D24*
X0115044Y0212217D02*
X0115044Y0217887D01*
X0105044Y0217887D02*
X0105044Y0212217D01*
X0125044Y0212217D02*
X0125044Y0217887D01*
X0135044Y0217887D02*
X0135044Y0212217D01*
X0145044Y0212217D02*
X0145044Y0217887D01*
X0155044Y0217887D02*
X0155044Y0212217D01*
X0165044Y0212217D02*
X0165044Y0217887D01*
X0175044Y0217887D02*
X0175044Y0212217D01*
X0185044Y0212217D02*
X0185044Y0217887D01*
X0195044Y0217887D02*
X0195044Y0212217D01*
X0205044Y0212217D02*
X0205044Y0217887D01*
X0215044Y0217887D02*
X0215044Y0212217D01*
X0215044Y0272217D02*
X0215044Y0277887D01*
X0205044Y0277887D02*
X0205044Y0272217D01*
X0195044Y0272217D02*
X0195044Y0277887D01*
X0185044Y0277887D02*
X0185044Y0272217D01*
X0175044Y0272217D02*
X0175044Y0277887D01*
X0165044Y0277887D02*
X0165044Y0272217D01*
X0155044Y0272217D02*
X0155044Y0277887D01*
X0145044Y0277887D02*
X0145044Y0272217D01*
X0135044Y0272217D02*
X0135044Y0277887D01*
X0125044Y0277887D02*
X0125044Y0272217D01*
X0115044Y0272217D02*
X0115044Y0277887D01*
X0105044Y0277887D02*
X0105044Y0272217D01*
D25*
X0052674Y0109800D02*
X0036926Y0109800D01*
X0036926Y0052800D02*
X0052674Y0052800D01*
D26*
X0090335Y0262359D03*
X0090335Y0272202D03*
X0090335Y0282044D03*
D27*
X0062776Y0289524D03*
X0062776Y0254879D03*
D28*
X0093800Y0095241D03*
X0093800Y0010359D03*
D29*
X0084942Y0160800D03*
X0078942Y0223800D03*
D30*
X0038391Y0213800D03*
X0038391Y0233800D03*
X0044391Y0170800D03*
X0044391Y0150800D03*
D31*
X0077800Y0135800D03*
X0137800Y0202800D03*
X0176800Y0154800D03*
X0176800Y0148800D03*
X0175800Y0142800D03*
X0176800Y0135800D03*
X0177800Y0124800D03*
X0152800Y0120800D03*
X0188800Y0081800D03*
X0199800Y0083800D03*
X0224800Y0061800D03*
X0215800Y0118800D03*
X0208800Y0127800D03*
X0230800Y0120800D03*
X0143800Y0055800D03*
X0143800Y0049800D03*
X0143800Y0043300D03*
X0135800Y0031800D03*
M02*
